G04 #@! TF.GenerationSoftware,KiCad,Pcbnew,5.0.2-bee76a0~70~ubuntu18.04.1*
G04 #@! TF.CreationDate,2019-01-15T20:31:34+13:00*
G04 #@! TF.ProjectId,pynano-1,70796e61-6e6f-42d3-912e-6b696361645f,rev?*
G04 #@! TF.SameCoordinates,Original*
G04 #@! TF.FileFunction,Copper,L4,Bot*
G04 #@! TF.FilePolarity,Positive*
%FSLAX46Y46*%
G04 Gerber Fmt 4.6, Leading zero omitted, Abs format (unit mm)*
G04 Created by KiCad (PCBNEW 5.0.2-bee76a0~70~ubuntu18.04.1) date Tue 15 Jan 2019 08:31:34 PM NZDT*
%MOMM*%
%LPD*%
G01*
G04 APERTURE LIST*
G04 #@! TA.AperFunction,BGAPad,CuDef*
%ADD10C,0.500000*%
G04 #@! TD*
G04 #@! TA.AperFunction,ComponentPad*
%ADD11R,1.700000X1.700000*%
G04 #@! TD*
G04 #@! TA.AperFunction,ComponentPad*
%ADD12O,1.700000X1.700000*%
G04 #@! TD*
G04 #@! TA.AperFunction,SMDPad,CuDef*
%ADD13R,1.360000X1.400000*%
G04 #@! TD*
G04 #@! TA.AperFunction,SMDPad,CuDef*
%ADD14R,1.400000X1.360000*%
G04 #@! TD*
G04 #@! TA.AperFunction,SMDPad,CuDef*
%ADD15R,0.575000X0.650000*%
G04 #@! TD*
G04 #@! TA.AperFunction,SMDPad,CuDef*
%ADD16R,0.650000X0.575000*%
G04 #@! TD*
G04 #@! TA.AperFunction,SMDPad,CuDef*
%ADD17R,0.970000X1.500000*%
G04 #@! TD*
G04 #@! TA.AperFunction,SMDPad,CuDef*
%ADD18R,1.500000X0.970000*%
G04 #@! TD*
G04 #@! TA.AperFunction,SMDPad,CuDef*
%ADD19R,1.100000X1.100000*%
G04 #@! TD*
G04 #@! TA.AperFunction,ComponentPad*
%ADD20C,1.450000*%
G04 #@! TD*
G04 #@! TA.AperFunction,ComponentPad*
%ADD21O,1.900000X1.200000*%
G04 #@! TD*
G04 #@! TA.AperFunction,SMDPad,CuDef*
%ADD22R,1.000000X1.000000*%
G04 #@! TD*
G04 #@! TA.AperFunction,SMDPad,CuDef*
%ADD23R,2.000000X3.800000*%
G04 #@! TD*
G04 #@! TA.AperFunction,SMDPad,CuDef*
%ADD24R,2.000000X1.500000*%
G04 #@! TD*
G04 #@! TA.AperFunction,SMDPad,CuDef*
%ADD25R,0.600000X1.550000*%
G04 #@! TD*
G04 #@! TA.AperFunction,ViaPad*
%ADD26C,0.800000*%
G04 #@! TD*
G04 #@! TA.AperFunction,ViaPad*
%ADD27C,0.600000*%
G04 #@! TD*
G04 #@! TA.AperFunction,Conductor*
%ADD28C,1.270000*%
G04 #@! TD*
G04 #@! TA.AperFunction,Conductor*
%ADD29C,0.762000*%
G04 #@! TD*
G04 #@! TA.AperFunction,Conductor*
%ADD30C,0.254000*%
G04 #@! TD*
G04 #@! TA.AperFunction,Conductor*
%ADD31C,0.152400*%
G04 #@! TD*
G04 #@! TA.AperFunction,Conductor*
%ADD32C,0.508000*%
G04 #@! TD*
G04 APERTURE END LIST*
D10*
G04 #@! TO.P,REF\002A\002A,~*
G04 #@! TO.N,N/C*
X152400000Y-54229000D03*
G04 #@! TD*
G04 #@! TO.P,REF\002A\002A,~*
G04 #@! TO.N,N/C*
X190500000Y-67945000D03*
G04 #@! TD*
G04 #@! TO.P,REF\002A\002A,~*
G04 #@! TO.N,N/C*
X190500000Y-54102000D03*
G04 #@! TD*
D11*
G04 #@! TO.P,J1,1*
G04 #@! TO.N,+3V3*
X190500000Y-52070000D03*
D12*
G04 #@! TO.P,J1,2*
X187960000Y-52070000D03*
G04 #@! TO.P,J1,3*
G04 #@! TO.N,GND*
X185420000Y-52070000D03*
G04 #@! TO.P,J1,4*
X182880000Y-52070000D03*
G04 #@! TO.P,J1,5*
G04 #@! TO.N,/PC8*
X180340000Y-52070000D03*
G04 #@! TO.P,J1,6*
G04 #@! TO.N,/PC9*
X177800000Y-52070000D03*
G04 #@! TO.P,J1,7*
G04 #@! TO.N,/PA8*
X175260000Y-52070000D03*
G04 #@! TO.P,J1,8*
G04 #@! TO.N,/PA10*
X172720000Y-52070000D03*
G04 #@! TO.P,J1,9*
G04 #@! TO.N,/PA15*
X170180000Y-52070000D03*
G04 #@! TO.P,J1,10*
G04 #@! TO.N,/PC10*
X167640000Y-52070000D03*
G04 #@! TO.P,J1,11*
G04 #@! TO.N,/PC11*
X165100000Y-52070000D03*
G04 #@! TO.P,J1,12*
G04 #@! TO.N,/PC12*
X162560000Y-52070000D03*
G04 #@! TO.P,J1,13*
G04 #@! TO.N,/PD2*
X160020000Y-52070000D03*
G04 #@! TO.P,J1,14*
G04 #@! TO.N,/PB3*
X157480000Y-52070000D03*
G04 #@! TO.P,J1,15*
G04 #@! TO.N,/PB4*
X154940000Y-52070000D03*
G04 #@! TO.P,J1,16*
G04 #@! TO.N,/PB5*
X152400000Y-52070000D03*
G04 #@! TO.P,J1,17*
G04 #@! TO.N,/PB6*
X149860000Y-52070000D03*
G04 #@! TO.P,J1,18*
G04 #@! TO.N,/PB7*
X147320000Y-52070000D03*
G04 #@! TO.P,J1,19*
G04 #@! TO.N,/BOOT0*
X144780000Y-52070000D03*
G04 #@! TO.P,J1,20*
G04 #@! TO.N,/PB8*
X142240000Y-52070000D03*
G04 #@! TO.P,J1,21*
G04 #@! TO.N,/PB9*
X139700000Y-52070000D03*
G04 #@! TO.P,J1,22*
G04 #@! TO.N,/PC13*
X137160000Y-52070000D03*
G04 #@! TD*
G04 #@! TO.P,J3,22*
G04 #@! TO.N,/VDDA*
X137160000Y-69850000D03*
G04 #@! TO.P,J3,21*
G04 #@! TO.N,/PA0*
X139700000Y-69850000D03*
G04 #@! TO.P,J3,20*
G04 #@! TO.N,/PA1*
X142240000Y-69850000D03*
G04 #@! TO.P,J3,19*
G04 #@! TO.N,/PA2*
X144780000Y-69850000D03*
G04 #@! TO.P,J3,18*
G04 #@! TO.N,/PA3*
X147320000Y-69850000D03*
G04 #@! TO.P,J3,17*
G04 #@! TO.N,/PA4*
X149860000Y-69850000D03*
G04 #@! TO.P,J3,16*
G04 #@! TO.N,/PA5*
X152400000Y-69850000D03*
G04 #@! TO.P,J3,15*
G04 #@! TO.N,/PA6*
X154940000Y-69850000D03*
G04 #@! TO.P,J3,14*
G04 #@! TO.N,/PA7*
X157480000Y-69850000D03*
G04 #@! TO.P,J3,13*
G04 #@! TO.N,/PC4*
X160020000Y-69850000D03*
G04 #@! TO.P,J3,12*
G04 #@! TO.N,/PC5*
X162560000Y-69850000D03*
G04 #@! TO.P,J3,11*
G04 #@! TO.N,/PB0*
X165100000Y-69850000D03*
G04 #@! TO.P,J3,10*
G04 #@! TO.N,/PB1*
X167640000Y-69850000D03*
G04 #@! TO.P,J3,9*
G04 #@! TO.N,/PB10*
X170180000Y-69850000D03*
G04 #@! TO.P,J3,8*
G04 #@! TO.N,/PB11*
X172720000Y-69850000D03*
G04 #@! TO.P,J3,7*
G04 #@! TO.N,/PC6*
X175260000Y-69850000D03*
G04 #@! TO.P,J3,6*
G04 #@! TO.N,/PC7*
X177800000Y-69850000D03*
G04 #@! TO.P,J3,5*
G04 #@! TO.N,GND*
X180340000Y-69850000D03*
G04 #@! TO.P,J3,4*
G04 #@! TO.N,+3V3*
X182880000Y-69850000D03*
G04 #@! TO.P,J3,3*
G04 #@! TO.N,GND*
X185420000Y-69850000D03*
G04 #@! TO.P,J3,2*
G04 #@! TO.N,+5V*
X187960000Y-69850000D03*
D11*
G04 #@! TO.P,J3,1*
G04 #@! TO.N,VBUS*
X190500000Y-69850000D03*
G04 #@! TD*
D13*
G04 #@! TO.P,C1,1*
G04 #@! TO.N,+5V*
X188019200Y-66471800D03*
G04 #@! TO.P,C1,2*
G04 #@! TO.N,GND*
X185259200Y-66471800D03*
G04 #@! TD*
G04 #@! TO.P,C2,1*
G04 #@! TO.N,+3V3*
X177944000Y-59436000D03*
G04 #@! TO.P,C2,2*
G04 #@! TO.N,GND*
X180704000Y-59436000D03*
G04 #@! TD*
D14*
G04 #@! TO.P,C3,2*
G04 #@! TO.N,GND*
X163449000Y-59072000D03*
G04 #@! TO.P,C3,1*
G04 #@! TO.N,+3V3*
X163449000Y-61832000D03*
G04 #@! TD*
D15*
G04 #@! TO.P,C6,1*
G04 #@! TO.N,+3V3*
X158997500Y-56896000D03*
G04 #@! TO.P,C6,2*
G04 #@! TO.N,GND*
X159772500Y-56896000D03*
G04 #@! TD*
D16*
G04 #@! TO.P,C9,2*
G04 #@! TO.N,GND*
X158750000Y-58807500D03*
G04 #@! TO.P,C9,1*
G04 #@! TO.N,+3V3*
X158750000Y-58032500D03*
G04 #@! TD*
D15*
G04 #@! TO.P,C11,1*
G04 #@! TO.N,+3V3*
X160153500Y-65024000D03*
G04 #@! TO.P,C11,2*
G04 #@! TO.N,GND*
X159378500Y-65024000D03*
G04 #@! TD*
D16*
G04 #@! TO.P,C12,1*
G04 #@! TO.N,+3V3*
X166878000Y-65030500D03*
G04 #@! TO.P,C12,2*
G04 #@! TO.N,GND*
X166878000Y-64255500D03*
G04 #@! TD*
D17*
G04 #@! TO.P,C13,2*
G04 #@! TO.N,GND*
X163256000Y-64516000D03*
G04 #@! TO.P,C13,1*
G04 #@! TO.N,/VCAP_1*
X165166000Y-64516000D03*
G04 #@! TD*
D15*
G04 #@! TO.P,C14,1*
G04 #@! TO.N,+3V3*
X166757500Y-57023000D03*
G04 #@! TO.P,C14,2*
G04 #@! TO.N,GND*
X165982500Y-57023000D03*
G04 #@! TD*
D18*
G04 #@! TO.P,C15,1*
G04 #@! TO.N,/VCAP_2*
X166116000Y-58481000D03*
G04 #@! TO.P,C15,2*
G04 #@! TO.N,GND*
X166116000Y-60391000D03*
G04 #@! TD*
D16*
G04 #@! TO.P,C16,2*
G04 #@! TO.N,GND*
X158623000Y-62604500D03*
G04 #@! TO.P,C16,1*
G04 #@! TO.N,/VDDA*
X158623000Y-63379500D03*
G04 #@! TD*
D19*
G04 #@! TO.P,D1,1*
G04 #@! TO.N,+5V*
X185470800Y-64417400D03*
G04 #@! TO.P,D1,2*
G04 #@! TO.N,VBUS*
X185470800Y-61617400D03*
G04 #@! TD*
D18*
G04 #@! TO.P,FB1,1*
G04 #@! TO.N,+3V3*
X160274000Y-61402000D03*
G04 #@! TO.P,FB1,2*
G04 #@! TO.N,/VDDA*
X160274000Y-63312000D03*
G04 #@! TD*
D20*
G04 #@! TO.P,J2,6*
G04 #@! TO.N,GND*
X188224700Y-63460000D03*
X188224700Y-58460000D03*
D21*
X190924700Y-64460000D03*
X190924700Y-57460000D03*
G04 #@! TD*
D15*
G04 #@! TO.P,R1,2*
G04 #@! TO.N,GND*
X162185500Y-56896000D03*
G04 #@! TO.P,R1,1*
G04 #@! TO.N,/BOOT0*
X161410500Y-56896000D03*
G04 #@! TD*
G04 #@! TO.P,R2,1*
G04 #@! TO.N,/BOOT1*
X163709500Y-66167000D03*
G04 #@! TO.P,R2,2*
G04 #@! TO.N,GND*
X162934500Y-66167000D03*
G04 #@! TD*
D22*
G04 #@! TO.P,TP1,1*
G04 #@! TO.N,/SYS_SWDIO*
X170561000Y-57531000D03*
G04 #@! TD*
G04 #@! TO.P,TP2,1*
G04 #@! TO.N,/SYS_SWCLK*
X170561000Y-54864000D03*
G04 #@! TD*
D23*
G04 #@! TO.P,U1,2*
G04 #@! TO.N,+3V3*
X176478800Y-64135000D03*
D24*
X182778800Y-64135000D03*
G04 #@! TO.P,U1,3*
G04 #@! TO.N,+5V*
X182778800Y-66435000D03*
G04 #@! TO.P,U1,1*
G04 #@! TO.N,GND*
X182778800Y-61835000D03*
G04 #@! TD*
D25*
G04 #@! TO.P,U3,1*
G04 #@! TO.N,/SPI2_NSS*
X174371000Y-65946000D03*
G04 #@! TO.P,U3,2*
G04 #@! TO.N,/SPI2_MISO*
X173101000Y-65946000D03*
G04 #@! TO.P,U3,3*
G04 #@! TO.N,Net-(R9-Pad2)*
X171831000Y-65946000D03*
G04 #@! TO.P,U3,4*
G04 #@! TO.N,GND*
X170561000Y-65946000D03*
G04 #@! TO.P,U3,5*
G04 #@! TO.N,/SPI2_MOSI*
X170561000Y-60546000D03*
G04 #@! TO.P,U3,6*
G04 #@! TO.N,/SPI2_SCK*
X171831000Y-60546000D03*
G04 #@! TO.P,U3,7*
G04 #@! TO.N,Net-(R8-Pad2)*
X173101000Y-60546000D03*
G04 #@! TO.P,U3,8*
G04 #@! TO.N,+3V3*
X174371000Y-60546000D03*
G04 #@! TD*
D22*
G04 #@! TO.P,TP3,1*
G04 #@! TO.N,/nRST*
X137795000Y-61849000D03*
G04 #@! TD*
D16*
G04 #@! TO.P,R3,1*
G04 #@! TO.N,+3V3*
X139725400Y-62820700D03*
G04 #@! TO.P,R3,2*
G04 #@! TO.N,/nRST*
X139725400Y-62045700D03*
G04 #@! TD*
G04 #@! TO.P,R10,2*
G04 #@! TO.N,/PC11*
X165023800Y-53638300D03*
G04 #@! TO.P,R10,1*
G04 #@! TO.N,+3V3*
X165023800Y-54413300D03*
G04 #@! TD*
G04 #@! TO.P,R12,1*
G04 #@! TO.N,/PB5*
X150952200Y-53917700D03*
G04 #@! TO.P,R12,2*
G04 #@! TO.N,GND*
X150952200Y-54692700D03*
G04 #@! TD*
D15*
G04 #@! TO.P,R13,2*
G04 #@! TO.N,/PA10*
X173602500Y-53594000D03*
G04 #@! TO.P,R13,1*
G04 #@! TO.N,+3V3*
X174377500Y-53594000D03*
G04 #@! TD*
G04 #@! TO.P,R14,1*
G04 #@! TO.N,/PB11*
X169373700Y-67970400D03*
G04 #@! TO.P,R14,2*
G04 #@! TO.N,GND*
X168598700Y-67970400D03*
G04 #@! TD*
D26*
G04 #@! TO.N,GND*
X158877000Y-65278000D03*
X158496000Y-61976000D03*
X160393353Y-57303767D03*
X162941000Y-57785000D03*
X163957000Y-57785000D03*
X165569811Y-57443598D03*
D27*
X165735000Y-61722000D03*
X164973000Y-61722000D03*
X166878000Y-63627000D03*
X182626000Y-59817000D03*
X183286400Y-59817000D03*
G04 #@! TO.N,+3V3*
X162814000Y-63093600D03*
X163474400Y-63093600D03*
X164134800Y-63093600D03*
X167487600Y-57048400D03*
X166299000Y-65030500D03*
X160172400Y-65481200D03*
X171094400Y-63601600D03*
X174447200Y-62179200D03*
X175869600Y-61214000D03*
X176530000Y-61214000D03*
X179882800Y-62890400D03*
X179882800Y-63601600D03*
X179882800Y-64312800D03*
X179882800Y-65024000D03*
X180594000Y-62890400D03*
X180594000Y-63601600D03*
X180594000Y-64312800D03*
X180594000Y-65024000D03*
X175869600Y-60452000D03*
X176530000Y-60452000D03*
X180594000Y-62179200D03*
X179882800Y-62179200D03*
X179882800Y-65735200D03*
X180594000Y-65735200D03*
X159004000Y-56261000D03*
X158165800Y-57759600D03*
X174599600Y-54127400D03*
X139344400Y-63627000D03*
G04 #@! TO.N,/nRST*
X139700000Y-60960000D03*
D26*
G04 #@! TO.N,/VCAP_1*
X165608000Y-65532000D03*
G04 #@! TO.N,/VCAP_2*
X167299544Y-58286610D03*
G04 #@! TO.N,/VDDA*
X158369000Y-64008000D03*
G04 #@! TO.N,VBUS*
X184962800Y-59791600D03*
X186080400Y-59791600D03*
G04 #@! TO.N,/BOOT0*
X160655000Y-56388000D03*
G04 #@! TO.N,/BOOT1*
X164243745Y-65617775D03*
G04 #@! TO.N,/SYS_SWDIO*
X169586863Y-57826863D03*
G04 #@! TO.N,/SYS_SWCLK*
X167259962Y-55485189D03*
D27*
G04 #@! TO.N,/PA8*
X173482000Y-57150000D03*
X167383824Y-60634579D03*
G04 #@! TO.N,/SPI2_NSS*
X173609000Y-64389000D03*
G04 #@! TO.N,Net-(R8-Pad2)*
X173736000Y-61722000D03*
G04 #@! TO.N,Net-(R9-Pad2)*
X171196000Y-64389000D03*
G04 #@! TO.N,/SPI2_SCK*
X171958000Y-62611000D03*
G04 #@! TO.N,/SPI2_MISO*
X170492459Y-62218022D03*
G04 #@! TO.N,/SPI2_MOSI*
X171244968Y-62157560D03*
G04 #@! TO.N,/PC6*
X167513037Y-62992220D03*
G04 #@! TO.N,/PC7*
X167386000Y-62250610D03*
G04 #@! TO.N,/PC8*
X166497000Y-62230000D03*
X174244000Y-58039000D03*
G04 #@! TO.N,/PC9*
X173355000Y-58039000D03*
X166644609Y-61342244D03*
G04 #@! TO.N,/PA10*
X167386000Y-59563000D03*
X172466000Y-57150000D03*
G04 #@! TO.N,/PB3*
X164084000Y-56388000D03*
G04 #@! TO.N,/PB4*
X163195000Y-56261000D03*
G04 #@! TO.N,/PB5*
X162458796Y-56105673D03*
G04 #@! TD*
D28*
G04 #@! TO.N,+5V*
X185964800Y-64417400D02*
X188019200Y-66471800D01*
X185470800Y-64417400D02*
X185964800Y-64417400D01*
X188019200Y-69790800D02*
X187960000Y-69850000D01*
X188019200Y-66471800D02*
X188019200Y-69790800D01*
D29*
X183028800Y-66435000D02*
X182778800Y-66435000D01*
X185046400Y-64417400D02*
X183028800Y-66435000D01*
X185470800Y-64417400D02*
X185046400Y-64417400D01*
D30*
G04 #@! TO.N,GND*
X159124500Y-65278000D02*
X159378500Y-65024000D01*
X158877000Y-65278000D02*
X159124500Y-65278000D01*
X158496000Y-62477500D02*
X158623000Y-62604500D01*
X158496000Y-61976000D02*
X158496000Y-62477500D01*
X159985586Y-56896000D02*
X159993354Y-56903768D01*
X159772500Y-56896000D02*
X159985586Y-56896000D01*
X159993354Y-56903768D02*
X160393353Y-57303767D01*
X163449000Y-59072000D02*
X163449000Y-58293000D01*
X163449000Y-58293000D02*
X162941000Y-57785000D01*
X165982500Y-57030909D02*
X165969810Y-57043599D01*
X165969810Y-57043599D02*
X165569811Y-57443598D01*
X165982500Y-57023000D02*
X165982500Y-57030909D01*
D31*
X165982500Y-57500400D02*
X166140100Y-57658000D01*
X165982500Y-57023000D02*
X165982500Y-57500400D01*
X166116000Y-61341000D02*
X165735000Y-61722000D01*
X166116000Y-60391000D02*
X166116000Y-61341000D01*
X166878000Y-64255500D02*
X166878000Y-63627000D01*
G04 #@! TO.N,+3V3*
X163019800Y-63093600D02*
X162814000Y-63093600D01*
X163449000Y-61832000D02*
X163449000Y-62664400D01*
X163449000Y-62664400D02*
X163019800Y-63093600D01*
X163474400Y-63093600D02*
X164134800Y-63093600D01*
D32*
X163474400Y-61857400D02*
X163449000Y-61832000D01*
X163474400Y-63093600D02*
X163474400Y-61857400D01*
X163019000Y-61402000D02*
X163449000Y-61832000D01*
X160274000Y-61402000D02*
X163019000Y-61402000D01*
X159664400Y-59799400D02*
X159664400Y-58623200D01*
X160274000Y-60409000D02*
X159664400Y-59799400D01*
X160274000Y-61402000D02*
X160274000Y-60409000D01*
D30*
X159329000Y-58032500D02*
X158750000Y-58032500D01*
X159664400Y-58367900D02*
X159329000Y-58032500D01*
X159664400Y-58623200D02*
X159664400Y-58367900D01*
X158997500Y-57785000D02*
X158750000Y-58032500D01*
X158997500Y-56896000D02*
X158997500Y-57785000D01*
X160695000Y-65024000D02*
X160153500Y-65024000D01*
X161303401Y-64415599D02*
X160695000Y-65024000D01*
X161303401Y-62166401D02*
X161303401Y-64415599D01*
X160539000Y-61402000D02*
X161303401Y-62166401D01*
X160274000Y-61402000D02*
X160539000Y-61402000D01*
X165481522Y-63093600D02*
X166116000Y-63728078D01*
X164134800Y-63093600D02*
X165481522Y-63093600D01*
X166116000Y-64847500D02*
X166299000Y-65030500D01*
X166116000Y-63728078D02*
X166116000Y-64847500D01*
X163449000Y-60898000D02*
X164846000Y-59501000D01*
X163449000Y-61832000D02*
X163449000Y-60898000D01*
X164846000Y-59501000D02*
X164846000Y-56997600D01*
X166757500Y-56444000D02*
X166757500Y-57023000D01*
X165425001Y-56418599D02*
X166732099Y-56418599D01*
X166732099Y-56418599D02*
X166757500Y-56444000D01*
X164846000Y-56997600D02*
X165425001Y-56418599D01*
X166757500Y-57023000D02*
X167462200Y-57023000D01*
X167462200Y-57023000D02*
X167487600Y-57048400D01*
X166299000Y-65030500D02*
X166878000Y-65030500D01*
X160172400Y-65042900D02*
X160153500Y-65024000D01*
X160172400Y-65481200D02*
X160172400Y-65042900D01*
X174447200Y-60622200D02*
X174371000Y-60546000D01*
X174447200Y-62179200D02*
X174447200Y-60622200D01*
D31*
X159004000Y-56889500D02*
X158997500Y-56896000D01*
X159004000Y-56261000D02*
X159004000Y-56889500D01*
X158750000Y-58032500D02*
X158438700Y-58032500D01*
X158438700Y-58032500D02*
X158165800Y-57759600D01*
X165425001Y-55254401D02*
X165425001Y-56418599D01*
X165023800Y-54853200D02*
X165425001Y-55254401D01*
X165023800Y-54413300D02*
X165023800Y-54853200D01*
X174377500Y-53594000D02*
X174377500Y-53905300D01*
X174377500Y-53905300D02*
X174599600Y-54127400D01*
X139725400Y-62820700D02*
X139725400Y-63246000D01*
X139725400Y-63246000D02*
X139344400Y-63627000D01*
D30*
G04 #@! TO.N,/nRST*
X137795000Y-61095000D02*
X137795000Y-61849000D01*
X137930000Y-60960000D02*
X137795000Y-61095000D01*
X139700000Y-60960000D02*
X137930000Y-60960000D01*
D31*
X139700000Y-62020300D02*
X139725400Y-62045700D01*
X139700000Y-60960000D02*
X139700000Y-62020300D01*
D30*
G04 #@! TO.N,/VCAP_1*
X165608000Y-64958000D02*
X165166000Y-64516000D01*
X165608000Y-65532000D02*
X165608000Y-64958000D01*
G04 #@! TO.N,/VCAP_2*
X166116000Y-58481000D02*
X167120000Y-58481000D01*
X167299544Y-58301456D02*
X167299544Y-58286610D01*
X167120000Y-58481000D02*
X167299544Y-58301456D01*
G04 #@! TO.N,/VDDA*
X158369000Y-63633500D02*
X158623000Y-63379500D01*
X158369000Y-64008000D02*
X158369000Y-63633500D01*
X160206500Y-63379500D02*
X160274000Y-63312000D01*
X158623000Y-63379500D02*
X160206500Y-63379500D01*
D31*
G04 #@! TO.N,VBUS*
X185470800Y-61112400D02*
X184658000Y-60299600D01*
X185470800Y-61617400D02*
X185470800Y-61112400D01*
X185420000Y-60299600D02*
X186232800Y-60299600D01*
D30*
G04 #@! TO.N,/BOOT0*
X160902500Y-56388000D02*
X161410500Y-56896000D01*
X160655000Y-56388000D02*
X160902500Y-56388000D01*
G04 #@! TO.N,/BOOT1*
X164243745Y-65632755D02*
X163709500Y-66167000D01*
X164243745Y-65617775D02*
X164243745Y-65632755D01*
G04 #@! TO.N,/SYS_SWDIO*
X169586863Y-57751137D02*
X169586863Y-57826863D01*
X169807000Y-57531000D02*
X169586863Y-57751137D01*
X170561000Y-57531000D02*
X169807000Y-57531000D01*
D31*
G04 #@! TO.N,/SYS_SWCLK*
X169939811Y-55485189D02*
X170561000Y-54864000D01*
X167259962Y-55485189D02*
X169939811Y-55485189D01*
G04 #@! TO.N,/PA8*
X167808088Y-60634579D02*
X167383824Y-60634579D01*
X172262811Y-58369189D02*
X170073478Y-58369189D01*
X173482000Y-57150000D02*
X172262811Y-58369189D01*
X170073478Y-58369189D02*
X167808088Y-60634579D01*
G04 #@! TO.N,/PB11*
X172720000Y-69850000D02*
X171881800Y-69850000D01*
X170002200Y-67970400D02*
X169373700Y-67970400D01*
X171881800Y-69850000D02*
X170002200Y-67970400D01*
G04 #@! TO.N,/SPI2_NSS*
X174371000Y-65151000D02*
X174371000Y-65946000D01*
X173609000Y-64389000D02*
X174371000Y-65151000D01*
G04 #@! TO.N,Net-(R8-Pad2)*
X173101000Y-60546000D02*
X173101000Y-61087000D01*
X173101000Y-61087000D02*
X173736000Y-61722000D01*
G04 #@! TO.N,Net-(R9-Pad2)*
X171831000Y-65024000D02*
X171831000Y-65946000D01*
X171196000Y-64389000D02*
X171831000Y-65024000D01*
G04 #@! TO.N,/SPI2_SCK*
X171958000Y-60673000D02*
X171831000Y-60546000D01*
X171958000Y-62611000D02*
X171958000Y-60673000D01*
G04 #@! TO.N,/SPI2_MISO*
X173101000Y-64826563D02*
X170792458Y-62518021D01*
X170792458Y-62518021D02*
X170492459Y-62218022D01*
X173101000Y-65946000D02*
X173101000Y-64826563D01*
G04 #@! TO.N,/SPI2_MOSI*
X170561000Y-60546000D02*
X170561000Y-61473592D01*
X170944969Y-61857561D02*
X171244968Y-62157560D01*
X170561000Y-61473592D02*
X170944969Y-61857561D01*
G04 #@! TO.N,/PC6*
X167513037Y-64815586D02*
X167513037Y-63416484D01*
X174181399Y-68771399D02*
X171468850Y-68771399D01*
X171468850Y-68771399D02*
X167513037Y-64815586D01*
X167513037Y-63416484D02*
X167513037Y-62992220D01*
X175260000Y-69850000D02*
X174181399Y-68771399D01*
G04 #@! TO.N,/PC7*
X168529000Y-62969346D02*
X167810264Y-62250610D01*
X168529000Y-65400482D02*
X168529000Y-62969346D01*
X167810264Y-62250610D02*
X167386000Y-62250610D01*
X171581518Y-68453000D02*
X168529000Y-65400482D01*
X177800000Y-69850000D02*
X176403000Y-68453000D01*
X176403000Y-68453000D02*
X171581518Y-68453000D01*
G04 #@! TO.N,/PC8*
X166796999Y-61930001D02*
X166839184Y-61930001D01*
X166839184Y-61930001D02*
X167301185Y-61468000D01*
X167301185Y-61468000D02*
X168152519Y-61468000D01*
X173944001Y-58338999D02*
X174244000Y-58039000D01*
X173228000Y-59055000D02*
X173944001Y-58338999D01*
X170565518Y-59055000D02*
X173228000Y-59055000D01*
X166497000Y-62230000D02*
X166796999Y-61930001D01*
X168152519Y-61468000D02*
X170565518Y-59055000D01*
G04 #@! TO.N,/PC9*
X166823664Y-61163189D02*
X166644609Y-61342244D01*
X172720000Y-58674000D02*
X170515452Y-58674000D01*
X173355000Y-58039000D02*
X172720000Y-58674000D01*
X168026263Y-61163189D02*
X166823664Y-61163189D01*
X170515452Y-58674000D02*
X168026263Y-61163189D01*
G04 #@! TO.N,/PA10*
X172118399Y-56802399D02*
X172466000Y-57150000D01*
X169722337Y-56802399D02*
X172118399Y-56802399D01*
X167386000Y-59138736D02*
X169722337Y-56802399D01*
X167386000Y-59563000D02*
X167386000Y-59138736D01*
X173602500Y-52952500D02*
X173602500Y-53594000D01*
X172720000Y-52070000D02*
X173602500Y-52952500D01*
G04 #@! TO.N,/PC11*
X165100000Y-53562100D02*
X165023800Y-53638300D01*
X165100000Y-52070000D02*
X165100000Y-53562100D01*
G04 #@! TO.N,/PB3*
X164084000Y-56388000D02*
X161544000Y-53848000D01*
X159258000Y-53848000D02*
X157480000Y-52070000D01*
X161544000Y-53848000D02*
X159258000Y-53848000D01*
G04 #@! TO.N,/PB4*
X163195000Y-55930066D02*
X161493934Y-54229000D01*
X163195000Y-56261000D02*
X163195000Y-55930066D01*
X161493934Y-54229000D02*
X157099000Y-54229000D01*
X155789999Y-52919999D02*
X154940000Y-52070000D01*
X157099000Y-54229000D02*
X155789999Y-52919999D01*
G04 #@! TO.N,/PB5*
X160963123Y-54610000D02*
X162158797Y-55805674D01*
X154940000Y-54610000D02*
X160963123Y-54610000D01*
X162158797Y-55805674D02*
X162458796Y-56105673D01*
X152400000Y-52070000D02*
X154940000Y-54610000D01*
X150952200Y-53517800D02*
X150952200Y-53917700D01*
X152400000Y-52070000D02*
X150952200Y-53517800D01*
G04 #@! TD*
G04 #@! TO.N,VBUS*
G36*
X186715400Y-62280800D02*
X184327800Y-62280800D01*
X184327800Y-59258200D01*
X186715400Y-59258200D01*
X186715400Y-62280800D01*
X186715400Y-62280800D01*
G37*
X186715400Y-62280800D02*
X184327800Y-62280800D01*
X184327800Y-59258200D01*
X186715400Y-59258200D01*
X186715400Y-62280800D01*
G04 #@! TO.N,+3V3*
G36*
X179755800Y-60706000D02*
X179761600Y-60735160D01*
X179778118Y-60759882D01*
X179802840Y-60776400D01*
X179832000Y-60782200D01*
X181533800Y-60782200D01*
X181533800Y-62738000D01*
X181539600Y-62767160D01*
X181556118Y-62791882D01*
X181580840Y-62808400D01*
X181610000Y-62814200D01*
X181759304Y-62814200D01*
X181778800Y-62818078D01*
X183778800Y-62818078D01*
X183798296Y-62814200D01*
X183825049Y-62814200D01*
X183944967Y-64493045D01*
X183603900Y-64947800D01*
X181610000Y-64947800D01*
X181580840Y-64953600D01*
X181556118Y-64970118D01*
X181539600Y-64994840D01*
X181533800Y-65024000D01*
X181533800Y-67233800D01*
X175336200Y-67233800D01*
X175336200Y-58623200D01*
X179755800Y-58623200D01*
X179755800Y-60706000D01*
X179755800Y-60706000D01*
G37*
X179755800Y-60706000D02*
X179761600Y-60735160D01*
X179778118Y-60759882D01*
X179802840Y-60776400D01*
X179832000Y-60782200D01*
X181533800Y-60782200D01*
X181533800Y-62738000D01*
X181539600Y-62767160D01*
X181556118Y-62791882D01*
X181580840Y-62808400D01*
X181610000Y-62814200D01*
X181759304Y-62814200D01*
X181778800Y-62818078D01*
X183778800Y-62818078D01*
X183798296Y-62814200D01*
X183825049Y-62814200D01*
X183944967Y-64493045D01*
X183603900Y-64947800D01*
X181610000Y-64947800D01*
X181580840Y-64953600D01*
X181556118Y-64970118D01*
X181539600Y-64994840D01*
X181533800Y-65024000D01*
X181533800Y-67233800D01*
X175336200Y-67233800D01*
X175336200Y-58623200D01*
X179755800Y-58623200D01*
X179755800Y-60706000D01*
G04 #@! TO.N,GND*
G36*
X136382373Y-51292373D02*
X136143981Y-51649151D01*
X136060269Y-52070000D01*
X136143981Y-52490849D01*
X136382373Y-52847627D01*
X136739151Y-53086019D01*
X137053767Y-53148600D01*
X137266233Y-53148600D01*
X137580849Y-53086019D01*
X137937627Y-52847627D01*
X138176019Y-52490849D01*
X138259731Y-52070000D01*
X138176019Y-51649151D01*
X137937627Y-51292373D01*
X137692524Y-51128600D01*
X139167476Y-51128600D01*
X138922373Y-51292373D01*
X138683981Y-51649151D01*
X138600269Y-52070000D01*
X138683981Y-52490849D01*
X138922373Y-52847627D01*
X139279151Y-53086019D01*
X139593767Y-53148600D01*
X139806233Y-53148600D01*
X140120849Y-53086019D01*
X140477627Y-52847627D01*
X140716019Y-52490849D01*
X140799731Y-52070000D01*
X140716019Y-51649151D01*
X140477627Y-51292373D01*
X140232524Y-51128600D01*
X141707476Y-51128600D01*
X141462373Y-51292373D01*
X141223981Y-51649151D01*
X141140269Y-52070000D01*
X141223981Y-52490849D01*
X141462373Y-52847627D01*
X141819151Y-53086019D01*
X142133767Y-53148600D01*
X142346233Y-53148600D01*
X142660849Y-53086019D01*
X143017627Y-52847627D01*
X143256019Y-52490849D01*
X143339731Y-52070000D01*
X143256019Y-51649151D01*
X143017627Y-51292373D01*
X142772524Y-51128600D01*
X144247476Y-51128600D01*
X144002373Y-51292373D01*
X143763981Y-51649151D01*
X143680269Y-52070000D01*
X143763981Y-52490849D01*
X144002373Y-52847627D01*
X144359151Y-53086019D01*
X144673767Y-53148600D01*
X144886233Y-53148600D01*
X145200849Y-53086019D01*
X145557627Y-52847627D01*
X145796019Y-52490849D01*
X145879731Y-52070000D01*
X145796019Y-51649151D01*
X145557627Y-51292373D01*
X145312524Y-51128600D01*
X146787476Y-51128600D01*
X146542373Y-51292373D01*
X146303981Y-51649151D01*
X146220269Y-52070000D01*
X146303981Y-52490849D01*
X146542373Y-52847627D01*
X146899151Y-53086019D01*
X147213767Y-53148600D01*
X147426233Y-53148600D01*
X147740849Y-53086019D01*
X148097627Y-52847627D01*
X148336019Y-52490849D01*
X148419731Y-52070000D01*
X148336019Y-51649151D01*
X148097627Y-51292373D01*
X147852524Y-51128600D01*
X149327476Y-51128600D01*
X149082373Y-51292373D01*
X148843981Y-51649151D01*
X148760269Y-52070000D01*
X148843981Y-52490849D01*
X149082373Y-52847627D01*
X149439151Y-53086019D01*
X149753767Y-53148600D01*
X149966233Y-53148600D01*
X150280849Y-53086019D01*
X150637627Y-52847627D01*
X150876019Y-52490849D01*
X150959731Y-52070000D01*
X150876019Y-51649151D01*
X150637627Y-51292373D01*
X150392524Y-51128600D01*
X151867476Y-51128600D01*
X151622373Y-51292373D01*
X151383981Y-51649151D01*
X151300269Y-52070000D01*
X151383981Y-52490849D01*
X151449718Y-52589230D01*
X150757900Y-53281048D01*
X150732452Y-53298052D01*
X150666256Y-53397122D01*
X150627200Y-53397122D01*
X150538005Y-53414864D01*
X150462389Y-53465389D01*
X150411864Y-53541005D01*
X150394122Y-53630200D01*
X150394122Y-54205200D01*
X150411864Y-54294395D01*
X150462389Y-54370011D01*
X150538005Y-54420536D01*
X150627200Y-54438278D01*
X151277200Y-54438278D01*
X151366395Y-54420536D01*
X151442011Y-54370011D01*
X151492536Y-54294395D01*
X151510278Y-54205200D01*
X151510278Y-54114387D01*
X151823800Y-54114387D01*
X151823800Y-54343613D01*
X151911522Y-54555391D01*
X152073609Y-54717478D01*
X152285387Y-54805200D01*
X152514613Y-54805200D01*
X152726391Y-54717478D01*
X152888478Y-54555391D01*
X152976200Y-54343613D01*
X152976200Y-54114387D01*
X152888478Y-53902609D01*
X152726391Y-53740522D01*
X152514613Y-53652800D01*
X152285387Y-53652800D01*
X152073609Y-53740522D01*
X151911522Y-53902609D01*
X151823800Y-54114387D01*
X151510278Y-54114387D01*
X151510278Y-53630200D01*
X151492536Y-53541005D01*
X151442011Y-53465389D01*
X151438206Y-53462846D01*
X151880770Y-53020282D01*
X151979151Y-53086019D01*
X152293767Y-53148600D01*
X152506233Y-53148600D01*
X152820849Y-53086019D01*
X152919230Y-53020282D01*
X154703248Y-54804300D01*
X154720252Y-54829748D01*
X154821073Y-54897115D01*
X154909982Y-54914800D01*
X154909986Y-54914800D01*
X154939999Y-54920770D01*
X154970012Y-54914800D01*
X160836871Y-54914800D01*
X161930196Y-56008125D01*
X161930196Y-56210818D01*
X162010670Y-56405101D01*
X162159368Y-56553799D01*
X162353651Y-56634273D01*
X162563941Y-56634273D01*
X162746192Y-56558783D01*
X162746874Y-56560428D01*
X162895572Y-56709126D01*
X163089855Y-56789600D01*
X163300145Y-56789600D01*
X163494428Y-56709126D01*
X163600801Y-56602753D01*
X163635874Y-56687428D01*
X163784572Y-56836126D01*
X163978855Y-56916600D01*
X164189145Y-56916600D01*
X164383428Y-56836126D01*
X164532126Y-56687428D01*
X164612600Y-56493145D01*
X164612600Y-56282855D01*
X164532126Y-56088572D01*
X164383428Y-55939874D01*
X164189145Y-55859400D01*
X163986452Y-55859400D01*
X161780751Y-53653699D01*
X161763748Y-53628252D01*
X161662927Y-53560885D01*
X161574018Y-53543200D01*
X161574014Y-53543200D01*
X161544000Y-53537230D01*
X161513986Y-53543200D01*
X159384253Y-53543200D01*
X158430283Y-52589230D01*
X158496019Y-52490849D01*
X158579731Y-52070000D01*
X158496019Y-51649151D01*
X158257627Y-51292373D01*
X158012524Y-51128600D01*
X159487476Y-51128600D01*
X159242373Y-51292373D01*
X159003981Y-51649151D01*
X158920269Y-52070000D01*
X159003981Y-52490849D01*
X159242373Y-52847627D01*
X159599151Y-53086019D01*
X159913767Y-53148600D01*
X160126233Y-53148600D01*
X160440849Y-53086019D01*
X160797627Y-52847627D01*
X161036019Y-52490849D01*
X161119731Y-52070000D01*
X161036019Y-51649151D01*
X160797627Y-51292373D01*
X160552524Y-51128600D01*
X162027476Y-51128600D01*
X161782373Y-51292373D01*
X161543981Y-51649151D01*
X161460269Y-52070000D01*
X161543981Y-52490849D01*
X161782373Y-52847627D01*
X162139151Y-53086019D01*
X162453767Y-53148600D01*
X162666233Y-53148600D01*
X162980849Y-53086019D01*
X163337627Y-52847627D01*
X163576019Y-52490849D01*
X163659731Y-52070000D01*
X163576019Y-51649151D01*
X163337627Y-51292373D01*
X163092524Y-51128600D01*
X164567476Y-51128600D01*
X164322373Y-51292373D01*
X164083981Y-51649151D01*
X164000269Y-52070000D01*
X164083981Y-52490849D01*
X164322373Y-52847627D01*
X164679151Y-53086019D01*
X164795201Y-53109103D01*
X164795201Y-53117722D01*
X164698800Y-53117722D01*
X164609605Y-53135464D01*
X164533989Y-53185989D01*
X164483464Y-53261605D01*
X164465722Y-53350800D01*
X164465722Y-53925800D01*
X164483464Y-54014995D01*
X164490684Y-54025800D01*
X164483464Y-54036605D01*
X164465722Y-54125800D01*
X164465722Y-54700800D01*
X164483464Y-54789995D01*
X164533989Y-54865611D01*
X164609605Y-54916136D01*
X164698800Y-54933878D01*
X164729077Y-54933878D01*
X164736685Y-54972126D01*
X164787048Y-55047500D01*
X164787051Y-55047503D01*
X164804053Y-55072948D01*
X164829498Y-55089950D01*
X165120201Y-55380654D01*
X165120202Y-56220503D01*
X164619315Y-56721391D01*
X164589628Y-56741227D01*
X164569792Y-56770914D01*
X164569790Y-56770916D01*
X164511033Y-56858853D01*
X164483434Y-56997600D01*
X164490401Y-57032625D01*
X164490400Y-59353706D01*
X163222315Y-60621791D01*
X163192628Y-60641627D01*
X163172792Y-60671314D01*
X163172790Y-60671316D01*
X163114033Y-60759253D01*
X163086434Y-60898000D01*
X163090596Y-60918922D01*
X163064125Y-60918922D01*
X163019000Y-60909946D01*
X162973875Y-60918922D01*
X162749000Y-60918922D01*
X162746597Y-60919400D01*
X161257078Y-60919400D01*
X161257078Y-60917000D01*
X161239336Y-60827805D01*
X161188811Y-60752189D01*
X161113195Y-60701664D01*
X161024000Y-60683922D01*
X160756600Y-60683922D01*
X160756600Y-60456529D01*
X160766054Y-60409000D01*
X160728599Y-60220699D01*
X160648858Y-60101358D01*
X160621935Y-60061065D01*
X160581642Y-60034142D01*
X160147000Y-59599501D01*
X160147000Y-58575671D01*
X160118999Y-58434899D01*
X160012335Y-58275265D01*
X160007958Y-58272340D01*
X159999367Y-58229152D01*
X159920773Y-58111527D01*
X159891083Y-58091689D01*
X159605210Y-57805816D01*
X159585373Y-57776127D01*
X159467748Y-57697533D01*
X159364020Y-57676900D01*
X159353100Y-57674728D01*
X159353100Y-57440532D01*
X159374195Y-57436336D01*
X159449811Y-57385811D01*
X159500336Y-57310195D01*
X159518078Y-57221000D01*
X159518078Y-56571000D01*
X159500336Y-56481805D01*
X159490679Y-56467352D01*
X159532600Y-56366145D01*
X159532600Y-56262964D01*
X160026400Y-56262964D01*
X160026400Y-56513036D01*
X160122099Y-56744073D01*
X160298927Y-56920901D01*
X160529964Y-57016600D01*
X160780036Y-57016600D01*
X160889922Y-56971084D01*
X160889922Y-57221000D01*
X160907664Y-57310195D01*
X160958189Y-57385811D01*
X161033805Y-57436336D01*
X161123000Y-57454078D01*
X161698000Y-57454078D01*
X161787195Y-57436336D01*
X161862811Y-57385811D01*
X161913336Y-57310195D01*
X161931078Y-57221000D01*
X161931078Y-56571000D01*
X161913336Y-56481805D01*
X161862811Y-56406189D01*
X161787195Y-56355664D01*
X161698000Y-56337922D01*
X161355316Y-56337922D01*
X161283600Y-56266206D01*
X161283600Y-56262964D01*
X161187901Y-56031927D01*
X161011073Y-55855099D01*
X160780036Y-55759400D01*
X160529964Y-55759400D01*
X160298927Y-55855099D01*
X160122099Y-56031927D01*
X160026400Y-56262964D01*
X159532600Y-56262964D01*
X159532600Y-56155855D01*
X159452126Y-55961572D01*
X159303428Y-55812874D01*
X159109145Y-55732400D01*
X158898855Y-55732400D01*
X158704572Y-55812874D01*
X158555874Y-55961572D01*
X158475400Y-56155855D01*
X158475400Y-56366145D01*
X158512346Y-56455342D01*
X158494664Y-56481805D01*
X158476922Y-56571000D01*
X158476922Y-57221000D01*
X158494664Y-57310195D01*
X158545189Y-57385811D01*
X158620805Y-57436336D01*
X158641901Y-57440532D01*
X158641901Y-57511922D01*
X158635361Y-57511922D01*
X158613926Y-57460172D01*
X158465228Y-57311474D01*
X158270945Y-57231000D01*
X158060655Y-57231000D01*
X157866372Y-57311474D01*
X157717674Y-57460172D01*
X157637200Y-57654455D01*
X157637200Y-57864745D01*
X157717674Y-58059028D01*
X157866372Y-58207726D01*
X158060655Y-58288200D01*
X158191922Y-58288200D01*
X158191922Y-58320000D01*
X158209664Y-58409195D01*
X158260189Y-58484811D01*
X158335805Y-58535336D01*
X158425000Y-58553078D01*
X159075000Y-58553078D01*
X159164195Y-58535336D01*
X159193752Y-58515586D01*
X159181801Y-58575671D01*
X159181800Y-59751872D01*
X159172346Y-59799400D01*
X159181800Y-59846928D01*
X159209801Y-59987700D01*
X159316465Y-60147335D01*
X159356763Y-60174261D01*
X159791401Y-60608900D01*
X159791401Y-60683922D01*
X159524000Y-60683922D01*
X159434805Y-60701664D01*
X159359189Y-60752189D01*
X159308664Y-60827805D01*
X159290922Y-60917000D01*
X159290922Y-61887000D01*
X159308664Y-61976195D01*
X159359189Y-62051811D01*
X159434805Y-62102336D01*
X159524000Y-62120078D01*
X160754184Y-62120078D01*
X160947801Y-62313695D01*
X160947801Y-62593922D01*
X159524000Y-62593922D01*
X159434805Y-62611664D01*
X159359189Y-62662189D01*
X159308664Y-62737805D01*
X159290922Y-62827000D01*
X159290922Y-63023900D01*
X159167532Y-63023900D01*
X159163336Y-63002805D01*
X159112811Y-62927189D01*
X159037195Y-62876664D01*
X158948000Y-62858922D01*
X158298000Y-62858922D01*
X158208805Y-62876664D01*
X158133189Y-62927189D01*
X158082664Y-63002805D01*
X158064922Y-63092000D01*
X158064922Y-63448524D01*
X158060268Y-63455490D01*
X158012927Y-63475099D01*
X157836099Y-63651927D01*
X157740400Y-63882964D01*
X157740400Y-64133036D01*
X157836099Y-64364073D01*
X158012927Y-64540901D01*
X158243964Y-64636600D01*
X158494036Y-64636600D01*
X158725073Y-64540901D01*
X158901901Y-64364073D01*
X158997600Y-64133036D01*
X158997600Y-63890212D01*
X159037195Y-63882336D01*
X159112811Y-63831811D01*
X159163336Y-63756195D01*
X159167532Y-63735100D01*
X159290922Y-63735100D01*
X159290922Y-63797000D01*
X159308664Y-63886195D01*
X159359189Y-63961811D01*
X159434805Y-64012336D01*
X159524000Y-64030078D01*
X160947802Y-64030078D01*
X160947802Y-64268303D01*
X160636295Y-64579811D01*
X160605811Y-64534189D01*
X160530195Y-64483664D01*
X160441000Y-64465922D01*
X159866000Y-64465922D01*
X159776805Y-64483664D01*
X159701189Y-64534189D01*
X159650664Y-64609805D01*
X159632922Y-64699000D01*
X159632922Y-65349000D01*
X159643800Y-65403687D01*
X159643800Y-65586345D01*
X159724274Y-65780628D01*
X159872972Y-65929326D01*
X160067255Y-66009800D01*
X160277545Y-66009800D01*
X160471828Y-65929326D01*
X160620526Y-65780628D01*
X160701000Y-65586345D01*
X160701000Y-65385373D01*
X160730020Y-65379600D01*
X160833748Y-65358967D01*
X160951373Y-65280373D01*
X160971211Y-65250683D01*
X161530087Y-64691808D01*
X161559774Y-64671972D01*
X161599694Y-64612228D01*
X161638368Y-64554347D01*
X161665967Y-64415599D01*
X161659001Y-64380579D01*
X161659001Y-62201415D01*
X161665966Y-62166400D01*
X161659001Y-62131385D01*
X161659001Y-62131381D01*
X161638368Y-62027653D01*
X161559773Y-61910028D01*
X161530086Y-61890192D01*
X161524494Y-61884600D01*
X162515922Y-61884600D01*
X162515922Y-62512000D01*
X162533664Y-62601195D01*
X162552698Y-62629682D01*
X162514572Y-62645474D01*
X162365874Y-62794172D01*
X162285400Y-62988455D01*
X162285400Y-63198745D01*
X162365874Y-63393028D01*
X162514572Y-63541726D01*
X162708855Y-63622200D01*
X162919145Y-63622200D01*
X163113428Y-63541726D01*
X163144200Y-63510954D01*
X163174972Y-63541726D01*
X163369255Y-63622200D01*
X163579545Y-63622200D01*
X163773828Y-63541726D01*
X163804600Y-63510954D01*
X163835372Y-63541726D01*
X164029655Y-63622200D01*
X164239945Y-63622200D01*
X164434228Y-63541726D01*
X164526754Y-63449200D01*
X165334228Y-63449200D01*
X165417950Y-63532922D01*
X164681000Y-63532922D01*
X164591805Y-63550664D01*
X164516189Y-63601189D01*
X164465664Y-63676805D01*
X164447922Y-63766000D01*
X164447922Y-65021956D01*
X164368781Y-64989175D01*
X164118709Y-64989175D01*
X163887672Y-65084874D01*
X163710844Y-65261702D01*
X163615145Y-65492739D01*
X163615145Y-65608922D01*
X163422000Y-65608922D01*
X163332805Y-65626664D01*
X163257189Y-65677189D01*
X163206664Y-65752805D01*
X163188922Y-65842000D01*
X163188922Y-66492000D01*
X163206664Y-66581195D01*
X163257189Y-66656811D01*
X163332805Y-66707336D01*
X163422000Y-66725078D01*
X163997000Y-66725078D01*
X164086195Y-66707336D01*
X164161811Y-66656811D01*
X164212336Y-66581195D01*
X164230078Y-66492000D01*
X164230078Y-66246375D01*
X164368781Y-66246375D01*
X164599818Y-66150676D01*
X164776646Y-65973848D01*
X164872345Y-65742811D01*
X164872345Y-65499078D01*
X164979400Y-65499078D01*
X164979400Y-65657036D01*
X165075099Y-65888073D01*
X165251927Y-66064901D01*
X165482964Y-66160600D01*
X165733036Y-66160600D01*
X165964073Y-66064901D01*
X166140901Y-65888073D01*
X166236600Y-65657036D01*
X166236600Y-65559100D01*
X166404145Y-65559100D01*
X166465521Y-65533677D01*
X166553000Y-65551078D01*
X167203000Y-65551078D01*
X167292195Y-65533336D01*
X167367811Y-65482811D01*
X167418336Y-65407195D01*
X167436078Y-65318000D01*
X167436078Y-65169679D01*
X169683072Y-67416673D01*
X169661200Y-67412322D01*
X169086200Y-67412322D01*
X168997005Y-67430064D01*
X168921389Y-67480589D01*
X168870864Y-67556205D01*
X168853122Y-67645400D01*
X168853122Y-68295400D01*
X168870864Y-68384595D01*
X168921389Y-68460211D01*
X168997005Y-68510736D01*
X169086200Y-68528478D01*
X169661200Y-68528478D01*
X169750395Y-68510736D01*
X169826011Y-68460211D01*
X169876536Y-68384595D01*
X169894278Y-68295400D01*
X169894278Y-68293530D01*
X170393481Y-68792733D01*
X170286233Y-68771400D01*
X170073767Y-68771400D01*
X169759151Y-68833981D01*
X169402373Y-69072373D01*
X169163981Y-69429151D01*
X169080269Y-69850000D01*
X169163981Y-70270849D01*
X169402373Y-70627627D01*
X169647476Y-70791400D01*
X168172524Y-70791400D01*
X168417627Y-70627627D01*
X168656019Y-70270849D01*
X168739731Y-69850000D01*
X168656019Y-69429151D01*
X168417627Y-69072373D01*
X168060849Y-68833981D01*
X167746233Y-68771400D01*
X167533767Y-68771400D01*
X167219151Y-68833981D01*
X166862373Y-69072373D01*
X166623981Y-69429151D01*
X166540269Y-69850000D01*
X166623981Y-70270849D01*
X166862373Y-70627627D01*
X167107476Y-70791400D01*
X165632524Y-70791400D01*
X165877627Y-70627627D01*
X166116019Y-70270849D01*
X166199731Y-69850000D01*
X166116019Y-69429151D01*
X165877627Y-69072373D01*
X165520849Y-68833981D01*
X165206233Y-68771400D01*
X164993767Y-68771400D01*
X164679151Y-68833981D01*
X164322373Y-69072373D01*
X164083981Y-69429151D01*
X164000269Y-69850000D01*
X164083981Y-70270849D01*
X164322373Y-70627627D01*
X164567476Y-70791400D01*
X163092524Y-70791400D01*
X163337627Y-70627627D01*
X163576019Y-70270849D01*
X163659731Y-69850000D01*
X163576019Y-69429151D01*
X163337627Y-69072373D01*
X162980849Y-68833981D01*
X162666233Y-68771400D01*
X162453767Y-68771400D01*
X162139151Y-68833981D01*
X161782373Y-69072373D01*
X161543981Y-69429151D01*
X161460269Y-69850000D01*
X161543981Y-70270849D01*
X161782373Y-70627627D01*
X162027476Y-70791400D01*
X160552524Y-70791400D01*
X160797627Y-70627627D01*
X161036019Y-70270849D01*
X161119731Y-69850000D01*
X161036019Y-69429151D01*
X160797627Y-69072373D01*
X160440849Y-68833981D01*
X160126233Y-68771400D01*
X159913767Y-68771400D01*
X159599151Y-68833981D01*
X159242373Y-69072373D01*
X159003981Y-69429151D01*
X158920269Y-69850000D01*
X159003981Y-70270849D01*
X159242373Y-70627627D01*
X159487476Y-70791400D01*
X158012524Y-70791400D01*
X158257627Y-70627627D01*
X158496019Y-70270849D01*
X158579731Y-69850000D01*
X158496019Y-69429151D01*
X158257627Y-69072373D01*
X157900849Y-68833981D01*
X157586233Y-68771400D01*
X157373767Y-68771400D01*
X157059151Y-68833981D01*
X156702373Y-69072373D01*
X156463981Y-69429151D01*
X156380269Y-69850000D01*
X156463981Y-70270849D01*
X156702373Y-70627627D01*
X156947476Y-70791400D01*
X155472524Y-70791400D01*
X155717627Y-70627627D01*
X155956019Y-70270849D01*
X156039731Y-69850000D01*
X155956019Y-69429151D01*
X155717627Y-69072373D01*
X155360849Y-68833981D01*
X155046233Y-68771400D01*
X154833767Y-68771400D01*
X154519151Y-68833981D01*
X154162373Y-69072373D01*
X153923981Y-69429151D01*
X153840269Y-69850000D01*
X153923981Y-70270849D01*
X154162373Y-70627627D01*
X154407476Y-70791400D01*
X152932524Y-70791400D01*
X153177627Y-70627627D01*
X153416019Y-70270849D01*
X153499731Y-69850000D01*
X153416019Y-69429151D01*
X153177627Y-69072373D01*
X152820849Y-68833981D01*
X152506233Y-68771400D01*
X152293767Y-68771400D01*
X151979151Y-68833981D01*
X151622373Y-69072373D01*
X151383981Y-69429151D01*
X151300269Y-69850000D01*
X151383981Y-70270849D01*
X151622373Y-70627627D01*
X151867476Y-70791400D01*
X150392524Y-70791400D01*
X150637627Y-70627627D01*
X150876019Y-70270849D01*
X150959731Y-69850000D01*
X150876019Y-69429151D01*
X150637627Y-69072373D01*
X150280849Y-68833981D01*
X149966233Y-68771400D01*
X149753767Y-68771400D01*
X149439151Y-68833981D01*
X149082373Y-69072373D01*
X148843981Y-69429151D01*
X148760269Y-69850000D01*
X148843981Y-70270849D01*
X149082373Y-70627627D01*
X149327476Y-70791400D01*
X147852524Y-70791400D01*
X148097627Y-70627627D01*
X148336019Y-70270849D01*
X148419731Y-69850000D01*
X148336019Y-69429151D01*
X148097627Y-69072373D01*
X147740849Y-68833981D01*
X147426233Y-68771400D01*
X147213767Y-68771400D01*
X146899151Y-68833981D01*
X146542373Y-69072373D01*
X146303981Y-69429151D01*
X146220269Y-69850000D01*
X146303981Y-70270849D01*
X146542373Y-70627627D01*
X146787476Y-70791400D01*
X145312524Y-70791400D01*
X145557627Y-70627627D01*
X145796019Y-70270849D01*
X145879731Y-69850000D01*
X145796019Y-69429151D01*
X145557627Y-69072373D01*
X145200849Y-68833981D01*
X144886233Y-68771400D01*
X144673767Y-68771400D01*
X144359151Y-68833981D01*
X144002373Y-69072373D01*
X143763981Y-69429151D01*
X143680269Y-69850000D01*
X143763981Y-70270849D01*
X144002373Y-70627627D01*
X144247476Y-70791400D01*
X142772524Y-70791400D01*
X143017627Y-70627627D01*
X143256019Y-70270849D01*
X143339731Y-69850000D01*
X143256019Y-69429151D01*
X143017627Y-69072373D01*
X142660849Y-68833981D01*
X142346233Y-68771400D01*
X142133767Y-68771400D01*
X141819151Y-68833981D01*
X141462373Y-69072373D01*
X141223981Y-69429151D01*
X141140269Y-69850000D01*
X141223981Y-70270849D01*
X141462373Y-70627627D01*
X141707476Y-70791400D01*
X140232524Y-70791400D01*
X140477627Y-70627627D01*
X140716019Y-70270849D01*
X140799731Y-69850000D01*
X140716019Y-69429151D01*
X140477627Y-69072373D01*
X140120849Y-68833981D01*
X139806233Y-68771400D01*
X139593767Y-68771400D01*
X139279151Y-68833981D01*
X138922373Y-69072373D01*
X138683981Y-69429151D01*
X138600269Y-69850000D01*
X138683981Y-70270849D01*
X138922373Y-70627627D01*
X139167476Y-70791400D01*
X137692524Y-70791400D01*
X137937627Y-70627627D01*
X138176019Y-70270849D01*
X138259731Y-69850000D01*
X138176019Y-69429151D01*
X137937627Y-69072373D01*
X137580849Y-68833981D01*
X137266233Y-68771400D01*
X137053767Y-68771400D01*
X136739151Y-68833981D01*
X136382373Y-69072373D01*
X136143981Y-69429151D01*
X136060269Y-69850000D01*
X136143981Y-70270849D01*
X136382373Y-70627627D01*
X136627476Y-70791400D01*
X135583600Y-70791400D01*
X135583600Y-61349000D01*
X137061922Y-61349000D01*
X137061922Y-62349000D01*
X137079664Y-62438195D01*
X137130189Y-62513811D01*
X137205805Y-62564336D01*
X137295000Y-62582078D01*
X138295000Y-62582078D01*
X138384195Y-62564336D01*
X138459811Y-62513811D01*
X138510336Y-62438195D01*
X138528078Y-62349000D01*
X138528078Y-61349000D01*
X138521434Y-61315600D01*
X139308046Y-61315600D01*
X139395200Y-61402754D01*
X139395201Y-61526156D01*
X139311205Y-61542864D01*
X139235589Y-61593389D01*
X139185064Y-61669005D01*
X139167322Y-61758200D01*
X139167322Y-62333200D01*
X139185064Y-62422395D01*
X139192284Y-62433200D01*
X139185064Y-62444005D01*
X139167322Y-62533200D01*
X139167322Y-63108200D01*
X139170997Y-63126673D01*
X139044972Y-63178874D01*
X138896274Y-63327572D01*
X138815800Y-63521855D01*
X138815800Y-63732145D01*
X138896274Y-63926428D01*
X139044972Y-64075126D01*
X139239255Y-64155600D01*
X139449545Y-64155600D01*
X139643828Y-64075126D01*
X139792526Y-63926428D01*
X139873000Y-63732145D01*
X139873000Y-63529452D01*
X139919700Y-63482752D01*
X139945148Y-63465748D01*
X140012515Y-63364927D01*
X140017219Y-63341278D01*
X140050400Y-63341278D01*
X140139595Y-63323536D01*
X140215211Y-63273011D01*
X140265736Y-63197395D01*
X140283478Y-63108200D01*
X140283478Y-62533200D01*
X140265736Y-62444005D01*
X140258516Y-62433200D01*
X140265736Y-62422395D01*
X140283478Y-62333200D01*
X140283478Y-61758200D01*
X140265736Y-61669005D01*
X140215211Y-61593389D01*
X140139595Y-61542864D01*
X140050400Y-61525122D01*
X140004800Y-61525122D01*
X140004800Y-61402754D01*
X140148126Y-61259428D01*
X140228600Y-61065145D01*
X140228600Y-60854855D01*
X140148126Y-60660572D01*
X139999428Y-60511874D01*
X139805145Y-60431400D01*
X139594855Y-60431400D01*
X139400572Y-60511874D01*
X139308046Y-60604400D01*
X137965020Y-60604400D01*
X137930000Y-60597434D01*
X137894980Y-60604400D01*
X137791252Y-60625033D01*
X137673627Y-60703627D01*
X137653789Y-60733317D01*
X137568315Y-60818791D01*
X137538627Y-60838628D01*
X137518791Y-60868315D01*
X137518790Y-60868316D01*
X137460033Y-60956253D01*
X137432434Y-61095000D01*
X137436596Y-61115922D01*
X137295000Y-61115922D01*
X137205805Y-61133664D01*
X137130189Y-61184189D01*
X137079664Y-61259805D01*
X137061922Y-61349000D01*
X135583600Y-61349000D01*
X135583600Y-51128600D01*
X136627476Y-51128600D01*
X136382373Y-51292373D01*
X136382373Y-51292373D01*
G37*
X136382373Y-51292373D02*
X136143981Y-51649151D01*
X136060269Y-52070000D01*
X136143981Y-52490849D01*
X136382373Y-52847627D01*
X136739151Y-53086019D01*
X137053767Y-53148600D01*
X137266233Y-53148600D01*
X137580849Y-53086019D01*
X137937627Y-52847627D01*
X138176019Y-52490849D01*
X138259731Y-52070000D01*
X138176019Y-51649151D01*
X137937627Y-51292373D01*
X137692524Y-51128600D01*
X139167476Y-51128600D01*
X138922373Y-51292373D01*
X138683981Y-51649151D01*
X138600269Y-52070000D01*
X138683981Y-52490849D01*
X138922373Y-52847627D01*
X139279151Y-53086019D01*
X139593767Y-53148600D01*
X139806233Y-53148600D01*
X140120849Y-53086019D01*
X140477627Y-52847627D01*
X140716019Y-52490849D01*
X140799731Y-52070000D01*
X140716019Y-51649151D01*
X140477627Y-51292373D01*
X140232524Y-51128600D01*
X141707476Y-51128600D01*
X141462373Y-51292373D01*
X141223981Y-51649151D01*
X141140269Y-52070000D01*
X141223981Y-52490849D01*
X141462373Y-52847627D01*
X141819151Y-53086019D01*
X142133767Y-53148600D01*
X142346233Y-53148600D01*
X142660849Y-53086019D01*
X143017627Y-52847627D01*
X143256019Y-52490849D01*
X143339731Y-52070000D01*
X143256019Y-51649151D01*
X143017627Y-51292373D01*
X142772524Y-51128600D01*
X144247476Y-51128600D01*
X144002373Y-51292373D01*
X143763981Y-51649151D01*
X143680269Y-52070000D01*
X143763981Y-52490849D01*
X144002373Y-52847627D01*
X144359151Y-53086019D01*
X144673767Y-53148600D01*
X144886233Y-53148600D01*
X145200849Y-53086019D01*
X145557627Y-52847627D01*
X145796019Y-52490849D01*
X145879731Y-52070000D01*
X145796019Y-51649151D01*
X145557627Y-51292373D01*
X145312524Y-51128600D01*
X146787476Y-51128600D01*
X146542373Y-51292373D01*
X146303981Y-51649151D01*
X146220269Y-52070000D01*
X146303981Y-52490849D01*
X146542373Y-52847627D01*
X146899151Y-53086019D01*
X147213767Y-53148600D01*
X147426233Y-53148600D01*
X147740849Y-53086019D01*
X148097627Y-52847627D01*
X148336019Y-52490849D01*
X148419731Y-52070000D01*
X148336019Y-51649151D01*
X148097627Y-51292373D01*
X147852524Y-51128600D01*
X149327476Y-51128600D01*
X149082373Y-51292373D01*
X148843981Y-51649151D01*
X148760269Y-52070000D01*
X148843981Y-52490849D01*
X149082373Y-52847627D01*
X149439151Y-53086019D01*
X149753767Y-53148600D01*
X149966233Y-53148600D01*
X150280849Y-53086019D01*
X150637627Y-52847627D01*
X150876019Y-52490849D01*
X150959731Y-52070000D01*
X150876019Y-51649151D01*
X150637627Y-51292373D01*
X150392524Y-51128600D01*
X151867476Y-51128600D01*
X151622373Y-51292373D01*
X151383981Y-51649151D01*
X151300269Y-52070000D01*
X151383981Y-52490849D01*
X151449718Y-52589230D01*
X150757900Y-53281048D01*
X150732452Y-53298052D01*
X150666256Y-53397122D01*
X150627200Y-53397122D01*
X150538005Y-53414864D01*
X150462389Y-53465389D01*
X150411864Y-53541005D01*
X150394122Y-53630200D01*
X150394122Y-54205200D01*
X150411864Y-54294395D01*
X150462389Y-54370011D01*
X150538005Y-54420536D01*
X150627200Y-54438278D01*
X151277200Y-54438278D01*
X151366395Y-54420536D01*
X151442011Y-54370011D01*
X151492536Y-54294395D01*
X151510278Y-54205200D01*
X151510278Y-54114387D01*
X151823800Y-54114387D01*
X151823800Y-54343613D01*
X151911522Y-54555391D01*
X152073609Y-54717478D01*
X152285387Y-54805200D01*
X152514613Y-54805200D01*
X152726391Y-54717478D01*
X152888478Y-54555391D01*
X152976200Y-54343613D01*
X152976200Y-54114387D01*
X152888478Y-53902609D01*
X152726391Y-53740522D01*
X152514613Y-53652800D01*
X152285387Y-53652800D01*
X152073609Y-53740522D01*
X151911522Y-53902609D01*
X151823800Y-54114387D01*
X151510278Y-54114387D01*
X151510278Y-53630200D01*
X151492536Y-53541005D01*
X151442011Y-53465389D01*
X151438206Y-53462846D01*
X151880770Y-53020282D01*
X151979151Y-53086019D01*
X152293767Y-53148600D01*
X152506233Y-53148600D01*
X152820849Y-53086019D01*
X152919230Y-53020282D01*
X154703248Y-54804300D01*
X154720252Y-54829748D01*
X154821073Y-54897115D01*
X154909982Y-54914800D01*
X154909986Y-54914800D01*
X154939999Y-54920770D01*
X154970012Y-54914800D01*
X160836871Y-54914800D01*
X161930196Y-56008125D01*
X161930196Y-56210818D01*
X162010670Y-56405101D01*
X162159368Y-56553799D01*
X162353651Y-56634273D01*
X162563941Y-56634273D01*
X162746192Y-56558783D01*
X162746874Y-56560428D01*
X162895572Y-56709126D01*
X163089855Y-56789600D01*
X163300145Y-56789600D01*
X163494428Y-56709126D01*
X163600801Y-56602753D01*
X163635874Y-56687428D01*
X163784572Y-56836126D01*
X163978855Y-56916600D01*
X164189145Y-56916600D01*
X164383428Y-56836126D01*
X164532126Y-56687428D01*
X164612600Y-56493145D01*
X164612600Y-56282855D01*
X164532126Y-56088572D01*
X164383428Y-55939874D01*
X164189145Y-55859400D01*
X163986452Y-55859400D01*
X161780751Y-53653699D01*
X161763748Y-53628252D01*
X161662927Y-53560885D01*
X161574018Y-53543200D01*
X161574014Y-53543200D01*
X161544000Y-53537230D01*
X161513986Y-53543200D01*
X159384253Y-53543200D01*
X158430283Y-52589230D01*
X158496019Y-52490849D01*
X158579731Y-52070000D01*
X158496019Y-51649151D01*
X158257627Y-51292373D01*
X158012524Y-51128600D01*
X159487476Y-51128600D01*
X159242373Y-51292373D01*
X159003981Y-51649151D01*
X158920269Y-52070000D01*
X159003981Y-52490849D01*
X159242373Y-52847627D01*
X159599151Y-53086019D01*
X159913767Y-53148600D01*
X160126233Y-53148600D01*
X160440849Y-53086019D01*
X160797627Y-52847627D01*
X161036019Y-52490849D01*
X161119731Y-52070000D01*
X161036019Y-51649151D01*
X160797627Y-51292373D01*
X160552524Y-51128600D01*
X162027476Y-51128600D01*
X161782373Y-51292373D01*
X161543981Y-51649151D01*
X161460269Y-52070000D01*
X161543981Y-52490849D01*
X161782373Y-52847627D01*
X162139151Y-53086019D01*
X162453767Y-53148600D01*
X162666233Y-53148600D01*
X162980849Y-53086019D01*
X163337627Y-52847627D01*
X163576019Y-52490849D01*
X163659731Y-52070000D01*
X163576019Y-51649151D01*
X163337627Y-51292373D01*
X163092524Y-51128600D01*
X164567476Y-51128600D01*
X164322373Y-51292373D01*
X164083981Y-51649151D01*
X164000269Y-52070000D01*
X164083981Y-52490849D01*
X164322373Y-52847627D01*
X164679151Y-53086019D01*
X164795201Y-53109103D01*
X164795201Y-53117722D01*
X164698800Y-53117722D01*
X164609605Y-53135464D01*
X164533989Y-53185989D01*
X164483464Y-53261605D01*
X164465722Y-53350800D01*
X164465722Y-53925800D01*
X164483464Y-54014995D01*
X164490684Y-54025800D01*
X164483464Y-54036605D01*
X164465722Y-54125800D01*
X164465722Y-54700800D01*
X164483464Y-54789995D01*
X164533989Y-54865611D01*
X164609605Y-54916136D01*
X164698800Y-54933878D01*
X164729077Y-54933878D01*
X164736685Y-54972126D01*
X164787048Y-55047500D01*
X164787051Y-55047503D01*
X164804053Y-55072948D01*
X164829498Y-55089950D01*
X165120201Y-55380654D01*
X165120202Y-56220503D01*
X164619315Y-56721391D01*
X164589628Y-56741227D01*
X164569792Y-56770914D01*
X164569790Y-56770916D01*
X164511033Y-56858853D01*
X164483434Y-56997600D01*
X164490401Y-57032625D01*
X164490400Y-59353706D01*
X163222315Y-60621791D01*
X163192628Y-60641627D01*
X163172792Y-60671314D01*
X163172790Y-60671316D01*
X163114033Y-60759253D01*
X163086434Y-60898000D01*
X163090596Y-60918922D01*
X163064125Y-60918922D01*
X163019000Y-60909946D01*
X162973875Y-60918922D01*
X162749000Y-60918922D01*
X162746597Y-60919400D01*
X161257078Y-60919400D01*
X161257078Y-60917000D01*
X161239336Y-60827805D01*
X161188811Y-60752189D01*
X161113195Y-60701664D01*
X161024000Y-60683922D01*
X160756600Y-60683922D01*
X160756600Y-60456529D01*
X160766054Y-60409000D01*
X160728599Y-60220699D01*
X160648858Y-60101358D01*
X160621935Y-60061065D01*
X160581642Y-60034142D01*
X160147000Y-59599501D01*
X160147000Y-58575671D01*
X160118999Y-58434899D01*
X160012335Y-58275265D01*
X160007958Y-58272340D01*
X159999367Y-58229152D01*
X159920773Y-58111527D01*
X159891083Y-58091689D01*
X159605210Y-57805816D01*
X159585373Y-57776127D01*
X159467748Y-57697533D01*
X159364020Y-57676900D01*
X159353100Y-57674728D01*
X159353100Y-57440532D01*
X159374195Y-57436336D01*
X159449811Y-57385811D01*
X159500336Y-57310195D01*
X159518078Y-57221000D01*
X159518078Y-56571000D01*
X159500336Y-56481805D01*
X159490679Y-56467352D01*
X159532600Y-56366145D01*
X159532600Y-56262964D01*
X160026400Y-56262964D01*
X160026400Y-56513036D01*
X160122099Y-56744073D01*
X160298927Y-56920901D01*
X160529964Y-57016600D01*
X160780036Y-57016600D01*
X160889922Y-56971084D01*
X160889922Y-57221000D01*
X160907664Y-57310195D01*
X160958189Y-57385811D01*
X161033805Y-57436336D01*
X161123000Y-57454078D01*
X161698000Y-57454078D01*
X161787195Y-57436336D01*
X161862811Y-57385811D01*
X161913336Y-57310195D01*
X161931078Y-57221000D01*
X161931078Y-56571000D01*
X161913336Y-56481805D01*
X161862811Y-56406189D01*
X161787195Y-56355664D01*
X161698000Y-56337922D01*
X161355316Y-56337922D01*
X161283600Y-56266206D01*
X161283600Y-56262964D01*
X161187901Y-56031927D01*
X161011073Y-55855099D01*
X160780036Y-55759400D01*
X160529964Y-55759400D01*
X160298927Y-55855099D01*
X160122099Y-56031927D01*
X160026400Y-56262964D01*
X159532600Y-56262964D01*
X159532600Y-56155855D01*
X159452126Y-55961572D01*
X159303428Y-55812874D01*
X159109145Y-55732400D01*
X158898855Y-55732400D01*
X158704572Y-55812874D01*
X158555874Y-55961572D01*
X158475400Y-56155855D01*
X158475400Y-56366145D01*
X158512346Y-56455342D01*
X158494664Y-56481805D01*
X158476922Y-56571000D01*
X158476922Y-57221000D01*
X158494664Y-57310195D01*
X158545189Y-57385811D01*
X158620805Y-57436336D01*
X158641901Y-57440532D01*
X158641901Y-57511922D01*
X158635361Y-57511922D01*
X158613926Y-57460172D01*
X158465228Y-57311474D01*
X158270945Y-57231000D01*
X158060655Y-57231000D01*
X157866372Y-57311474D01*
X157717674Y-57460172D01*
X157637200Y-57654455D01*
X157637200Y-57864745D01*
X157717674Y-58059028D01*
X157866372Y-58207726D01*
X158060655Y-58288200D01*
X158191922Y-58288200D01*
X158191922Y-58320000D01*
X158209664Y-58409195D01*
X158260189Y-58484811D01*
X158335805Y-58535336D01*
X158425000Y-58553078D01*
X159075000Y-58553078D01*
X159164195Y-58535336D01*
X159193752Y-58515586D01*
X159181801Y-58575671D01*
X159181800Y-59751872D01*
X159172346Y-59799400D01*
X159181800Y-59846928D01*
X159209801Y-59987700D01*
X159316465Y-60147335D01*
X159356763Y-60174261D01*
X159791401Y-60608900D01*
X159791401Y-60683922D01*
X159524000Y-60683922D01*
X159434805Y-60701664D01*
X159359189Y-60752189D01*
X159308664Y-60827805D01*
X159290922Y-60917000D01*
X159290922Y-61887000D01*
X159308664Y-61976195D01*
X159359189Y-62051811D01*
X159434805Y-62102336D01*
X159524000Y-62120078D01*
X160754184Y-62120078D01*
X160947801Y-62313695D01*
X160947801Y-62593922D01*
X159524000Y-62593922D01*
X159434805Y-62611664D01*
X159359189Y-62662189D01*
X159308664Y-62737805D01*
X159290922Y-62827000D01*
X159290922Y-63023900D01*
X159167532Y-63023900D01*
X159163336Y-63002805D01*
X159112811Y-62927189D01*
X159037195Y-62876664D01*
X158948000Y-62858922D01*
X158298000Y-62858922D01*
X158208805Y-62876664D01*
X158133189Y-62927189D01*
X158082664Y-63002805D01*
X158064922Y-63092000D01*
X158064922Y-63448524D01*
X158060268Y-63455490D01*
X158012927Y-63475099D01*
X157836099Y-63651927D01*
X157740400Y-63882964D01*
X157740400Y-64133036D01*
X157836099Y-64364073D01*
X158012927Y-64540901D01*
X158243964Y-64636600D01*
X158494036Y-64636600D01*
X158725073Y-64540901D01*
X158901901Y-64364073D01*
X158997600Y-64133036D01*
X158997600Y-63890212D01*
X159037195Y-63882336D01*
X159112811Y-63831811D01*
X159163336Y-63756195D01*
X159167532Y-63735100D01*
X159290922Y-63735100D01*
X159290922Y-63797000D01*
X159308664Y-63886195D01*
X159359189Y-63961811D01*
X159434805Y-64012336D01*
X159524000Y-64030078D01*
X160947802Y-64030078D01*
X160947802Y-64268303D01*
X160636295Y-64579811D01*
X160605811Y-64534189D01*
X160530195Y-64483664D01*
X160441000Y-64465922D01*
X159866000Y-64465922D01*
X159776805Y-64483664D01*
X159701189Y-64534189D01*
X159650664Y-64609805D01*
X159632922Y-64699000D01*
X159632922Y-65349000D01*
X159643800Y-65403687D01*
X159643800Y-65586345D01*
X159724274Y-65780628D01*
X159872972Y-65929326D01*
X160067255Y-66009800D01*
X160277545Y-66009800D01*
X160471828Y-65929326D01*
X160620526Y-65780628D01*
X160701000Y-65586345D01*
X160701000Y-65385373D01*
X160730020Y-65379600D01*
X160833748Y-65358967D01*
X160951373Y-65280373D01*
X160971211Y-65250683D01*
X161530087Y-64691808D01*
X161559774Y-64671972D01*
X161599694Y-64612228D01*
X161638368Y-64554347D01*
X161665967Y-64415599D01*
X161659001Y-64380579D01*
X161659001Y-62201415D01*
X161665966Y-62166400D01*
X161659001Y-62131385D01*
X161659001Y-62131381D01*
X161638368Y-62027653D01*
X161559773Y-61910028D01*
X161530086Y-61890192D01*
X161524494Y-61884600D01*
X162515922Y-61884600D01*
X162515922Y-62512000D01*
X162533664Y-62601195D01*
X162552698Y-62629682D01*
X162514572Y-62645474D01*
X162365874Y-62794172D01*
X162285400Y-62988455D01*
X162285400Y-63198745D01*
X162365874Y-63393028D01*
X162514572Y-63541726D01*
X162708855Y-63622200D01*
X162919145Y-63622200D01*
X163113428Y-63541726D01*
X163144200Y-63510954D01*
X163174972Y-63541726D01*
X163369255Y-63622200D01*
X163579545Y-63622200D01*
X163773828Y-63541726D01*
X163804600Y-63510954D01*
X163835372Y-63541726D01*
X164029655Y-63622200D01*
X164239945Y-63622200D01*
X164434228Y-63541726D01*
X164526754Y-63449200D01*
X165334228Y-63449200D01*
X165417950Y-63532922D01*
X164681000Y-63532922D01*
X164591805Y-63550664D01*
X164516189Y-63601189D01*
X164465664Y-63676805D01*
X164447922Y-63766000D01*
X164447922Y-65021956D01*
X164368781Y-64989175D01*
X164118709Y-64989175D01*
X163887672Y-65084874D01*
X163710844Y-65261702D01*
X163615145Y-65492739D01*
X163615145Y-65608922D01*
X163422000Y-65608922D01*
X163332805Y-65626664D01*
X163257189Y-65677189D01*
X163206664Y-65752805D01*
X163188922Y-65842000D01*
X163188922Y-66492000D01*
X163206664Y-66581195D01*
X163257189Y-66656811D01*
X163332805Y-66707336D01*
X163422000Y-66725078D01*
X163997000Y-66725078D01*
X164086195Y-66707336D01*
X164161811Y-66656811D01*
X164212336Y-66581195D01*
X164230078Y-66492000D01*
X164230078Y-66246375D01*
X164368781Y-66246375D01*
X164599818Y-66150676D01*
X164776646Y-65973848D01*
X164872345Y-65742811D01*
X164872345Y-65499078D01*
X164979400Y-65499078D01*
X164979400Y-65657036D01*
X165075099Y-65888073D01*
X165251927Y-66064901D01*
X165482964Y-66160600D01*
X165733036Y-66160600D01*
X165964073Y-66064901D01*
X166140901Y-65888073D01*
X166236600Y-65657036D01*
X166236600Y-65559100D01*
X166404145Y-65559100D01*
X166465521Y-65533677D01*
X166553000Y-65551078D01*
X167203000Y-65551078D01*
X167292195Y-65533336D01*
X167367811Y-65482811D01*
X167418336Y-65407195D01*
X167436078Y-65318000D01*
X167436078Y-65169679D01*
X169683072Y-67416673D01*
X169661200Y-67412322D01*
X169086200Y-67412322D01*
X168997005Y-67430064D01*
X168921389Y-67480589D01*
X168870864Y-67556205D01*
X168853122Y-67645400D01*
X168853122Y-68295400D01*
X168870864Y-68384595D01*
X168921389Y-68460211D01*
X168997005Y-68510736D01*
X169086200Y-68528478D01*
X169661200Y-68528478D01*
X169750395Y-68510736D01*
X169826011Y-68460211D01*
X169876536Y-68384595D01*
X169894278Y-68295400D01*
X169894278Y-68293530D01*
X170393481Y-68792733D01*
X170286233Y-68771400D01*
X170073767Y-68771400D01*
X169759151Y-68833981D01*
X169402373Y-69072373D01*
X169163981Y-69429151D01*
X169080269Y-69850000D01*
X169163981Y-70270849D01*
X169402373Y-70627627D01*
X169647476Y-70791400D01*
X168172524Y-70791400D01*
X168417627Y-70627627D01*
X168656019Y-70270849D01*
X168739731Y-69850000D01*
X168656019Y-69429151D01*
X168417627Y-69072373D01*
X168060849Y-68833981D01*
X167746233Y-68771400D01*
X167533767Y-68771400D01*
X167219151Y-68833981D01*
X166862373Y-69072373D01*
X166623981Y-69429151D01*
X166540269Y-69850000D01*
X166623981Y-70270849D01*
X166862373Y-70627627D01*
X167107476Y-70791400D01*
X165632524Y-70791400D01*
X165877627Y-70627627D01*
X166116019Y-70270849D01*
X166199731Y-69850000D01*
X166116019Y-69429151D01*
X165877627Y-69072373D01*
X165520849Y-68833981D01*
X165206233Y-68771400D01*
X164993767Y-68771400D01*
X164679151Y-68833981D01*
X164322373Y-69072373D01*
X164083981Y-69429151D01*
X164000269Y-69850000D01*
X164083981Y-70270849D01*
X164322373Y-70627627D01*
X164567476Y-70791400D01*
X163092524Y-70791400D01*
X163337627Y-70627627D01*
X163576019Y-70270849D01*
X163659731Y-69850000D01*
X163576019Y-69429151D01*
X163337627Y-69072373D01*
X162980849Y-68833981D01*
X162666233Y-68771400D01*
X162453767Y-68771400D01*
X162139151Y-68833981D01*
X161782373Y-69072373D01*
X161543981Y-69429151D01*
X161460269Y-69850000D01*
X161543981Y-70270849D01*
X161782373Y-70627627D01*
X162027476Y-70791400D01*
X160552524Y-70791400D01*
X160797627Y-70627627D01*
X161036019Y-70270849D01*
X161119731Y-69850000D01*
X161036019Y-69429151D01*
X160797627Y-69072373D01*
X160440849Y-68833981D01*
X160126233Y-68771400D01*
X159913767Y-68771400D01*
X159599151Y-68833981D01*
X159242373Y-69072373D01*
X159003981Y-69429151D01*
X158920269Y-69850000D01*
X159003981Y-70270849D01*
X159242373Y-70627627D01*
X159487476Y-70791400D01*
X158012524Y-70791400D01*
X158257627Y-70627627D01*
X158496019Y-70270849D01*
X158579731Y-69850000D01*
X158496019Y-69429151D01*
X158257627Y-69072373D01*
X157900849Y-68833981D01*
X157586233Y-68771400D01*
X157373767Y-68771400D01*
X157059151Y-68833981D01*
X156702373Y-69072373D01*
X156463981Y-69429151D01*
X156380269Y-69850000D01*
X156463981Y-70270849D01*
X156702373Y-70627627D01*
X156947476Y-70791400D01*
X155472524Y-70791400D01*
X155717627Y-70627627D01*
X155956019Y-70270849D01*
X156039731Y-69850000D01*
X155956019Y-69429151D01*
X155717627Y-69072373D01*
X155360849Y-68833981D01*
X155046233Y-68771400D01*
X154833767Y-68771400D01*
X154519151Y-68833981D01*
X154162373Y-69072373D01*
X153923981Y-69429151D01*
X153840269Y-69850000D01*
X153923981Y-70270849D01*
X154162373Y-70627627D01*
X154407476Y-70791400D01*
X152932524Y-70791400D01*
X153177627Y-70627627D01*
X153416019Y-70270849D01*
X153499731Y-69850000D01*
X153416019Y-69429151D01*
X153177627Y-69072373D01*
X152820849Y-68833981D01*
X152506233Y-68771400D01*
X152293767Y-68771400D01*
X151979151Y-68833981D01*
X151622373Y-69072373D01*
X151383981Y-69429151D01*
X151300269Y-69850000D01*
X151383981Y-70270849D01*
X151622373Y-70627627D01*
X151867476Y-70791400D01*
X150392524Y-70791400D01*
X150637627Y-70627627D01*
X150876019Y-70270849D01*
X150959731Y-69850000D01*
X150876019Y-69429151D01*
X150637627Y-69072373D01*
X150280849Y-68833981D01*
X149966233Y-68771400D01*
X149753767Y-68771400D01*
X149439151Y-68833981D01*
X149082373Y-69072373D01*
X148843981Y-69429151D01*
X148760269Y-69850000D01*
X148843981Y-70270849D01*
X149082373Y-70627627D01*
X149327476Y-70791400D01*
X147852524Y-70791400D01*
X148097627Y-70627627D01*
X148336019Y-70270849D01*
X148419731Y-69850000D01*
X148336019Y-69429151D01*
X148097627Y-69072373D01*
X147740849Y-68833981D01*
X147426233Y-68771400D01*
X147213767Y-68771400D01*
X146899151Y-68833981D01*
X146542373Y-69072373D01*
X146303981Y-69429151D01*
X146220269Y-69850000D01*
X146303981Y-70270849D01*
X146542373Y-70627627D01*
X146787476Y-70791400D01*
X145312524Y-70791400D01*
X145557627Y-70627627D01*
X145796019Y-70270849D01*
X145879731Y-69850000D01*
X145796019Y-69429151D01*
X145557627Y-69072373D01*
X145200849Y-68833981D01*
X144886233Y-68771400D01*
X144673767Y-68771400D01*
X144359151Y-68833981D01*
X144002373Y-69072373D01*
X143763981Y-69429151D01*
X143680269Y-69850000D01*
X143763981Y-70270849D01*
X144002373Y-70627627D01*
X144247476Y-70791400D01*
X142772524Y-70791400D01*
X143017627Y-70627627D01*
X143256019Y-70270849D01*
X143339731Y-69850000D01*
X143256019Y-69429151D01*
X143017627Y-69072373D01*
X142660849Y-68833981D01*
X142346233Y-68771400D01*
X142133767Y-68771400D01*
X141819151Y-68833981D01*
X141462373Y-69072373D01*
X141223981Y-69429151D01*
X141140269Y-69850000D01*
X141223981Y-70270849D01*
X141462373Y-70627627D01*
X141707476Y-70791400D01*
X140232524Y-70791400D01*
X140477627Y-70627627D01*
X140716019Y-70270849D01*
X140799731Y-69850000D01*
X140716019Y-69429151D01*
X140477627Y-69072373D01*
X140120849Y-68833981D01*
X139806233Y-68771400D01*
X139593767Y-68771400D01*
X139279151Y-68833981D01*
X138922373Y-69072373D01*
X138683981Y-69429151D01*
X138600269Y-69850000D01*
X138683981Y-70270849D01*
X138922373Y-70627627D01*
X139167476Y-70791400D01*
X137692524Y-70791400D01*
X137937627Y-70627627D01*
X138176019Y-70270849D01*
X138259731Y-69850000D01*
X138176019Y-69429151D01*
X137937627Y-69072373D01*
X137580849Y-68833981D01*
X137266233Y-68771400D01*
X137053767Y-68771400D01*
X136739151Y-68833981D01*
X136382373Y-69072373D01*
X136143981Y-69429151D01*
X136060269Y-69850000D01*
X136143981Y-70270849D01*
X136382373Y-70627627D01*
X136627476Y-70791400D01*
X135583600Y-70791400D01*
X135583600Y-61349000D01*
X137061922Y-61349000D01*
X137061922Y-62349000D01*
X137079664Y-62438195D01*
X137130189Y-62513811D01*
X137205805Y-62564336D01*
X137295000Y-62582078D01*
X138295000Y-62582078D01*
X138384195Y-62564336D01*
X138459811Y-62513811D01*
X138510336Y-62438195D01*
X138528078Y-62349000D01*
X138528078Y-61349000D01*
X138521434Y-61315600D01*
X139308046Y-61315600D01*
X139395200Y-61402754D01*
X139395201Y-61526156D01*
X139311205Y-61542864D01*
X139235589Y-61593389D01*
X139185064Y-61669005D01*
X139167322Y-61758200D01*
X139167322Y-62333200D01*
X139185064Y-62422395D01*
X139192284Y-62433200D01*
X139185064Y-62444005D01*
X139167322Y-62533200D01*
X139167322Y-63108200D01*
X139170997Y-63126673D01*
X139044972Y-63178874D01*
X138896274Y-63327572D01*
X138815800Y-63521855D01*
X138815800Y-63732145D01*
X138896274Y-63926428D01*
X139044972Y-64075126D01*
X139239255Y-64155600D01*
X139449545Y-64155600D01*
X139643828Y-64075126D01*
X139792526Y-63926428D01*
X139873000Y-63732145D01*
X139873000Y-63529452D01*
X139919700Y-63482752D01*
X139945148Y-63465748D01*
X140012515Y-63364927D01*
X140017219Y-63341278D01*
X140050400Y-63341278D01*
X140139595Y-63323536D01*
X140215211Y-63273011D01*
X140265736Y-63197395D01*
X140283478Y-63108200D01*
X140283478Y-62533200D01*
X140265736Y-62444005D01*
X140258516Y-62433200D01*
X140265736Y-62422395D01*
X140283478Y-62333200D01*
X140283478Y-61758200D01*
X140265736Y-61669005D01*
X140215211Y-61593389D01*
X140139595Y-61542864D01*
X140050400Y-61525122D01*
X140004800Y-61525122D01*
X140004800Y-61402754D01*
X140148126Y-61259428D01*
X140228600Y-61065145D01*
X140228600Y-60854855D01*
X140148126Y-60660572D01*
X139999428Y-60511874D01*
X139805145Y-60431400D01*
X139594855Y-60431400D01*
X139400572Y-60511874D01*
X139308046Y-60604400D01*
X137965020Y-60604400D01*
X137930000Y-60597434D01*
X137894980Y-60604400D01*
X137791252Y-60625033D01*
X137673627Y-60703627D01*
X137653789Y-60733317D01*
X137568315Y-60818791D01*
X137538627Y-60838628D01*
X137518791Y-60868315D01*
X137518790Y-60868316D01*
X137460033Y-60956253D01*
X137432434Y-61095000D01*
X137436596Y-61115922D01*
X137295000Y-61115922D01*
X137205805Y-61133664D01*
X137130189Y-61184189D01*
X137079664Y-61259805D01*
X137061922Y-61349000D01*
X135583600Y-61349000D01*
X135583600Y-51128600D01*
X136627476Y-51128600D01*
X136382373Y-51292373D01*
G36*
X166862373Y-51292373D02*
X166623981Y-51649151D01*
X166540269Y-52070000D01*
X166623981Y-52490849D01*
X166862373Y-52847627D01*
X167219151Y-53086019D01*
X167533767Y-53148600D01*
X167746233Y-53148600D01*
X168060849Y-53086019D01*
X168417627Y-52847627D01*
X168656019Y-52490849D01*
X168739731Y-52070000D01*
X168656019Y-51649151D01*
X168417627Y-51292373D01*
X168172524Y-51128600D01*
X169647476Y-51128600D01*
X169402373Y-51292373D01*
X169163981Y-51649151D01*
X169080269Y-52070000D01*
X169163981Y-52490849D01*
X169402373Y-52847627D01*
X169759151Y-53086019D01*
X170073767Y-53148600D01*
X170286233Y-53148600D01*
X170600849Y-53086019D01*
X170957627Y-52847627D01*
X171196019Y-52490849D01*
X171279731Y-52070000D01*
X171196019Y-51649151D01*
X170957627Y-51292373D01*
X170712524Y-51128600D01*
X172187476Y-51128600D01*
X171942373Y-51292373D01*
X171703981Y-51649151D01*
X171620269Y-52070000D01*
X171703981Y-52490849D01*
X171942373Y-52847627D01*
X172299151Y-53086019D01*
X172613767Y-53148600D01*
X172826233Y-53148600D01*
X173140849Y-53086019D01*
X173239230Y-53020282D01*
X173264846Y-53045898D01*
X173225805Y-53053664D01*
X173150189Y-53104189D01*
X173099664Y-53179805D01*
X173081922Y-53269000D01*
X173081922Y-53919000D01*
X173099664Y-54008195D01*
X173150189Y-54083811D01*
X173225805Y-54134336D01*
X173315000Y-54152078D01*
X173890000Y-54152078D01*
X173979195Y-54134336D01*
X173990000Y-54127116D01*
X174000805Y-54134336D01*
X174071000Y-54148299D01*
X174071000Y-54232545D01*
X174151474Y-54426828D01*
X174300172Y-54575526D01*
X174494455Y-54656000D01*
X174704745Y-54656000D01*
X174899028Y-54575526D01*
X175047726Y-54426828D01*
X175128200Y-54232545D01*
X175128200Y-54022255D01*
X175113758Y-53987387D01*
X189923800Y-53987387D01*
X189923800Y-54216613D01*
X190011522Y-54428391D01*
X190173609Y-54590478D01*
X190385387Y-54678200D01*
X190614613Y-54678200D01*
X190826391Y-54590478D01*
X190988478Y-54428391D01*
X191076200Y-54216613D01*
X191076200Y-53987387D01*
X190988478Y-53775609D01*
X190826391Y-53613522D01*
X190614613Y-53525800D01*
X190385387Y-53525800D01*
X190173609Y-53613522D01*
X190011522Y-53775609D01*
X189923800Y-53987387D01*
X175113758Y-53987387D01*
X175047726Y-53827972D01*
X174899028Y-53679274D01*
X174898078Y-53678881D01*
X174898078Y-53269000D01*
X174880336Y-53179805D01*
X174829811Y-53104189D01*
X174754195Y-53053664D01*
X174665000Y-53035922D01*
X174090000Y-53035922D01*
X174000805Y-53053664D01*
X173990000Y-53060884D01*
X173979195Y-53053664D01*
X173907300Y-53039363D01*
X173907300Y-52982512D01*
X173913270Y-52952499D01*
X173907300Y-52922486D01*
X173907300Y-52922482D01*
X173889615Y-52833573D01*
X173822248Y-52732752D01*
X173796801Y-52715749D01*
X173670282Y-52589230D01*
X173736019Y-52490849D01*
X173819731Y-52070000D01*
X173736019Y-51649151D01*
X173497627Y-51292373D01*
X173252524Y-51128600D01*
X174727476Y-51128600D01*
X174482373Y-51292373D01*
X174243981Y-51649151D01*
X174160269Y-52070000D01*
X174243981Y-52490849D01*
X174482373Y-52847627D01*
X174839151Y-53086019D01*
X175153767Y-53148600D01*
X175366233Y-53148600D01*
X175680849Y-53086019D01*
X176037627Y-52847627D01*
X176276019Y-52490849D01*
X176359731Y-52070000D01*
X176276019Y-51649151D01*
X176037627Y-51292373D01*
X175792524Y-51128600D01*
X177267476Y-51128600D01*
X177022373Y-51292373D01*
X176783981Y-51649151D01*
X176700269Y-52070000D01*
X176783981Y-52490849D01*
X177022373Y-52847627D01*
X177379151Y-53086019D01*
X177693767Y-53148600D01*
X177906233Y-53148600D01*
X178220849Y-53086019D01*
X178577627Y-52847627D01*
X178816019Y-52490849D01*
X178899731Y-52070000D01*
X178816019Y-51649151D01*
X178577627Y-51292373D01*
X178332524Y-51128600D01*
X179807476Y-51128600D01*
X179562373Y-51292373D01*
X179323981Y-51649151D01*
X179240269Y-52070000D01*
X179323981Y-52490849D01*
X179562373Y-52847627D01*
X179919151Y-53086019D01*
X180233767Y-53148600D01*
X180446233Y-53148600D01*
X180760849Y-53086019D01*
X181117627Y-52847627D01*
X181356019Y-52490849D01*
X181405931Y-52239923D01*
X181969517Y-52239923D01*
X182103850Y-52575415D01*
X182356345Y-52833962D01*
X182688561Y-52976203D01*
X182710078Y-52980480D01*
X182854600Y-52976794D01*
X182854600Y-52095400D01*
X182905400Y-52095400D01*
X182905400Y-52976794D01*
X183049922Y-52980480D01*
X183071439Y-52976203D01*
X183403655Y-52833962D01*
X183656150Y-52575415D01*
X183790483Y-52239923D01*
X184509517Y-52239923D01*
X184643850Y-52575415D01*
X184896345Y-52833962D01*
X185228561Y-52976203D01*
X185250078Y-52980480D01*
X185394600Y-52976794D01*
X185394600Y-52095400D01*
X185445400Y-52095400D01*
X185445400Y-52976794D01*
X185589922Y-52980480D01*
X185611439Y-52976203D01*
X185943655Y-52833962D01*
X186196150Y-52575415D01*
X186330483Y-52239923D01*
X186326805Y-52095400D01*
X185445400Y-52095400D01*
X185394600Y-52095400D01*
X184513195Y-52095400D01*
X184509517Y-52239923D01*
X183790483Y-52239923D01*
X183786805Y-52095400D01*
X182905400Y-52095400D01*
X182854600Y-52095400D01*
X181973195Y-52095400D01*
X181969517Y-52239923D01*
X181405931Y-52239923D01*
X181439731Y-52070000D01*
X181405932Y-51900077D01*
X181969517Y-51900077D01*
X181973195Y-52044600D01*
X182854600Y-52044600D01*
X182854600Y-51163206D01*
X182905400Y-51163206D01*
X182905400Y-52044600D01*
X183786805Y-52044600D01*
X183790483Y-51900077D01*
X184509517Y-51900077D01*
X184513195Y-52044600D01*
X185394600Y-52044600D01*
X185394600Y-51163206D01*
X185445400Y-51163206D01*
X185445400Y-52044600D01*
X186326805Y-52044600D01*
X186330483Y-51900077D01*
X186196150Y-51564585D01*
X185943655Y-51306038D01*
X185611439Y-51163797D01*
X185589922Y-51159520D01*
X185445400Y-51163206D01*
X185394600Y-51163206D01*
X185250078Y-51159520D01*
X185228561Y-51163797D01*
X184896345Y-51306038D01*
X184643850Y-51564585D01*
X184509517Y-51900077D01*
X183790483Y-51900077D01*
X183656150Y-51564585D01*
X183403655Y-51306038D01*
X183071439Y-51163797D01*
X183049922Y-51159520D01*
X182905400Y-51163206D01*
X182854600Y-51163206D01*
X182710078Y-51159520D01*
X182688561Y-51163797D01*
X182356345Y-51306038D01*
X182103850Y-51564585D01*
X181969517Y-51900077D01*
X181405932Y-51900077D01*
X181356019Y-51649151D01*
X181117627Y-51292373D01*
X180872524Y-51128600D01*
X187427476Y-51128600D01*
X187182373Y-51292373D01*
X186943981Y-51649151D01*
X186860269Y-52070000D01*
X186943981Y-52490849D01*
X187182373Y-52847627D01*
X187539151Y-53086019D01*
X187853767Y-53148600D01*
X188066233Y-53148600D01*
X188380849Y-53086019D01*
X188737627Y-52847627D01*
X188976019Y-52490849D01*
X189059731Y-52070000D01*
X188976019Y-51649151D01*
X188737627Y-51292373D01*
X188492524Y-51128600D01*
X189436137Y-51128600D01*
X189434664Y-51130805D01*
X189416922Y-51220000D01*
X189416922Y-52920000D01*
X189434664Y-53009195D01*
X189485189Y-53084811D01*
X189560805Y-53135336D01*
X189650000Y-53153078D01*
X191350000Y-53153078D01*
X191439195Y-53135336D01*
X191514811Y-53084811D01*
X191565336Y-53009195D01*
X191583078Y-52920000D01*
X191583078Y-51220000D01*
X191565336Y-51130805D01*
X191563863Y-51128600D01*
X192076401Y-51128600D01*
X192076400Y-70791400D01*
X191563863Y-70791400D01*
X191565336Y-70789195D01*
X191583078Y-70700000D01*
X191583078Y-69000000D01*
X191565336Y-68910805D01*
X191514811Y-68835189D01*
X191439195Y-68784664D01*
X191350000Y-68766922D01*
X189650000Y-68766922D01*
X189560805Y-68784664D01*
X189485189Y-68835189D01*
X189434664Y-68910805D01*
X189416922Y-69000000D01*
X189416922Y-70700000D01*
X189434664Y-70789195D01*
X189436137Y-70791400D01*
X188492524Y-70791400D01*
X188737627Y-70627627D01*
X188976019Y-70270849D01*
X189059731Y-69850000D01*
X188976019Y-69429151D01*
X188882800Y-69289639D01*
X188882800Y-67830387D01*
X189923800Y-67830387D01*
X189923800Y-68059613D01*
X190011522Y-68271391D01*
X190173609Y-68433478D01*
X190385387Y-68521200D01*
X190614613Y-68521200D01*
X190826391Y-68433478D01*
X190988478Y-68271391D01*
X191076200Y-68059613D01*
X191076200Y-67830387D01*
X190988478Y-67618609D01*
X190826391Y-67456522D01*
X190614613Y-67368800D01*
X190385387Y-67368800D01*
X190173609Y-67456522D01*
X190011522Y-67618609D01*
X189923800Y-67830387D01*
X188882800Y-67830387D01*
X188882800Y-67308491D01*
X188914536Y-67260995D01*
X188932278Y-67171800D01*
X188932278Y-65771800D01*
X188914536Y-65682605D01*
X188864011Y-65606989D01*
X188788395Y-65556464D01*
X188699200Y-65538722D01*
X188307437Y-65538722D01*
X187359509Y-64590794D01*
X189911270Y-64590794D01*
X189940253Y-64695304D01*
X190078594Y-64920185D01*
X190292463Y-65075007D01*
X190549300Y-65136200D01*
X190899300Y-65136200D01*
X190899300Y-64485400D01*
X190950100Y-64485400D01*
X190950100Y-65136200D01*
X191300100Y-65136200D01*
X191556937Y-65075007D01*
X191770806Y-64920185D01*
X191909147Y-64695304D01*
X191938130Y-64590794D01*
X191931359Y-64485400D01*
X190950100Y-64485400D01*
X190899300Y-64485400D01*
X189918041Y-64485400D01*
X189911270Y-64590794D01*
X187359509Y-64590794D01*
X187097921Y-64329206D01*
X189911270Y-64329206D01*
X189918041Y-64434600D01*
X190899300Y-64434600D01*
X190899300Y-63783800D01*
X190950100Y-63783800D01*
X190950100Y-64434600D01*
X191931359Y-64434600D01*
X191938130Y-64329206D01*
X191909147Y-64224696D01*
X191770806Y-63999815D01*
X191556937Y-63844993D01*
X191300100Y-63783800D01*
X190950100Y-63783800D01*
X190899300Y-63783800D01*
X190549300Y-63783800D01*
X190292463Y-63844993D01*
X190078594Y-63999815D01*
X189940253Y-64224696D01*
X189911270Y-64329206D01*
X187097921Y-64329206D01*
X186810551Y-64041837D01*
X187678784Y-64041837D01*
X187765322Y-64135493D01*
X188058789Y-64259870D01*
X188377516Y-64262474D01*
X188672977Y-64142910D01*
X188684078Y-64135493D01*
X188770616Y-64041837D01*
X188224700Y-63495921D01*
X187678784Y-64041837D01*
X186810551Y-64041837D01*
X186635602Y-63866889D01*
X186587420Y-63794780D01*
X186315094Y-63612816D01*
X187422226Y-63612816D01*
X187541790Y-63908277D01*
X187549207Y-63919378D01*
X187642863Y-64005916D01*
X188188779Y-63460000D01*
X188260621Y-63460000D01*
X188806537Y-64005916D01*
X188900193Y-63919378D01*
X189024570Y-63625911D01*
X189027174Y-63307184D01*
X188907610Y-63011723D01*
X188900193Y-63000622D01*
X188806537Y-62914084D01*
X188260621Y-63460000D01*
X188188779Y-63460000D01*
X187642863Y-62914084D01*
X187549207Y-63000622D01*
X187424830Y-63294089D01*
X187422226Y-63612816D01*
X186315094Y-63612816D01*
X186301760Y-63603907D01*
X186049853Y-63553800D01*
X186049849Y-63553800D01*
X185964800Y-63536883D01*
X185879751Y-63553800D01*
X185385747Y-63553800D01*
X185133840Y-63603907D01*
X185088321Y-63634322D01*
X184920800Y-63634322D01*
X184831605Y-63652064D01*
X184755989Y-63702589D01*
X184705464Y-63778205D01*
X184687722Y-63867400D01*
X184687722Y-63923902D01*
X184606903Y-63977903D01*
X184572892Y-64028804D01*
X184241083Y-64360613D01*
X184135194Y-62878163D01*
X187678784Y-62878163D01*
X188224700Y-63424079D01*
X188770616Y-62878163D01*
X188684078Y-62784507D01*
X188390611Y-62660130D01*
X188071884Y-62657526D01*
X187776423Y-62777090D01*
X187765322Y-62784507D01*
X187678784Y-62878163D01*
X184135194Y-62878163D01*
X184124019Y-62721713D01*
X184107199Y-62650519D01*
X184057645Y-62576355D01*
X183983481Y-62526801D01*
X183896000Y-62509400D01*
X181838600Y-62509400D01*
X181838600Y-60706000D01*
X181821199Y-60618519D01*
X181771645Y-60544355D01*
X181697481Y-60494801D01*
X181610000Y-60477400D01*
X180060600Y-60477400D01*
X180060600Y-59182000D01*
X184023000Y-59182000D01*
X184023000Y-62357000D01*
X184040401Y-62444481D01*
X184089955Y-62518645D01*
X184164119Y-62568199D01*
X184251600Y-62585600D01*
X186791600Y-62585600D01*
X186879081Y-62568199D01*
X186953245Y-62518645D01*
X187002799Y-62444481D01*
X187020200Y-62357000D01*
X187020200Y-59182000D01*
X187002799Y-59094519D01*
X186967599Y-59041837D01*
X187678784Y-59041837D01*
X187765322Y-59135493D01*
X188058789Y-59259870D01*
X188377516Y-59262474D01*
X188672977Y-59142910D01*
X188684078Y-59135493D01*
X188770616Y-59041837D01*
X188224700Y-58495921D01*
X187678784Y-59041837D01*
X186967599Y-59041837D01*
X186953245Y-59020355D01*
X186879081Y-58970801D01*
X186791600Y-58953400D01*
X184251600Y-58953400D01*
X184164119Y-58970801D01*
X184089955Y-59020355D01*
X184040401Y-59094519D01*
X184023000Y-59182000D01*
X180060600Y-59182000D01*
X180060600Y-58612816D01*
X187422226Y-58612816D01*
X187541790Y-58908277D01*
X187549207Y-58919378D01*
X187642863Y-59005916D01*
X188188779Y-58460000D01*
X188260621Y-58460000D01*
X188806537Y-59005916D01*
X188900193Y-58919378D01*
X189024570Y-58625911D01*
X189027174Y-58307184D01*
X188907610Y-58011723D01*
X188900193Y-58000622D01*
X188806537Y-57914084D01*
X188260621Y-58460000D01*
X188188779Y-58460000D01*
X187642863Y-57914084D01*
X187549207Y-58000622D01*
X187424830Y-58294089D01*
X187422226Y-58612816D01*
X180060600Y-58612816D01*
X180060600Y-58547000D01*
X180043199Y-58459519D01*
X179993645Y-58385355D01*
X179919481Y-58335801D01*
X179832000Y-58318400D01*
X175260000Y-58318400D01*
X175172519Y-58335801D01*
X175098355Y-58385355D01*
X175048801Y-58459519D01*
X175031400Y-58547000D01*
X175031400Y-67310000D01*
X175048801Y-67397481D01*
X175098355Y-67471645D01*
X175172519Y-67521199D01*
X175260000Y-67538600D01*
X181610000Y-67538600D01*
X181697481Y-67521199D01*
X181771645Y-67471645D01*
X181807437Y-67418078D01*
X183778800Y-67418078D01*
X183867995Y-67400336D01*
X183943611Y-67349811D01*
X183994136Y-67274195D01*
X184011878Y-67185000D01*
X184011878Y-66314025D01*
X185110564Y-65215340D01*
X185133840Y-65230893D01*
X185385747Y-65281000D01*
X185607087Y-65281000D01*
X187106122Y-66780037D01*
X187106122Y-67171800D01*
X187123864Y-67260995D01*
X187155600Y-67308492D01*
X187155601Y-69112440D01*
X186943981Y-69429151D01*
X186860269Y-69850000D01*
X186943981Y-70270849D01*
X187182373Y-70627627D01*
X187427476Y-70791400D01*
X183412524Y-70791400D01*
X183657627Y-70627627D01*
X183896019Y-70270849D01*
X183945931Y-70019923D01*
X184509517Y-70019923D01*
X184643850Y-70355415D01*
X184896345Y-70613962D01*
X185228561Y-70756203D01*
X185250078Y-70760480D01*
X185394600Y-70756794D01*
X185394600Y-69875400D01*
X185445400Y-69875400D01*
X185445400Y-70756794D01*
X185589922Y-70760480D01*
X185611439Y-70756203D01*
X185943655Y-70613962D01*
X186196150Y-70355415D01*
X186330483Y-70019923D01*
X186326805Y-69875400D01*
X185445400Y-69875400D01*
X185394600Y-69875400D01*
X184513195Y-69875400D01*
X184509517Y-70019923D01*
X183945931Y-70019923D01*
X183979731Y-69850000D01*
X183945932Y-69680077D01*
X184509517Y-69680077D01*
X184513195Y-69824600D01*
X185394600Y-69824600D01*
X185394600Y-68943206D01*
X185445400Y-68943206D01*
X185445400Y-69824600D01*
X186326805Y-69824600D01*
X186330483Y-69680077D01*
X186196150Y-69344585D01*
X185943655Y-69086038D01*
X185611439Y-68943797D01*
X185589922Y-68939520D01*
X185445400Y-68943206D01*
X185394600Y-68943206D01*
X185250078Y-68939520D01*
X185228561Y-68943797D01*
X184896345Y-69086038D01*
X184643850Y-69344585D01*
X184509517Y-69680077D01*
X183945932Y-69680077D01*
X183896019Y-69429151D01*
X183657627Y-69072373D01*
X183300849Y-68833981D01*
X182986233Y-68771400D01*
X182773767Y-68771400D01*
X182459151Y-68833981D01*
X182102373Y-69072373D01*
X181863981Y-69429151D01*
X181780269Y-69850000D01*
X181863981Y-70270849D01*
X182102373Y-70627627D01*
X182347476Y-70791400D01*
X178332524Y-70791400D01*
X178577627Y-70627627D01*
X178816019Y-70270849D01*
X178865931Y-70019923D01*
X179429517Y-70019923D01*
X179563850Y-70355415D01*
X179816345Y-70613962D01*
X180148561Y-70756203D01*
X180170078Y-70760480D01*
X180314600Y-70756794D01*
X180314600Y-69875400D01*
X180365400Y-69875400D01*
X180365400Y-70756794D01*
X180509922Y-70760480D01*
X180531439Y-70756203D01*
X180863655Y-70613962D01*
X181116150Y-70355415D01*
X181250483Y-70019923D01*
X181246805Y-69875400D01*
X180365400Y-69875400D01*
X180314600Y-69875400D01*
X179433195Y-69875400D01*
X179429517Y-70019923D01*
X178865931Y-70019923D01*
X178899731Y-69850000D01*
X178865932Y-69680077D01*
X179429517Y-69680077D01*
X179433195Y-69824600D01*
X180314600Y-69824600D01*
X180314600Y-68943206D01*
X180365400Y-68943206D01*
X180365400Y-69824600D01*
X181246805Y-69824600D01*
X181250483Y-69680077D01*
X181116150Y-69344585D01*
X180863655Y-69086038D01*
X180531439Y-68943797D01*
X180509922Y-68939520D01*
X180365400Y-68943206D01*
X180314600Y-68943206D01*
X180170078Y-68939520D01*
X180148561Y-68943797D01*
X179816345Y-69086038D01*
X179563850Y-69344585D01*
X179429517Y-69680077D01*
X178865932Y-69680077D01*
X178816019Y-69429151D01*
X178577627Y-69072373D01*
X178220849Y-68833981D01*
X177906233Y-68771400D01*
X177693767Y-68771400D01*
X177379151Y-68833981D01*
X177280770Y-68899718D01*
X176639751Y-68258699D01*
X176622748Y-68233252D01*
X176521927Y-68165885D01*
X176433018Y-68148200D01*
X176433014Y-68148200D01*
X176403000Y-68142230D01*
X176372986Y-68148200D01*
X171707770Y-68148200D01*
X168833800Y-65274230D01*
X168833800Y-62999358D01*
X168839770Y-62969345D01*
X168833800Y-62939332D01*
X168833800Y-62939328D01*
X168816115Y-62850419D01*
X168748748Y-62749598D01*
X168723300Y-62732594D01*
X168047016Y-62056310D01*
X168030012Y-62030862D01*
X167929191Y-61963495D01*
X167840282Y-61945810D01*
X167840278Y-61945810D01*
X167825893Y-61942949D01*
X167685428Y-61802484D01*
X167613764Y-61772800D01*
X168122505Y-61772800D01*
X168152519Y-61778770D01*
X168182533Y-61772800D01*
X168182537Y-61772800D01*
X168271446Y-61755115D01*
X168372267Y-61687748D01*
X168389271Y-61662300D01*
X170027922Y-60023648D01*
X170027922Y-61321000D01*
X170045664Y-61410195D01*
X170096189Y-61485811D01*
X170171805Y-61536336D01*
X170261000Y-61554078D01*
X170266239Y-61554078D01*
X170273885Y-61592518D01*
X170324248Y-61667892D01*
X170324251Y-61667895D01*
X170341253Y-61693340D01*
X170355260Y-61702699D01*
X170193031Y-61769896D01*
X170044333Y-61918594D01*
X169963859Y-62112877D01*
X169963859Y-62323167D01*
X170044333Y-62517450D01*
X170193031Y-62666148D01*
X170387314Y-62746622D01*
X170590007Y-62746622D01*
X170937728Y-63094343D01*
X170794972Y-63153474D01*
X170646274Y-63302172D01*
X170565800Y-63496455D01*
X170565800Y-63706745D01*
X170646274Y-63901028D01*
X170791346Y-64046100D01*
X170747874Y-64089572D01*
X170667400Y-64283855D01*
X170667400Y-64494145D01*
X170747874Y-64688428D01*
X170896572Y-64837126D01*
X171090855Y-64917600D01*
X171293548Y-64917600D01*
X171375749Y-64999801D01*
X171366189Y-65006189D01*
X171315664Y-65081805D01*
X171297922Y-65171000D01*
X171297922Y-66721000D01*
X171315664Y-66810195D01*
X171366189Y-66885811D01*
X171441805Y-66936336D01*
X171531000Y-66954078D01*
X172131000Y-66954078D01*
X172220195Y-66936336D01*
X172295811Y-66885811D01*
X172346336Y-66810195D01*
X172364078Y-66721000D01*
X172364078Y-65171000D01*
X172346336Y-65081805D01*
X172295811Y-65006189D01*
X172220195Y-64955664D01*
X172131000Y-64937922D01*
X172124649Y-64937922D01*
X172118115Y-64905073D01*
X172050748Y-64804252D01*
X172025301Y-64787249D01*
X171724600Y-64486548D01*
X171724600Y-64283855D01*
X171644126Y-64089572D01*
X171499054Y-63944500D01*
X171542526Y-63901028D01*
X171601657Y-63758272D01*
X172784574Y-64941189D01*
X172711805Y-64955664D01*
X172636189Y-65006189D01*
X172585664Y-65081805D01*
X172567922Y-65171000D01*
X172567922Y-66721000D01*
X172585664Y-66810195D01*
X172636189Y-66885811D01*
X172711805Y-66936336D01*
X172801000Y-66954078D01*
X173401000Y-66954078D01*
X173490195Y-66936336D01*
X173565811Y-66885811D01*
X173616336Y-66810195D01*
X173634078Y-66721000D01*
X173634078Y-65171000D01*
X173616336Y-65081805D01*
X173565811Y-65006189D01*
X173490195Y-64955664D01*
X173405800Y-64938877D01*
X173405800Y-64876985D01*
X173503855Y-64917600D01*
X173706548Y-64917600D01*
X173861708Y-65072760D01*
X173855664Y-65081805D01*
X173837922Y-65171000D01*
X173837922Y-66721000D01*
X173855664Y-66810195D01*
X173906189Y-66885811D01*
X173981805Y-66936336D01*
X174071000Y-66954078D01*
X174671000Y-66954078D01*
X174760195Y-66936336D01*
X174835811Y-66885811D01*
X174886336Y-66810195D01*
X174904078Y-66721000D01*
X174904078Y-65171000D01*
X174886336Y-65081805D01*
X174835811Y-65006189D01*
X174760195Y-64955664D01*
X174671000Y-64937922D01*
X174595205Y-64937922D01*
X174590748Y-64931252D01*
X174565304Y-64914251D01*
X174137600Y-64486548D01*
X174137600Y-64283855D01*
X174057126Y-64089572D01*
X173908428Y-63940874D01*
X173714145Y-63860400D01*
X173503855Y-63860400D01*
X173309572Y-63940874D01*
X173160874Y-64089572D01*
X173080400Y-64283855D01*
X173080400Y-64374911D01*
X171839598Y-63134109D01*
X171852855Y-63139600D01*
X172063145Y-63139600D01*
X172257428Y-63059126D01*
X172406126Y-62910428D01*
X172486600Y-62716145D01*
X172486600Y-62505855D01*
X172406126Y-62311572D01*
X172262800Y-62168246D01*
X172262800Y-61507868D01*
X172295811Y-61485811D01*
X172346336Y-61410195D01*
X172364078Y-61321000D01*
X172364078Y-59771000D01*
X172567922Y-59771000D01*
X172567922Y-61321000D01*
X172585664Y-61410195D01*
X172636189Y-61485811D01*
X172711805Y-61536336D01*
X172801000Y-61554078D01*
X173137026Y-61554078D01*
X173207400Y-61624452D01*
X173207400Y-61827145D01*
X173287874Y-62021428D01*
X173436572Y-62170126D01*
X173630855Y-62250600D01*
X173841145Y-62250600D01*
X173918600Y-62218517D01*
X173918600Y-62284345D01*
X173999074Y-62478628D01*
X174147772Y-62627326D01*
X174342055Y-62707800D01*
X174552345Y-62707800D01*
X174746628Y-62627326D01*
X174895326Y-62478628D01*
X174975800Y-62284345D01*
X174975800Y-62074055D01*
X174895326Y-61879772D01*
X174802800Y-61787246D01*
X174802800Y-61507868D01*
X174835811Y-61485811D01*
X174886336Y-61410195D01*
X174904078Y-61321000D01*
X174904078Y-59771000D01*
X174886336Y-59681805D01*
X174835811Y-59606189D01*
X174760195Y-59555664D01*
X174671000Y-59537922D01*
X174071000Y-59537922D01*
X173981805Y-59555664D01*
X173906189Y-59606189D01*
X173855664Y-59681805D01*
X173837922Y-59771000D01*
X173837922Y-61193400D01*
X173638452Y-61193400D01*
X173634078Y-61189026D01*
X173634078Y-59771000D01*
X173616336Y-59681805D01*
X173565811Y-59606189D01*
X173490195Y-59555664D01*
X173401000Y-59537922D01*
X172801000Y-59537922D01*
X172711805Y-59555664D01*
X172636189Y-59606189D01*
X172585664Y-59681805D01*
X172567922Y-59771000D01*
X172364078Y-59771000D01*
X172346336Y-59681805D01*
X172295811Y-59606189D01*
X172220195Y-59555664D01*
X172131000Y-59537922D01*
X171531000Y-59537922D01*
X171441805Y-59555664D01*
X171366189Y-59606189D01*
X171315664Y-59681805D01*
X171297922Y-59771000D01*
X171297922Y-61321000D01*
X171315664Y-61410195D01*
X171366189Y-61485811D01*
X171441805Y-61536336D01*
X171531000Y-61554078D01*
X171653201Y-61554078D01*
X171653200Y-61818238D01*
X171544396Y-61709434D01*
X171350113Y-61628960D01*
X171147420Y-61628960D01*
X171012899Y-61494439D01*
X171025811Y-61485811D01*
X171076336Y-61410195D01*
X171094078Y-61321000D01*
X171094078Y-59771000D01*
X171076336Y-59681805D01*
X171025811Y-59606189D01*
X170950195Y-59555664D01*
X170861000Y-59537922D01*
X170513648Y-59537922D01*
X170691770Y-59359800D01*
X173197986Y-59359800D01*
X173228000Y-59365770D01*
X173258014Y-59359800D01*
X173258018Y-59359800D01*
X173346927Y-59342115D01*
X173447748Y-59274748D01*
X173464752Y-59249300D01*
X174146452Y-58567600D01*
X174349145Y-58567600D01*
X174543428Y-58487126D01*
X174692126Y-58338428D01*
X174772600Y-58144145D01*
X174772600Y-57933855D01*
X174749532Y-57878163D01*
X187678784Y-57878163D01*
X188224700Y-58424079D01*
X188770616Y-57878163D01*
X188684078Y-57784507D01*
X188390611Y-57660130D01*
X188071884Y-57657526D01*
X187776423Y-57777090D01*
X187765322Y-57784507D01*
X187678784Y-57878163D01*
X174749532Y-57878163D01*
X174692126Y-57739572D01*
X174543428Y-57590874D01*
X174543235Y-57590794D01*
X189911270Y-57590794D01*
X189940253Y-57695304D01*
X190078594Y-57920185D01*
X190292463Y-58075007D01*
X190549300Y-58136200D01*
X190899300Y-58136200D01*
X190899300Y-57485400D01*
X190950100Y-57485400D01*
X190950100Y-58136200D01*
X191300100Y-58136200D01*
X191556937Y-58075007D01*
X191770806Y-57920185D01*
X191909147Y-57695304D01*
X191938130Y-57590794D01*
X191931359Y-57485400D01*
X190950100Y-57485400D01*
X190899300Y-57485400D01*
X189918041Y-57485400D01*
X189911270Y-57590794D01*
X174543235Y-57590794D01*
X174349145Y-57510400D01*
X174138855Y-57510400D01*
X173944572Y-57590874D01*
X173799500Y-57735946D01*
X173696753Y-57633199D01*
X173781428Y-57598126D01*
X173930126Y-57449428D01*
X173979923Y-57329206D01*
X189911270Y-57329206D01*
X189918041Y-57434600D01*
X190899300Y-57434600D01*
X190899300Y-56783800D01*
X190950100Y-56783800D01*
X190950100Y-57434600D01*
X191931359Y-57434600D01*
X191938130Y-57329206D01*
X191909147Y-57224696D01*
X191770806Y-56999815D01*
X191556937Y-56844993D01*
X191300100Y-56783800D01*
X190950100Y-56783800D01*
X190899300Y-56783800D01*
X190549300Y-56783800D01*
X190292463Y-56844993D01*
X190078594Y-56999815D01*
X189940253Y-57224696D01*
X189911270Y-57329206D01*
X173979923Y-57329206D01*
X174010600Y-57255145D01*
X174010600Y-57044855D01*
X173930126Y-56850572D01*
X173781428Y-56701874D01*
X173587145Y-56621400D01*
X173376855Y-56621400D01*
X173182572Y-56701874D01*
X173033874Y-56850572D01*
X172974000Y-56995122D01*
X172914126Y-56850572D01*
X172765428Y-56701874D01*
X172571145Y-56621400D01*
X172368452Y-56621400D01*
X172355151Y-56608099D01*
X172338147Y-56582651D01*
X172237326Y-56515284D01*
X172148417Y-56497599D01*
X172148413Y-56497599D01*
X172118399Y-56491629D01*
X172088385Y-56497599D01*
X169752349Y-56497599D01*
X169722336Y-56491629D01*
X169692323Y-56497599D01*
X169692319Y-56497599D01*
X169603410Y-56515284D01*
X169502589Y-56582651D01*
X169485585Y-56608099D01*
X167928144Y-58165540D01*
X167928144Y-58161574D01*
X167832445Y-57930537D01*
X167655617Y-57753709D01*
X167424580Y-57658010D01*
X167174508Y-57658010D01*
X166943471Y-57753709D01*
X166922933Y-57774247D01*
X166866000Y-57762922D01*
X165366000Y-57762922D01*
X165276805Y-57780664D01*
X165201600Y-57830914D01*
X165201600Y-57144894D01*
X165572296Y-56774199D01*
X166236922Y-56774199D01*
X166236922Y-57348000D01*
X166254664Y-57437195D01*
X166305189Y-57512811D01*
X166380805Y-57563336D01*
X166470000Y-57581078D01*
X167045000Y-57581078D01*
X167134195Y-57563336D01*
X167209811Y-57512811D01*
X167213643Y-57507076D01*
X167382455Y-57577000D01*
X167592745Y-57577000D01*
X167787028Y-57496526D01*
X167935726Y-57347828D01*
X168016200Y-57153545D01*
X168016200Y-56943255D01*
X167935726Y-56748972D01*
X167787028Y-56600274D01*
X167592745Y-56519800D01*
X167382455Y-56519800D01*
X167240228Y-56578712D01*
X167209811Y-56533189D01*
X167134195Y-56482664D01*
X167113204Y-56478489D01*
X167120065Y-56443999D01*
X167113100Y-56408984D01*
X167113100Y-56408980D01*
X167092467Y-56305252D01*
X167013872Y-56187627D01*
X166998647Y-56177454D01*
X166988472Y-56162226D01*
X166870847Y-56083632D01*
X166767119Y-56062999D01*
X166732099Y-56056033D01*
X166697079Y-56062999D01*
X165729801Y-56062999D01*
X165729801Y-55360153D01*
X166631362Y-55360153D01*
X166631362Y-55610225D01*
X166727061Y-55841262D01*
X166903889Y-56018090D01*
X167134926Y-56113789D01*
X167384998Y-56113789D01*
X167616035Y-56018090D01*
X167792863Y-55841262D01*
X167814101Y-55789989D01*
X169909797Y-55789989D01*
X169939811Y-55795959D01*
X169969825Y-55789989D01*
X169969829Y-55789989D01*
X170058738Y-55772304D01*
X170159559Y-55704937D01*
X170176563Y-55679489D01*
X170258974Y-55597078D01*
X171061000Y-55597078D01*
X171150195Y-55579336D01*
X171225811Y-55528811D01*
X171276336Y-55453195D01*
X171294078Y-55364000D01*
X171294078Y-54364000D01*
X171276336Y-54274805D01*
X171225811Y-54199189D01*
X171150195Y-54148664D01*
X171061000Y-54130922D01*
X170061000Y-54130922D01*
X169971805Y-54148664D01*
X169896189Y-54199189D01*
X169845664Y-54274805D01*
X169827922Y-54364000D01*
X169827922Y-55166026D01*
X169813559Y-55180389D01*
X167814101Y-55180389D01*
X167792863Y-55129116D01*
X167616035Y-54952288D01*
X167384998Y-54856589D01*
X167134926Y-54856589D01*
X166903889Y-54952288D01*
X166727061Y-55129116D01*
X166631362Y-55360153D01*
X165729801Y-55360153D01*
X165729801Y-55284415D01*
X165735771Y-55254401D01*
X165729801Y-55224384D01*
X165729801Y-55224383D01*
X165712116Y-55135474D01*
X165707868Y-55129116D01*
X165661753Y-55060100D01*
X165661751Y-55060098D01*
X165644749Y-55034653D01*
X165619304Y-55017651D01*
X165485828Y-54884175D01*
X165513611Y-54865611D01*
X165564136Y-54789995D01*
X165581878Y-54700800D01*
X165581878Y-54125800D01*
X165564136Y-54036605D01*
X165556916Y-54025800D01*
X165564136Y-54014995D01*
X165581878Y-53925800D01*
X165581878Y-53350800D01*
X165564136Y-53261605D01*
X165513611Y-53185989D01*
X165437995Y-53135464D01*
X165404800Y-53128861D01*
X165404800Y-53109103D01*
X165520849Y-53086019D01*
X165877627Y-52847627D01*
X166116019Y-52490849D01*
X166199731Y-52070000D01*
X166116019Y-51649151D01*
X165877627Y-51292373D01*
X165632524Y-51128600D01*
X167107476Y-51128600D01*
X166862373Y-51292373D01*
X166862373Y-51292373D01*
G37*
X166862373Y-51292373D02*
X166623981Y-51649151D01*
X166540269Y-52070000D01*
X166623981Y-52490849D01*
X166862373Y-52847627D01*
X167219151Y-53086019D01*
X167533767Y-53148600D01*
X167746233Y-53148600D01*
X168060849Y-53086019D01*
X168417627Y-52847627D01*
X168656019Y-52490849D01*
X168739731Y-52070000D01*
X168656019Y-51649151D01*
X168417627Y-51292373D01*
X168172524Y-51128600D01*
X169647476Y-51128600D01*
X169402373Y-51292373D01*
X169163981Y-51649151D01*
X169080269Y-52070000D01*
X169163981Y-52490849D01*
X169402373Y-52847627D01*
X169759151Y-53086019D01*
X170073767Y-53148600D01*
X170286233Y-53148600D01*
X170600849Y-53086019D01*
X170957627Y-52847627D01*
X171196019Y-52490849D01*
X171279731Y-52070000D01*
X171196019Y-51649151D01*
X170957627Y-51292373D01*
X170712524Y-51128600D01*
X172187476Y-51128600D01*
X171942373Y-51292373D01*
X171703981Y-51649151D01*
X171620269Y-52070000D01*
X171703981Y-52490849D01*
X171942373Y-52847627D01*
X172299151Y-53086019D01*
X172613767Y-53148600D01*
X172826233Y-53148600D01*
X173140849Y-53086019D01*
X173239230Y-53020282D01*
X173264846Y-53045898D01*
X173225805Y-53053664D01*
X173150189Y-53104189D01*
X173099664Y-53179805D01*
X173081922Y-53269000D01*
X173081922Y-53919000D01*
X173099664Y-54008195D01*
X173150189Y-54083811D01*
X173225805Y-54134336D01*
X173315000Y-54152078D01*
X173890000Y-54152078D01*
X173979195Y-54134336D01*
X173990000Y-54127116D01*
X174000805Y-54134336D01*
X174071000Y-54148299D01*
X174071000Y-54232545D01*
X174151474Y-54426828D01*
X174300172Y-54575526D01*
X174494455Y-54656000D01*
X174704745Y-54656000D01*
X174899028Y-54575526D01*
X175047726Y-54426828D01*
X175128200Y-54232545D01*
X175128200Y-54022255D01*
X175113758Y-53987387D01*
X189923800Y-53987387D01*
X189923800Y-54216613D01*
X190011522Y-54428391D01*
X190173609Y-54590478D01*
X190385387Y-54678200D01*
X190614613Y-54678200D01*
X190826391Y-54590478D01*
X190988478Y-54428391D01*
X191076200Y-54216613D01*
X191076200Y-53987387D01*
X190988478Y-53775609D01*
X190826391Y-53613522D01*
X190614613Y-53525800D01*
X190385387Y-53525800D01*
X190173609Y-53613522D01*
X190011522Y-53775609D01*
X189923800Y-53987387D01*
X175113758Y-53987387D01*
X175047726Y-53827972D01*
X174899028Y-53679274D01*
X174898078Y-53678881D01*
X174898078Y-53269000D01*
X174880336Y-53179805D01*
X174829811Y-53104189D01*
X174754195Y-53053664D01*
X174665000Y-53035922D01*
X174090000Y-53035922D01*
X174000805Y-53053664D01*
X173990000Y-53060884D01*
X173979195Y-53053664D01*
X173907300Y-53039363D01*
X173907300Y-52982512D01*
X173913270Y-52952499D01*
X173907300Y-52922486D01*
X173907300Y-52922482D01*
X173889615Y-52833573D01*
X173822248Y-52732752D01*
X173796801Y-52715749D01*
X173670282Y-52589230D01*
X173736019Y-52490849D01*
X173819731Y-52070000D01*
X173736019Y-51649151D01*
X173497627Y-51292373D01*
X173252524Y-51128600D01*
X174727476Y-51128600D01*
X174482373Y-51292373D01*
X174243981Y-51649151D01*
X174160269Y-52070000D01*
X174243981Y-52490849D01*
X174482373Y-52847627D01*
X174839151Y-53086019D01*
X175153767Y-53148600D01*
X175366233Y-53148600D01*
X175680849Y-53086019D01*
X176037627Y-52847627D01*
X176276019Y-52490849D01*
X176359731Y-52070000D01*
X176276019Y-51649151D01*
X176037627Y-51292373D01*
X175792524Y-51128600D01*
X177267476Y-51128600D01*
X177022373Y-51292373D01*
X176783981Y-51649151D01*
X176700269Y-52070000D01*
X176783981Y-52490849D01*
X177022373Y-52847627D01*
X177379151Y-53086019D01*
X177693767Y-53148600D01*
X177906233Y-53148600D01*
X178220849Y-53086019D01*
X178577627Y-52847627D01*
X178816019Y-52490849D01*
X178899731Y-52070000D01*
X178816019Y-51649151D01*
X178577627Y-51292373D01*
X178332524Y-51128600D01*
X179807476Y-51128600D01*
X179562373Y-51292373D01*
X179323981Y-51649151D01*
X179240269Y-52070000D01*
X179323981Y-52490849D01*
X179562373Y-52847627D01*
X179919151Y-53086019D01*
X180233767Y-53148600D01*
X180446233Y-53148600D01*
X180760849Y-53086019D01*
X181117627Y-52847627D01*
X181356019Y-52490849D01*
X181405931Y-52239923D01*
X181969517Y-52239923D01*
X182103850Y-52575415D01*
X182356345Y-52833962D01*
X182688561Y-52976203D01*
X182710078Y-52980480D01*
X182854600Y-52976794D01*
X182854600Y-52095400D01*
X182905400Y-52095400D01*
X182905400Y-52976794D01*
X183049922Y-52980480D01*
X183071439Y-52976203D01*
X183403655Y-52833962D01*
X183656150Y-52575415D01*
X183790483Y-52239923D01*
X184509517Y-52239923D01*
X184643850Y-52575415D01*
X184896345Y-52833962D01*
X185228561Y-52976203D01*
X185250078Y-52980480D01*
X185394600Y-52976794D01*
X185394600Y-52095400D01*
X185445400Y-52095400D01*
X185445400Y-52976794D01*
X185589922Y-52980480D01*
X185611439Y-52976203D01*
X185943655Y-52833962D01*
X186196150Y-52575415D01*
X186330483Y-52239923D01*
X186326805Y-52095400D01*
X185445400Y-52095400D01*
X185394600Y-52095400D01*
X184513195Y-52095400D01*
X184509517Y-52239923D01*
X183790483Y-52239923D01*
X183786805Y-52095400D01*
X182905400Y-52095400D01*
X182854600Y-52095400D01*
X181973195Y-52095400D01*
X181969517Y-52239923D01*
X181405931Y-52239923D01*
X181439731Y-52070000D01*
X181405932Y-51900077D01*
X181969517Y-51900077D01*
X181973195Y-52044600D01*
X182854600Y-52044600D01*
X182854600Y-51163206D01*
X182905400Y-51163206D01*
X182905400Y-52044600D01*
X183786805Y-52044600D01*
X183790483Y-51900077D01*
X184509517Y-51900077D01*
X184513195Y-52044600D01*
X185394600Y-52044600D01*
X185394600Y-51163206D01*
X185445400Y-51163206D01*
X185445400Y-52044600D01*
X186326805Y-52044600D01*
X186330483Y-51900077D01*
X186196150Y-51564585D01*
X185943655Y-51306038D01*
X185611439Y-51163797D01*
X185589922Y-51159520D01*
X185445400Y-51163206D01*
X185394600Y-51163206D01*
X185250078Y-51159520D01*
X185228561Y-51163797D01*
X184896345Y-51306038D01*
X184643850Y-51564585D01*
X184509517Y-51900077D01*
X183790483Y-51900077D01*
X183656150Y-51564585D01*
X183403655Y-51306038D01*
X183071439Y-51163797D01*
X183049922Y-51159520D01*
X182905400Y-51163206D01*
X182854600Y-51163206D01*
X182710078Y-51159520D01*
X182688561Y-51163797D01*
X182356345Y-51306038D01*
X182103850Y-51564585D01*
X181969517Y-51900077D01*
X181405932Y-51900077D01*
X181356019Y-51649151D01*
X181117627Y-51292373D01*
X180872524Y-51128600D01*
X187427476Y-51128600D01*
X187182373Y-51292373D01*
X186943981Y-51649151D01*
X186860269Y-52070000D01*
X186943981Y-52490849D01*
X187182373Y-52847627D01*
X187539151Y-53086019D01*
X187853767Y-53148600D01*
X188066233Y-53148600D01*
X188380849Y-53086019D01*
X188737627Y-52847627D01*
X188976019Y-52490849D01*
X189059731Y-52070000D01*
X188976019Y-51649151D01*
X188737627Y-51292373D01*
X188492524Y-51128600D01*
X189436137Y-51128600D01*
X189434664Y-51130805D01*
X189416922Y-51220000D01*
X189416922Y-52920000D01*
X189434664Y-53009195D01*
X189485189Y-53084811D01*
X189560805Y-53135336D01*
X189650000Y-53153078D01*
X191350000Y-53153078D01*
X191439195Y-53135336D01*
X191514811Y-53084811D01*
X191565336Y-53009195D01*
X191583078Y-52920000D01*
X191583078Y-51220000D01*
X191565336Y-51130805D01*
X191563863Y-51128600D01*
X192076401Y-51128600D01*
X192076400Y-70791400D01*
X191563863Y-70791400D01*
X191565336Y-70789195D01*
X191583078Y-70700000D01*
X191583078Y-69000000D01*
X191565336Y-68910805D01*
X191514811Y-68835189D01*
X191439195Y-68784664D01*
X191350000Y-68766922D01*
X189650000Y-68766922D01*
X189560805Y-68784664D01*
X189485189Y-68835189D01*
X189434664Y-68910805D01*
X189416922Y-69000000D01*
X189416922Y-70700000D01*
X189434664Y-70789195D01*
X189436137Y-70791400D01*
X188492524Y-70791400D01*
X188737627Y-70627627D01*
X188976019Y-70270849D01*
X189059731Y-69850000D01*
X188976019Y-69429151D01*
X188882800Y-69289639D01*
X188882800Y-67830387D01*
X189923800Y-67830387D01*
X189923800Y-68059613D01*
X190011522Y-68271391D01*
X190173609Y-68433478D01*
X190385387Y-68521200D01*
X190614613Y-68521200D01*
X190826391Y-68433478D01*
X190988478Y-68271391D01*
X191076200Y-68059613D01*
X191076200Y-67830387D01*
X190988478Y-67618609D01*
X190826391Y-67456522D01*
X190614613Y-67368800D01*
X190385387Y-67368800D01*
X190173609Y-67456522D01*
X190011522Y-67618609D01*
X189923800Y-67830387D01*
X188882800Y-67830387D01*
X188882800Y-67308491D01*
X188914536Y-67260995D01*
X188932278Y-67171800D01*
X188932278Y-65771800D01*
X188914536Y-65682605D01*
X188864011Y-65606989D01*
X188788395Y-65556464D01*
X188699200Y-65538722D01*
X188307437Y-65538722D01*
X187359509Y-64590794D01*
X189911270Y-64590794D01*
X189940253Y-64695304D01*
X190078594Y-64920185D01*
X190292463Y-65075007D01*
X190549300Y-65136200D01*
X190899300Y-65136200D01*
X190899300Y-64485400D01*
X190950100Y-64485400D01*
X190950100Y-65136200D01*
X191300100Y-65136200D01*
X191556937Y-65075007D01*
X191770806Y-64920185D01*
X191909147Y-64695304D01*
X191938130Y-64590794D01*
X191931359Y-64485400D01*
X190950100Y-64485400D01*
X190899300Y-64485400D01*
X189918041Y-64485400D01*
X189911270Y-64590794D01*
X187359509Y-64590794D01*
X187097921Y-64329206D01*
X189911270Y-64329206D01*
X189918041Y-64434600D01*
X190899300Y-64434600D01*
X190899300Y-63783800D01*
X190950100Y-63783800D01*
X190950100Y-64434600D01*
X191931359Y-64434600D01*
X191938130Y-64329206D01*
X191909147Y-64224696D01*
X191770806Y-63999815D01*
X191556937Y-63844993D01*
X191300100Y-63783800D01*
X190950100Y-63783800D01*
X190899300Y-63783800D01*
X190549300Y-63783800D01*
X190292463Y-63844993D01*
X190078594Y-63999815D01*
X189940253Y-64224696D01*
X189911270Y-64329206D01*
X187097921Y-64329206D01*
X186810551Y-64041837D01*
X187678784Y-64041837D01*
X187765322Y-64135493D01*
X188058789Y-64259870D01*
X188377516Y-64262474D01*
X188672977Y-64142910D01*
X188684078Y-64135493D01*
X188770616Y-64041837D01*
X188224700Y-63495921D01*
X187678784Y-64041837D01*
X186810551Y-64041837D01*
X186635602Y-63866889D01*
X186587420Y-63794780D01*
X186315094Y-63612816D01*
X187422226Y-63612816D01*
X187541790Y-63908277D01*
X187549207Y-63919378D01*
X187642863Y-64005916D01*
X188188779Y-63460000D01*
X188260621Y-63460000D01*
X188806537Y-64005916D01*
X188900193Y-63919378D01*
X189024570Y-63625911D01*
X189027174Y-63307184D01*
X188907610Y-63011723D01*
X188900193Y-63000622D01*
X188806537Y-62914084D01*
X188260621Y-63460000D01*
X188188779Y-63460000D01*
X187642863Y-62914084D01*
X187549207Y-63000622D01*
X187424830Y-63294089D01*
X187422226Y-63612816D01*
X186315094Y-63612816D01*
X186301760Y-63603907D01*
X186049853Y-63553800D01*
X186049849Y-63553800D01*
X185964800Y-63536883D01*
X185879751Y-63553800D01*
X185385747Y-63553800D01*
X185133840Y-63603907D01*
X185088321Y-63634322D01*
X184920800Y-63634322D01*
X184831605Y-63652064D01*
X184755989Y-63702589D01*
X184705464Y-63778205D01*
X184687722Y-63867400D01*
X184687722Y-63923902D01*
X184606903Y-63977903D01*
X184572892Y-64028804D01*
X184241083Y-64360613D01*
X184135194Y-62878163D01*
X187678784Y-62878163D01*
X188224700Y-63424079D01*
X188770616Y-62878163D01*
X188684078Y-62784507D01*
X188390611Y-62660130D01*
X188071884Y-62657526D01*
X187776423Y-62777090D01*
X187765322Y-62784507D01*
X187678784Y-62878163D01*
X184135194Y-62878163D01*
X184124019Y-62721713D01*
X184107199Y-62650519D01*
X184057645Y-62576355D01*
X183983481Y-62526801D01*
X183896000Y-62509400D01*
X181838600Y-62509400D01*
X181838600Y-60706000D01*
X181821199Y-60618519D01*
X181771645Y-60544355D01*
X181697481Y-60494801D01*
X181610000Y-60477400D01*
X180060600Y-60477400D01*
X180060600Y-59182000D01*
X184023000Y-59182000D01*
X184023000Y-62357000D01*
X184040401Y-62444481D01*
X184089955Y-62518645D01*
X184164119Y-62568199D01*
X184251600Y-62585600D01*
X186791600Y-62585600D01*
X186879081Y-62568199D01*
X186953245Y-62518645D01*
X187002799Y-62444481D01*
X187020200Y-62357000D01*
X187020200Y-59182000D01*
X187002799Y-59094519D01*
X186967599Y-59041837D01*
X187678784Y-59041837D01*
X187765322Y-59135493D01*
X188058789Y-59259870D01*
X188377516Y-59262474D01*
X188672977Y-59142910D01*
X188684078Y-59135493D01*
X188770616Y-59041837D01*
X188224700Y-58495921D01*
X187678784Y-59041837D01*
X186967599Y-59041837D01*
X186953245Y-59020355D01*
X186879081Y-58970801D01*
X186791600Y-58953400D01*
X184251600Y-58953400D01*
X184164119Y-58970801D01*
X184089955Y-59020355D01*
X184040401Y-59094519D01*
X184023000Y-59182000D01*
X180060600Y-59182000D01*
X180060600Y-58612816D01*
X187422226Y-58612816D01*
X187541790Y-58908277D01*
X187549207Y-58919378D01*
X187642863Y-59005916D01*
X188188779Y-58460000D01*
X188260621Y-58460000D01*
X188806537Y-59005916D01*
X188900193Y-58919378D01*
X189024570Y-58625911D01*
X189027174Y-58307184D01*
X188907610Y-58011723D01*
X188900193Y-58000622D01*
X188806537Y-57914084D01*
X188260621Y-58460000D01*
X188188779Y-58460000D01*
X187642863Y-57914084D01*
X187549207Y-58000622D01*
X187424830Y-58294089D01*
X187422226Y-58612816D01*
X180060600Y-58612816D01*
X180060600Y-58547000D01*
X180043199Y-58459519D01*
X179993645Y-58385355D01*
X179919481Y-58335801D01*
X179832000Y-58318400D01*
X175260000Y-58318400D01*
X175172519Y-58335801D01*
X175098355Y-58385355D01*
X175048801Y-58459519D01*
X175031400Y-58547000D01*
X175031400Y-67310000D01*
X175048801Y-67397481D01*
X175098355Y-67471645D01*
X175172519Y-67521199D01*
X175260000Y-67538600D01*
X181610000Y-67538600D01*
X181697481Y-67521199D01*
X181771645Y-67471645D01*
X181807437Y-67418078D01*
X183778800Y-67418078D01*
X183867995Y-67400336D01*
X183943611Y-67349811D01*
X183994136Y-67274195D01*
X184011878Y-67185000D01*
X184011878Y-66314025D01*
X185110564Y-65215340D01*
X185133840Y-65230893D01*
X185385747Y-65281000D01*
X185607087Y-65281000D01*
X187106122Y-66780037D01*
X187106122Y-67171800D01*
X187123864Y-67260995D01*
X187155600Y-67308492D01*
X187155601Y-69112440D01*
X186943981Y-69429151D01*
X186860269Y-69850000D01*
X186943981Y-70270849D01*
X187182373Y-70627627D01*
X187427476Y-70791400D01*
X183412524Y-70791400D01*
X183657627Y-70627627D01*
X183896019Y-70270849D01*
X183945931Y-70019923D01*
X184509517Y-70019923D01*
X184643850Y-70355415D01*
X184896345Y-70613962D01*
X185228561Y-70756203D01*
X185250078Y-70760480D01*
X185394600Y-70756794D01*
X185394600Y-69875400D01*
X185445400Y-69875400D01*
X185445400Y-70756794D01*
X185589922Y-70760480D01*
X185611439Y-70756203D01*
X185943655Y-70613962D01*
X186196150Y-70355415D01*
X186330483Y-70019923D01*
X186326805Y-69875400D01*
X185445400Y-69875400D01*
X185394600Y-69875400D01*
X184513195Y-69875400D01*
X184509517Y-70019923D01*
X183945931Y-70019923D01*
X183979731Y-69850000D01*
X183945932Y-69680077D01*
X184509517Y-69680077D01*
X184513195Y-69824600D01*
X185394600Y-69824600D01*
X185394600Y-68943206D01*
X185445400Y-68943206D01*
X185445400Y-69824600D01*
X186326805Y-69824600D01*
X186330483Y-69680077D01*
X186196150Y-69344585D01*
X185943655Y-69086038D01*
X185611439Y-68943797D01*
X185589922Y-68939520D01*
X185445400Y-68943206D01*
X185394600Y-68943206D01*
X185250078Y-68939520D01*
X185228561Y-68943797D01*
X184896345Y-69086038D01*
X184643850Y-69344585D01*
X184509517Y-69680077D01*
X183945932Y-69680077D01*
X183896019Y-69429151D01*
X183657627Y-69072373D01*
X183300849Y-68833981D01*
X182986233Y-68771400D01*
X182773767Y-68771400D01*
X182459151Y-68833981D01*
X182102373Y-69072373D01*
X181863981Y-69429151D01*
X181780269Y-69850000D01*
X181863981Y-70270849D01*
X182102373Y-70627627D01*
X182347476Y-70791400D01*
X178332524Y-70791400D01*
X178577627Y-70627627D01*
X178816019Y-70270849D01*
X178865931Y-70019923D01*
X179429517Y-70019923D01*
X179563850Y-70355415D01*
X179816345Y-70613962D01*
X180148561Y-70756203D01*
X180170078Y-70760480D01*
X180314600Y-70756794D01*
X180314600Y-69875400D01*
X180365400Y-69875400D01*
X180365400Y-70756794D01*
X180509922Y-70760480D01*
X180531439Y-70756203D01*
X180863655Y-70613962D01*
X181116150Y-70355415D01*
X181250483Y-70019923D01*
X181246805Y-69875400D01*
X180365400Y-69875400D01*
X180314600Y-69875400D01*
X179433195Y-69875400D01*
X179429517Y-70019923D01*
X178865931Y-70019923D01*
X178899731Y-69850000D01*
X178865932Y-69680077D01*
X179429517Y-69680077D01*
X179433195Y-69824600D01*
X180314600Y-69824600D01*
X180314600Y-68943206D01*
X180365400Y-68943206D01*
X180365400Y-69824600D01*
X181246805Y-69824600D01*
X181250483Y-69680077D01*
X181116150Y-69344585D01*
X180863655Y-69086038D01*
X180531439Y-68943797D01*
X180509922Y-68939520D01*
X180365400Y-68943206D01*
X180314600Y-68943206D01*
X180170078Y-68939520D01*
X180148561Y-68943797D01*
X179816345Y-69086038D01*
X179563850Y-69344585D01*
X179429517Y-69680077D01*
X178865932Y-69680077D01*
X178816019Y-69429151D01*
X178577627Y-69072373D01*
X178220849Y-68833981D01*
X177906233Y-68771400D01*
X177693767Y-68771400D01*
X177379151Y-68833981D01*
X177280770Y-68899718D01*
X176639751Y-68258699D01*
X176622748Y-68233252D01*
X176521927Y-68165885D01*
X176433018Y-68148200D01*
X176433014Y-68148200D01*
X176403000Y-68142230D01*
X176372986Y-68148200D01*
X171707770Y-68148200D01*
X168833800Y-65274230D01*
X168833800Y-62999358D01*
X168839770Y-62969345D01*
X168833800Y-62939332D01*
X168833800Y-62939328D01*
X168816115Y-62850419D01*
X168748748Y-62749598D01*
X168723300Y-62732594D01*
X168047016Y-62056310D01*
X168030012Y-62030862D01*
X167929191Y-61963495D01*
X167840282Y-61945810D01*
X167840278Y-61945810D01*
X167825893Y-61942949D01*
X167685428Y-61802484D01*
X167613764Y-61772800D01*
X168122505Y-61772800D01*
X168152519Y-61778770D01*
X168182533Y-61772800D01*
X168182537Y-61772800D01*
X168271446Y-61755115D01*
X168372267Y-61687748D01*
X168389271Y-61662300D01*
X170027922Y-60023648D01*
X170027922Y-61321000D01*
X170045664Y-61410195D01*
X170096189Y-61485811D01*
X170171805Y-61536336D01*
X170261000Y-61554078D01*
X170266239Y-61554078D01*
X170273885Y-61592518D01*
X170324248Y-61667892D01*
X170324251Y-61667895D01*
X170341253Y-61693340D01*
X170355260Y-61702699D01*
X170193031Y-61769896D01*
X170044333Y-61918594D01*
X169963859Y-62112877D01*
X169963859Y-62323167D01*
X170044333Y-62517450D01*
X170193031Y-62666148D01*
X170387314Y-62746622D01*
X170590007Y-62746622D01*
X170937728Y-63094343D01*
X170794972Y-63153474D01*
X170646274Y-63302172D01*
X170565800Y-63496455D01*
X170565800Y-63706745D01*
X170646274Y-63901028D01*
X170791346Y-64046100D01*
X170747874Y-64089572D01*
X170667400Y-64283855D01*
X170667400Y-64494145D01*
X170747874Y-64688428D01*
X170896572Y-64837126D01*
X171090855Y-64917600D01*
X171293548Y-64917600D01*
X171375749Y-64999801D01*
X171366189Y-65006189D01*
X171315664Y-65081805D01*
X171297922Y-65171000D01*
X171297922Y-66721000D01*
X171315664Y-66810195D01*
X171366189Y-66885811D01*
X171441805Y-66936336D01*
X171531000Y-66954078D01*
X172131000Y-66954078D01*
X172220195Y-66936336D01*
X172295811Y-66885811D01*
X172346336Y-66810195D01*
X172364078Y-66721000D01*
X172364078Y-65171000D01*
X172346336Y-65081805D01*
X172295811Y-65006189D01*
X172220195Y-64955664D01*
X172131000Y-64937922D01*
X172124649Y-64937922D01*
X172118115Y-64905073D01*
X172050748Y-64804252D01*
X172025301Y-64787249D01*
X171724600Y-64486548D01*
X171724600Y-64283855D01*
X171644126Y-64089572D01*
X171499054Y-63944500D01*
X171542526Y-63901028D01*
X171601657Y-63758272D01*
X172784574Y-64941189D01*
X172711805Y-64955664D01*
X172636189Y-65006189D01*
X172585664Y-65081805D01*
X172567922Y-65171000D01*
X172567922Y-66721000D01*
X172585664Y-66810195D01*
X172636189Y-66885811D01*
X172711805Y-66936336D01*
X172801000Y-66954078D01*
X173401000Y-66954078D01*
X173490195Y-66936336D01*
X173565811Y-66885811D01*
X173616336Y-66810195D01*
X173634078Y-66721000D01*
X173634078Y-65171000D01*
X173616336Y-65081805D01*
X173565811Y-65006189D01*
X173490195Y-64955664D01*
X173405800Y-64938877D01*
X173405800Y-64876985D01*
X173503855Y-64917600D01*
X173706548Y-64917600D01*
X173861708Y-65072760D01*
X173855664Y-65081805D01*
X173837922Y-65171000D01*
X173837922Y-66721000D01*
X173855664Y-66810195D01*
X173906189Y-66885811D01*
X173981805Y-66936336D01*
X174071000Y-66954078D01*
X174671000Y-66954078D01*
X174760195Y-66936336D01*
X174835811Y-66885811D01*
X174886336Y-66810195D01*
X174904078Y-66721000D01*
X174904078Y-65171000D01*
X174886336Y-65081805D01*
X174835811Y-65006189D01*
X174760195Y-64955664D01*
X174671000Y-64937922D01*
X174595205Y-64937922D01*
X174590748Y-64931252D01*
X174565304Y-64914251D01*
X174137600Y-64486548D01*
X174137600Y-64283855D01*
X174057126Y-64089572D01*
X173908428Y-63940874D01*
X173714145Y-63860400D01*
X173503855Y-63860400D01*
X173309572Y-63940874D01*
X173160874Y-64089572D01*
X173080400Y-64283855D01*
X173080400Y-64374911D01*
X171839598Y-63134109D01*
X171852855Y-63139600D01*
X172063145Y-63139600D01*
X172257428Y-63059126D01*
X172406126Y-62910428D01*
X172486600Y-62716145D01*
X172486600Y-62505855D01*
X172406126Y-62311572D01*
X172262800Y-62168246D01*
X172262800Y-61507868D01*
X172295811Y-61485811D01*
X172346336Y-61410195D01*
X172364078Y-61321000D01*
X172364078Y-59771000D01*
X172567922Y-59771000D01*
X172567922Y-61321000D01*
X172585664Y-61410195D01*
X172636189Y-61485811D01*
X172711805Y-61536336D01*
X172801000Y-61554078D01*
X173137026Y-61554078D01*
X173207400Y-61624452D01*
X173207400Y-61827145D01*
X173287874Y-62021428D01*
X173436572Y-62170126D01*
X173630855Y-62250600D01*
X173841145Y-62250600D01*
X173918600Y-62218517D01*
X173918600Y-62284345D01*
X173999074Y-62478628D01*
X174147772Y-62627326D01*
X174342055Y-62707800D01*
X174552345Y-62707800D01*
X174746628Y-62627326D01*
X174895326Y-62478628D01*
X174975800Y-62284345D01*
X174975800Y-62074055D01*
X174895326Y-61879772D01*
X174802800Y-61787246D01*
X174802800Y-61507868D01*
X174835811Y-61485811D01*
X174886336Y-61410195D01*
X174904078Y-61321000D01*
X174904078Y-59771000D01*
X174886336Y-59681805D01*
X174835811Y-59606189D01*
X174760195Y-59555664D01*
X174671000Y-59537922D01*
X174071000Y-59537922D01*
X173981805Y-59555664D01*
X173906189Y-59606189D01*
X173855664Y-59681805D01*
X173837922Y-59771000D01*
X173837922Y-61193400D01*
X173638452Y-61193400D01*
X173634078Y-61189026D01*
X173634078Y-59771000D01*
X173616336Y-59681805D01*
X173565811Y-59606189D01*
X173490195Y-59555664D01*
X173401000Y-59537922D01*
X172801000Y-59537922D01*
X172711805Y-59555664D01*
X172636189Y-59606189D01*
X172585664Y-59681805D01*
X172567922Y-59771000D01*
X172364078Y-59771000D01*
X172346336Y-59681805D01*
X172295811Y-59606189D01*
X172220195Y-59555664D01*
X172131000Y-59537922D01*
X171531000Y-59537922D01*
X171441805Y-59555664D01*
X171366189Y-59606189D01*
X171315664Y-59681805D01*
X171297922Y-59771000D01*
X171297922Y-61321000D01*
X171315664Y-61410195D01*
X171366189Y-61485811D01*
X171441805Y-61536336D01*
X171531000Y-61554078D01*
X171653201Y-61554078D01*
X171653200Y-61818238D01*
X171544396Y-61709434D01*
X171350113Y-61628960D01*
X171147420Y-61628960D01*
X171012899Y-61494439D01*
X171025811Y-61485811D01*
X171076336Y-61410195D01*
X171094078Y-61321000D01*
X171094078Y-59771000D01*
X171076336Y-59681805D01*
X171025811Y-59606189D01*
X170950195Y-59555664D01*
X170861000Y-59537922D01*
X170513648Y-59537922D01*
X170691770Y-59359800D01*
X173197986Y-59359800D01*
X173228000Y-59365770D01*
X173258014Y-59359800D01*
X173258018Y-59359800D01*
X173346927Y-59342115D01*
X173447748Y-59274748D01*
X173464752Y-59249300D01*
X174146452Y-58567600D01*
X174349145Y-58567600D01*
X174543428Y-58487126D01*
X174692126Y-58338428D01*
X174772600Y-58144145D01*
X174772600Y-57933855D01*
X174749532Y-57878163D01*
X187678784Y-57878163D01*
X188224700Y-58424079D01*
X188770616Y-57878163D01*
X188684078Y-57784507D01*
X188390611Y-57660130D01*
X188071884Y-57657526D01*
X187776423Y-57777090D01*
X187765322Y-57784507D01*
X187678784Y-57878163D01*
X174749532Y-57878163D01*
X174692126Y-57739572D01*
X174543428Y-57590874D01*
X174543235Y-57590794D01*
X189911270Y-57590794D01*
X189940253Y-57695304D01*
X190078594Y-57920185D01*
X190292463Y-58075007D01*
X190549300Y-58136200D01*
X190899300Y-58136200D01*
X190899300Y-57485400D01*
X190950100Y-57485400D01*
X190950100Y-58136200D01*
X191300100Y-58136200D01*
X191556937Y-58075007D01*
X191770806Y-57920185D01*
X191909147Y-57695304D01*
X191938130Y-57590794D01*
X191931359Y-57485400D01*
X190950100Y-57485400D01*
X190899300Y-57485400D01*
X189918041Y-57485400D01*
X189911270Y-57590794D01*
X174543235Y-57590794D01*
X174349145Y-57510400D01*
X174138855Y-57510400D01*
X173944572Y-57590874D01*
X173799500Y-57735946D01*
X173696753Y-57633199D01*
X173781428Y-57598126D01*
X173930126Y-57449428D01*
X173979923Y-57329206D01*
X189911270Y-57329206D01*
X189918041Y-57434600D01*
X190899300Y-57434600D01*
X190899300Y-56783800D01*
X190950100Y-56783800D01*
X190950100Y-57434600D01*
X191931359Y-57434600D01*
X191938130Y-57329206D01*
X191909147Y-57224696D01*
X191770806Y-56999815D01*
X191556937Y-56844993D01*
X191300100Y-56783800D01*
X190950100Y-56783800D01*
X190899300Y-56783800D01*
X190549300Y-56783800D01*
X190292463Y-56844993D01*
X190078594Y-56999815D01*
X189940253Y-57224696D01*
X189911270Y-57329206D01*
X173979923Y-57329206D01*
X174010600Y-57255145D01*
X174010600Y-57044855D01*
X173930126Y-56850572D01*
X173781428Y-56701874D01*
X173587145Y-56621400D01*
X173376855Y-56621400D01*
X173182572Y-56701874D01*
X173033874Y-56850572D01*
X172974000Y-56995122D01*
X172914126Y-56850572D01*
X172765428Y-56701874D01*
X172571145Y-56621400D01*
X172368452Y-56621400D01*
X172355151Y-56608099D01*
X172338147Y-56582651D01*
X172237326Y-56515284D01*
X172148417Y-56497599D01*
X172148413Y-56497599D01*
X172118399Y-56491629D01*
X172088385Y-56497599D01*
X169752349Y-56497599D01*
X169722336Y-56491629D01*
X169692323Y-56497599D01*
X169692319Y-56497599D01*
X169603410Y-56515284D01*
X169502589Y-56582651D01*
X169485585Y-56608099D01*
X167928144Y-58165540D01*
X167928144Y-58161574D01*
X167832445Y-57930537D01*
X167655617Y-57753709D01*
X167424580Y-57658010D01*
X167174508Y-57658010D01*
X166943471Y-57753709D01*
X166922933Y-57774247D01*
X166866000Y-57762922D01*
X165366000Y-57762922D01*
X165276805Y-57780664D01*
X165201600Y-57830914D01*
X165201600Y-57144894D01*
X165572296Y-56774199D01*
X166236922Y-56774199D01*
X166236922Y-57348000D01*
X166254664Y-57437195D01*
X166305189Y-57512811D01*
X166380805Y-57563336D01*
X166470000Y-57581078D01*
X167045000Y-57581078D01*
X167134195Y-57563336D01*
X167209811Y-57512811D01*
X167213643Y-57507076D01*
X167382455Y-57577000D01*
X167592745Y-57577000D01*
X167787028Y-57496526D01*
X167935726Y-57347828D01*
X168016200Y-57153545D01*
X168016200Y-56943255D01*
X167935726Y-56748972D01*
X167787028Y-56600274D01*
X167592745Y-56519800D01*
X167382455Y-56519800D01*
X167240228Y-56578712D01*
X167209811Y-56533189D01*
X167134195Y-56482664D01*
X167113204Y-56478489D01*
X167120065Y-56443999D01*
X167113100Y-56408984D01*
X167113100Y-56408980D01*
X167092467Y-56305252D01*
X167013872Y-56187627D01*
X166998647Y-56177454D01*
X166988472Y-56162226D01*
X166870847Y-56083632D01*
X166767119Y-56062999D01*
X166732099Y-56056033D01*
X166697079Y-56062999D01*
X165729801Y-56062999D01*
X165729801Y-55360153D01*
X166631362Y-55360153D01*
X166631362Y-55610225D01*
X166727061Y-55841262D01*
X166903889Y-56018090D01*
X167134926Y-56113789D01*
X167384998Y-56113789D01*
X167616035Y-56018090D01*
X167792863Y-55841262D01*
X167814101Y-55789989D01*
X169909797Y-55789989D01*
X169939811Y-55795959D01*
X169969825Y-55789989D01*
X169969829Y-55789989D01*
X170058738Y-55772304D01*
X170159559Y-55704937D01*
X170176563Y-55679489D01*
X170258974Y-55597078D01*
X171061000Y-55597078D01*
X171150195Y-55579336D01*
X171225811Y-55528811D01*
X171276336Y-55453195D01*
X171294078Y-55364000D01*
X171294078Y-54364000D01*
X171276336Y-54274805D01*
X171225811Y-54199189D01*
X171150195Y-54148664D01*
X171061000Y-54130922D01*
X170061000Y-54130922D01*
X169971805Y-54148664D01*
X169896189Y-54199189D01*
X169845664Y-54274805D01*
X169827922Y-54364000D01*
X169827922Y-55166026D01*
X169813559Y-55180389D01*
X167814101Y-55180389D01*
X167792863Y-55129116D01*
X167616035Y-54952288D01*
X167384998Y-54856589D01*
X167134926Y-54856589D01*
X166903889Y-54952288D01*
X166727061Y-55129116D01*
X166631362Y-55360153D01*
X165729801Y-55360153D01*
X165729801Y-55284415D01*
X165735771Y-55254401D01*
X165729801Y-55224384D01*
X165729801Y-55224383D01*
X165712116Y-55135474D01*
X165707868Y-55129116D01*
X165661753Y-55060100D01*
X165661751Y-55060098D01*
X165644749Y-55034653D01*
X165619304Y-55017651D01*
X165485828Y-54884175D01*
X165513611Y-54865611D01*
X165564136Y-54789995D01*
X165581878Y-54700800D01*
X165581878Y-54125800D01*
X165564136Y-54036605D01*
X165556916Y-54025800D01*
X165564136Y-54014995D01*
X165581878Y-53925800D01*
X165581878Y-53350800D01*
X165564136Y-53261605D01*
X165513611Y-53185989D01*
X165437995Y-53135464D01*
X165404800Y-53128861D01*
X165404800Y-53109103D01*
X165520849Y-53086019D01*
X165877627Y-52847627D01*
X166116019Y-52490849D01*
X166199731Y-52070000D01*
X166116019Y-51649151D01*
X165877627Y-51292373D01*
X165632524Y-51128600D01*
X167107476Y-51128600D01*
X166862373Y-51292373D01*
G36*
X169053962Y-58182936D02*
X169230790Y-58359764D01*
X169461827Y-58455463D01*
X169556152Y-58455463D01*
X167754207Y-60257408D01*
X167683252Y-60186453D01*
X167488969Y-60105979D01*
X167278679Y-60105979D01*
X167084396Y-60186453D01*
X166935698Y-60335151D01*
X166855224Y-60529434D01*
X166855224Y-60739724D01*
X166904376Y-60858389D01*
X166857779Y-60858389D01*
X166749754Y-60813644D01*
X166539464Y-60813644D01*
X166345181Y-60894118D01*
X166196483Y-61042816D01*
X166116009Y-61237099D01*
X166116009Y-61447389D01*
X166196483Y-61641672D01*
X166295940Y-61741129D01*
X166197572Y-61781874D01*
X166048874Y-61930572D01*
X165968400Y-62124855D01*
X165968400Y-62335145D01*
X166048874Y-62529428D01*
X166197572Y-62678126D01*
X166391855Y-62758600D01*
X166602145Y-62758600D01*
X166796428Y-62678126D01*
X166933962Y-62540592D01*
X166937874Y-62550038D01*
X167072770Y-62684934D01*
X167064911Y-62692792D01*
X166984437Y-62887075D01*
X166984437Y-63097365D01*
X167064911Y-63291648D01*
X167208237Y-63434974D01*
X167208237Y-63446501D01*
X167208238Y-63446506D01*
X167208237Y-64510964D01*
X167203000Y-64509922D01*
X166553000Y-64509922D01*
X166471600Y-64526113D01*
X166471600Y-63763092D01*
X166478565Y-63728077D01*
X166471600Y-63693062D01*
X166471600Y-63693058D01*
X166450967Y-63589330D01*
X166372372Y-63471705D01*
X166342685Y-63451869D01*
X165757733Y-62866917D01*
X165737895Y-62837227D01*
X165620270Y-62758633D01*
X165516542Y-62738000D01*
X165481522Y-62731034D01*
X165446502Y-62738000D01*
X164526754Y-62738000D01*
X164434228Y-62645474D01*
X164356314Y-62613201D01*
X164364336Y-62601195D01*
X164382078Y-62512000D01*
X164382078Y-61152000D01*
X164364336Y-61062805D01*
X164313811Y-60987189D01*
X164238195Y-60936664D01*
X164149000Y-60918922D01*
X163930972Y-60918922D01*
X165072685Y-59777209D01*
X165102372Y-59757373D01*
X165180967Y-59639748D01*
X165201600Y-59536020D01*
X165201600Y-59536016D01*
X165208565Y-59501001D01*
X165201600Y-59465986D01*
X165201600Y-59131086D01*
X165276805Y-59181336D01*
X165366000Y-59199078D01*
X166866000Y-59199078D01*
X166955195Y-59181336D01*
X167030811Y-59130811D01*
X167081336Y-59055195D01*
X167099078Y-58966000D01*
X167099078Y-58883966D01*
X167172902Y-58914545D01*
X167166253Y-58918988D01*
X167149251Y-58944433D01*
X167149248Y-58944436D01*
X167098885Y-59019810D01*
X167094504Y-59041837D01*
X167081200Y-59108718D01*
X167081200Y-59108722D01*
X167078339Y-59123107D01*
X166937874Y-59263572D01*
X166857400Y-59457855D01*
X166857400Y-59668145D01*
X166937874Y-59862428D01*
X167086572Y-60011126D01*
X167280855Y-60091600D01*
X167491145Y-60091600D01*
X167685428Y-60011126D01*
X167834126Y-59862428D01*
X167914600Y-59668145D01*
X167914600Y-59457855D01*
X167834126Y-59263572D01*
X167763171Y-59192617D01*
X168971627Y-57984161D01*
X169053962Y-58182936D01*
X169053962Y-58182936D01*
G37*
X169053962Y-58182936D02*
X169230790Y-58359764D01*
X169461827Y-58455463D01*
X169556152Y-58455463D01*
X167754207Y-60257408D01*
X167683252Y-60186453D01*
X167488969Y-60105979D01*
X167278679Y-60105979D01*
X167084396Y-60186453D01*
X166935698Y-60335151D01*
X166855224Y-60529434D01*
X166855224Y-60739724D01*
X166904376Y-60858389D01*
X166857779Y-60858389D01*
X166749754Y-60813644D01*
X166539464Y-60813644D01*
X166345181Y-60894118D01*
X166196483Y-61042816D01*
X166116009Y-61237099D01*
X166116009Y-61447389D01*
X166196483Y-61641672D01*
X166295940Y-61741129D01*
X166197572Y-61781874D01*
X166048874Y-61930572D01*
X165968400Y-62124855D01*
X165968400Y-62335145D01*
X166048874Y-62529428D01*
X166197572Y-62678126D01*
X166391855Y-62758600D01*
X166602145Y-62758600D01*
X166796428Y-62678126D01*
X166933962Y-62540592D01*
X166937874Y-62550038D01*
X167072770Y-62684934D01*
X167064911Y-62692792D01*
X166984437Y-62887075D01*
X166984437Y-63097365D01*
X167064911Y-63291648D01*
X167208237Y-63434974D01*
X167208237Y-63446501D01*
X167208238Y-63446506D01*
X167208237Y-64510964D01*
X167203000Y-64509922D01*
X166553000Y-64509922D01*
X166471600Y-64526113D01*
X166471600Y-63763092D01*
X166478565Y-63728077D01*
X166471600Y-63693062D01*
X166471600Y-63693058D01*
X166450967Y-63589330D01*
X166372372Y-63471705D01*
X166342685Y-63451869D01*
X165757733Y-62866917D01*
X165737895Y-62837227D01*
X165620270Y-62758633D01*
X165516542Y-62738000D01*
X165481522Y-62731034D01*
X165446502Y-62738000D01*
X164526754Y-62738000D01*
X164434228Y-62645474D01*
X164356314Y-62613201D01*
X164364336Y-62601195D01*
X164382078Y-62512000D01*
X164382078Y-61152000D01*
X164364336Y-61062805D01*
X164313811Y-60987189D01*
X164238195Y-60936664D01*
X164149000Y-60918922D01*
X163930972Y-60918922D01*
X165072685Y-59777209D01*
X165102372Y-59757373D01*
X165180967Y-59639748D01*
X165201600Y-59536020D01*
X165201600Y-59536016D01*
X165208565Y-59501001D01*
X165201600Y-59465986D01*
X165201600Y-59131086D01*
X165276805Y-59181336D01*
X165366000Y-59199078D01*
X166866000Y-59199078D01*
X166955195Y-59181336D01*
X167030811Y-59130811D01*
X167081336Y-59055195D01*
X167099078Y-58966000D01*
X167099078Y-58883966D01*
X167172902Y-58914545D01*
X167166253Y-58918988D01*
X167149251Y-58944433D01*
X167149248Y-58944436D01*
X167098885Y-59019810D01*
X167094504Y-59041837D01*
X167081200Y-59108718D01*
X167081200Y-59108722D01*
X167078339Y-59123107D01*
X166937874Y-59263572D01*
X166857400Y-59457855D01*
X166857400Y-59668145D01*
X166937874Y-59862428D01*
X167086572Y-60011126D01*
X167280855Y-60091600D01*
X167491145Y-60091600D01*
X167685428Y-60011126D01*
X167834126Y-59862428D01*
X167914600Y-59668145D01*
X167914600Y-59457855D01*
X167834126Y-59263572D01*
X167763171Y-59192617D01*
X168971627Y-57984161D01*
X169053962Y-58182936D01*
G04 #@! TD*
M02*
