M48
;DRILL file {KiCad 5.0.2-bee76a0~70~ubuntu18.04.1} date Tue 15 Jan 2019 08:31:40 PM NZDT
;FORMAT={-:-/ absolute / inch / decimal}
FMAT,2
INCH,TZ
T1C0.0118
T2C0.0157
T3C0.0236
T4C0.0335
T5C0.0394
%
G90
G05
T1
X5.486Y-2.505
X5.5Y-2.4
X6.227Y-2.274
X6.26Y-2.215
X6.306Y-2.578
X6.396Y-2.2089
X6.41Y-2.484
X6.425Y-2.215
X6.436Y-2.484
X6.46Y-2.22
X6.462Y-2.484
X6.495Y-2.43
X6.525Y-2.43
X6.5472Y-2.5603
X6.555Y-2.45
X6.5608Y-2.415
X6.57Y-2.505
X6.5899Y-2.3872
X6.59Y-2.345
X6.59Y-2.4508
X6.594Y-2.246
X6.595Y-2.48
X6.7123Y-2.4495
X6.736Y-2.504
X6.74Y-2.535
X6.7419Y-2.4471
X6.77Y-2.465
X6.79Y-2.25
X6.825Y-2.285
X6.83Y-2.25
X6.835Y-2.535
X6.84Y-2.43
X6.86Y-2.285
X6.868Y-2.448
X6.874Y-2.131
X6.924Y-2.38
X6.924Y-2.41
X6.95Y-2.38
X6.95Y-2.41
X7.082Y-2.448
X7.082Y-2.476
X7.082Y-2.504
X7.082Y-2.532
X7.082Y-2.56
X7.082Y-2.588
X7.11Y-2.448
X7.11Y-2.476
X7.11Y-2.504
X7.11Y-2.532
X7.11Y-2.56
X7.11Y-2.588
X7.19Y-2.355
X7.216Y-2.355
T2
X6.235Y-2.52
X6.24Y-2.44
X6.255Y-2.57
X6.3147Y-2.2561
X6.325Y-2.22
X6.415Y-2.275
X6.455Y-2.275
X6.4663Y-2.5834
X6.5185Y-2.2616
X6.52Y-2.58
X6.585Y-2.1845
X6.5866Y-2.2947
X6.6766Y-2.2766
X7.282Y-2.354
X7.326Y-2.354
T4
X7.4104Y-2.3016
X7.4104Y-2.4984
T5
X5.4Y-2.75
X5.5Y-2.75
X5.6Y-2.75
X5.7Y-2.75
X5.8Y-2.75
X5.9Y-2.75
X6.Y-2.75
X6.1Y-2.75
X6.2Y-2.75
X6.3Y-2.75
X6.4Y-2.75
X6.5Y-2.75
X6.6Y-2.75
X6.7Y-2.75
X6.8Y-2.75
X6.9Y-2.75
X7.Y-2.75
X7.1Y-2.75
X7.2Y-2.75
X7.3Y-2.75
X7.4Y-2.75
X7.5Y-2.75
X5.4Y-2.05
X5.5Y-2.05
X5.6Y-2.05
X5.7Y-2.05
X5.8Y-2.05
X5.9Y-2.05
X6.Y-2.05
X6.1Y-2.05
X6.2Y-2.05
X6.3Y-2.05
X6.4Y-2.05
X6.5Y-2.05
X6.6Y-2.05
X6.7Y-2.05
X6.8Y-2.05
X6.9Y-2.05
X7.Y-2.05
X7.1Y-2.05
X7.2Y-2.05
X7.3Y-2.05
X7.4Y-2.05
X7.5Y-2.05
T3
X7.5029Y-2.2622G85X7.5305Y-2.2622
G05
X7.5305Y-2.5378G85X7.5029Y-2.5378
G05
T0
M30
