G04 #@! TF.GenerationSoftware,KiCad,Pcbnew,5.0.2-bee76a0~70~ubuntu18.04.1*
G04 #@! TF.CreationDate,2019-01-15T20:31:34+13:00*
G04 #@! TF.ProjectId,pynano-1,70796e61-6e6f-42d3-912e-6b696361645f,rev?*
G04 #@! TF.SameCoordinates,Original*
G04 #@! TF.FileFunction,Legend,Bot*
G04 #@! TF.FilePolarity,Positive*
%FSLAX46Y46*%
G04 Gerber Fmt 4.6, Leading zero omitted, Abs format (unit mm)*
G04 Created by KiCad (PCBNEW 5.0.2-bee76a0~70~ubuntu18.04.1) date Tue 15 Jan 2019 08:31:34 PM NZDT*
%MOMM*%
%LPD*%
G01*
G04 APERTURE LIST*
%ADD10C,0.152400*%
%ADD11C,0.150000*%
%ADD12C,0.120000*%
%ADD13C,0.010000*%
%ADD14C,0.200000*%
%ADD15C,0.100000*%
%ADD16C,1.000000*%
%ADD17R,1.700000X1.700000*%
%ADD18O,1.700000X1.700000*%
%ADD19R,1.360000X1.400000*%
%ADD20R,1.400000X1.360000*%
%ADD21R,0.575000X0.650000*%
%ADD22R,0.650000X0.575000*%
%ADD23R,0.970000X1.500000*%
%ADD24R,1.500000X0.970000*%
%ADD25R,1.100000X1.100000*%
%ADD26C,1.450000*%
%ADD27O,1.900000X1.200000*%
%ADD28R,1.000000X1.000000*%
%ADD29R,2.000000X3.800000*%
%ADD30R,2.000000X1.500000*%
%ADD31R,0.600000X1.550000*%
G04 APERTURE END LIST*
D10*
X175133000Y-56896000D02*
X175133000Y-59436000D01*
X184150000Y-56896000D02*
X175133000Y-56896000D01*
D11*
G36*
X182753000Y-55245000D02*
X182753000Y-56388000D01*
X184023000Y-56388000D01*
X184023000Y-55245000D01*
X182753000Y-55245000D01*
G37*
X182753000Y-55245000D02*
X182753000Y-56388000D01*
X184023000Y-56388000D01*
X184023000Y-55245000D01*
X182753000Y-55245000D01*
G36*
X180467000Y-55245000D02*
X180467000Y-56388000D01*
X181737000Y-56388000D01*
X181737000Y-55245000D01*
X180467000Y-55245000D01*
G37*
X180467000Y-55245000D02*
X180467000Y-56388000D01*
X181737000Y-56388000D01*
X181737000Y-55245000D01*
X180467000Y-55245000D01*
G36*
X178054000Y-55245000D02*
X178054000Y-56388000D01*
X179324000Y-56388000D01*
X179324000Y-55245000D01*
X178054000Y-55245000D01*
G37*
X178054000Y-55245000D02*
X178054000Y-56388000D01*
X179324000Y-56388000D01*
X179324000Y-55245000D01*
X178054000Y-55245000D01*
D10*
X184442704Y-54850695D02*
X184907161Y-54850695D01*
X184674933Y-54850695D02*
X184674933Y-54037895D01*
X184752342Y-54154009D01*
X184829752Y-54231419D01*
X184907161Y-54270123D01*
X183746019Y-54037895D02*
X183900838Y-54037895D01*
X183978247Y-54076600D01*
X184016952Y-54115304D01*
X184094361Y-54231419D01*
X184133066Y-54386238D01*
X184133066Y-54695876D01*
X184094361Y-54773285D01*
X184055657Y-54811990D01*
X183978247Y-54850695D01*
X183823428Y-54850695D01*
X183746019Y-54811990D01*
X183707314Y-54773285D01*
X183668609Y-54695876D01*
X183668609Y-54502352D01*
X183707314Y-54424942D01*
X183746019Y-54386238D01*
X183823428Y-54347533D01*
X183978247Y-54347533D01*
X184055657Y-54386238D01*
X184094361Y-54424942D01*
X184133066Y-54502352D01*
X183320266Y-54850695D02*
X183320266Y-54037895D01*
X183049333Y-54618466D01*
X182778400Y-54037895D01*
X182778400Y-54850695D01*
X181655961Y-54386238D02*
X181733371Y-54347533D01*
X181772076Y-54308828D01*
X181810780Y-54231419D01*
X181810780Y-54192714D01*
X181772076Y-54115304D01*
X181733371Y-54076600D01*
X181655961Y-54037895D01*
X181501142Y-54037895D01*
X181423733Y-54076600D01*
X181385028Y-54115304D01*
X181346323Y-54192714D01*
X181346323Y-54231419D01*
X181385028Y-54308828D01*
X181423733Y-54347533D01*
X181501142Y-54386238D01*
X181655961Y-54386238D01*
X181733371Y-54424942D01*
X181772076Y-54463647D01*
X181810780Y-54541057D01*
X181810780Y-54695876D01*
X181772076Y-54773285D01*
X181733371Y-54811990D01*
X181655961Y-54850695D01*
X181501142Y-54850695D01*
X181423733Y-54811990D01*
X181385028Y-54773285D01*
X181346323Y-54695876D01*
X181346323Y-54541057D01*
X181385028Y-54463647D01*
X181423733Y-54424942D01*
X181501142Y-54386238D01*
X180997980Y-54850695D02*
X180997980Y-54037895D01*
X180727047Y-54618466D01*
X180456114Y-54037895D01*
X180456114Y-54850695D01*
X179101447Y-54308828D02*
X179101447Y-54850695D01*
X179294971Y-53999190D02*
X179488495Y-54579761D01*
X178985333Y-54579761D01*
X178675695Y-54850695D02*
X178675695Y-54037895D01*
X178404761Y-54618466D01*
X178133828Y-54037895D01*
X178133828Y-54850695D01*
X177166209Y-54115304D02*
X177127504Y-54076600D01*
X177050095Y-54037895D01*
X176856571Y-54037895D01*
X176779161Y-54076600D01*
X176740457Y-54115304D01*
X176701752Y-54192714D01*
X176701752Y-54270123D01*
X176740457Y-54386238D01*
X177204914Y-54850695D01*
X176701752Y-54850695D01*
X176353409Y-54850695D02*
X176353409Y-54037895D01*
X176082476Y-54618466D01*
X175811542Y-54037895D01*
X175811542Y-54850695D01*
D11*
G36*
X175768000Y-55245000D02*
X175768000Y-56388000D01*
X177038000Y-56388000D01*
X177038000Y-55245000D01*
X175768000Y-55245000D01*
G37*
X175768000Y-55245000D02*
X175768000Y-56388000D01*
X177038000Y-56388000D01*
X177038000Y-55245000D01*
X175768000Y-55245000D01*
D10*
X152144669Y-57339895D02*
X152144669Y-56527095D01*
X151796326Y-57339895D02*
X151796326Y-56914142D01*
X151835031Y-56836733D01*
X151912440Y-56798028D01*
X152028555Y-56798028D01*
X152105964Y-56836733D01*
X152144669Y-56875438D01*
X151060936Y-57339895D02*
X151060936Y-56914142D01*
X151099640Y-56836733D01*
X151177050Y-56798028D01*
X151331869Y-56798028D01*
X151409279Y-56836733D01*
X151060936Y-57301190D02*
X151138345Y-57339895D01*
X151331869Y-57339895D01*
X151409279Y-57301190D01*
X151447983Y-57223780D01*
X151447983Y-57146371D01*
X151409279Y-57068961D01*
X151331869Y-57030257D01*
X151138345Y-57030257D01*
X151060936Y-56991552D01*
X150673888Y-57339895D02*
X150673888Y-56798028D01*
X150673888Y-56527095D02*
X150712593Y-56565800D01*
X150673888Y-56604504D01*
X150635183Y-56565800D01*
X150673888Y-56527095D01*
X150673888Y-56604504D01*
X150286840Y-57339895D02*
X150286840Y-56798028D01*
X150286840Y-56952847D02*
X150248136Y-56875438D01*
X150209431Y-56836733D01*
X150132021Y-56798028D01*
X150054612Y-56798028D01*
X149861088Y-56798028D02*
X149667564Y-57339895D01*
X149474040Y-56798028D02*
X149667564Y-57339895D01*
X149744974Y-57533419D01*
X149783679Y-57572123D01*
X149861088Y-57610828D01*
X149164402Y-57262485D02*
X149125698Y-57301190D01*
X149164402Y-57339895D01*
X149203107Y-57301190D01*
X149164402Y-57262485D01*
X149164402Y-57339895D01*
X148429012Y-56798028D02*
X148429012Y-57456009D01*
X148467717Y-57533419D01*
X148506421Y-57572123D01*
X148583831Y-57610828D01*
X148699945Y-57610828D01*
X148777355Y-57572123D01*
X148429012Y-57301190D02*
X148506421Y-57339895D01*
X148661240Y-57339895D01*
X148738650Y-57301190D01*
X148777355Y-57262485D01*
X148816060Y-57185076D01*
X148816060Y-56952847D01*
X148777355Y-56875438D01*
X148738650Y-56836733D01*
X148661240Y-56798028D01*
X148506421Y-56798028D01*
X148429012Y-56836733D01*
X147732326Y-57301190D02*
X147809736Y-57339895D01*
X147964555Y-57339895D01*
X148041964Y-57301190D01*
X148080669Y-57223780D01*
X148080669Y-56914142D01*
X148041964Y-56836733D01*
X147964555Y-56798028D01*
X147809736Y-56798028D01*
X147732326Y-56836733D01*
X147693621Y-56914142D01*
X147693621Y-56991552D01*
X148080669Y-57068961D01*
X147035640Y-57301190D02*
X147113050Y-57339895D01*
X147267869Y-57339895D01*
X147345279Y-57301190D01*
X147383983Y-57223780D01*
X147383983Y-56914142D01*
X147345279Y-56836733D01*
X147267869Y-56798028D01*
X147113050Y-56798028D01*
X147035640Y-56836733D01*
X146996936Y-56914142D01*
X146996936Y-56991552D01*
X147383983Y-57068961D01*
X146648593Y-57339895D02*
X146648593Y-56527095D01*
X146571183Y-57030257D02*
X146338955Y-57339895D01*
X146338955Y-56798028D02*
X146648593Y-57107666D01*
X145990612Y-57262485D02*
X145951907Y-57301190D01*
X145990612Y-57339895D01*
X146029317Y-57301190D01*
X145990612Y-57262485D01*
X145990612Y-57339895D01*
X145603564Y-56798028D02*
X145603564Y-57339895D01*
X145603564Y-56875438D02*
X145564860Y-56836733D01*
X145487450Y-56798028D01*
X145371336Y-56798028D01*
X145293926Y-56836733D01*
X145255221Y-56914142D01*
X145255221Y-57339895D01*
X144945583Y-56798028D02*
X144519831Y-56798028D01*
X144945583Y-57339895D01*
X144519831Y-57339895D01*
X143629621Y-56604504D02*
X143590917Y-56565800D01*
X143513507Y-56527095D01*
X143319983Y-56527095D01*
X143242574Y-56565800D01*
X143203869Y-56604504D01*
X143165164Y-56681914D01*
X143165164Y-56759323D01*
X143203869Y-56875438D01*
X143668326Y-57339895D01*
X143165164Y-57339895D01*
X142662002Y-56527095D02*
X142584593Y-56527095D01*
X142507183Y-56565800D01*
X142468479Y-56604504D01*
X142429774Y-56681914D01*
X142391069Y-56836733D01*
X142391069Y-57030257D01*
X142429774Y-57185076D01*
X142468479Y-57262485D01*
X142507183Y-57301190D01*
X142584593Y-57339895D01*
X142662002Y-57339895D01*
X142739412Y-57301190D01*
X142778117Y-57262485D01*
X142816821Y-57185076D01*
X142855526Y-57030257D01*
X142855526Y-56836733D01*
X142816821Y-56681914D01*
X142778117Y-56604504D01*
X142739412Y-56565800D01*
X142662002Y-56527095D01*
X141616974Y-57339895D02*
X142081431Y-57339895D01*
X141849202Y-57339895D02*
X141849202Y-56527095D01*
X141926612Y-56643209D01*
X142004021Y-56720619D01*
X142081431Y-56759323D01*
X141229926Y-57339895D02*
X141075107Y-57339895D01*
X140997698Y-57301190D01*
X140958993Y-57262485D01*
X140881583Y-57146371D01*
X140842879Y-56991552D01*
X140842879Y-56681914D01*
X140881583Y-56604504D01*
X140920288Y-56565800D01*
X140997698Y-56527095D01*
X141152517Y-56527095D01*
X141229926Y-56565800D01*
X141268631Y-56604504D01*
X141307336Y-56681914D01*
X141307336Y-56875438D01*
X141268631Y-56952847D01*
X141229926Y-56991552D01*
X141152517Y-57030257D01*
X140997698Y-57030257D01*
X140920288Y-56991552D01*
X140881583Y-56952847D01*
X140842879Y-56875438D01*
X147229164Y-58634085D02*
X147267869Y-58672790D01*
X147383983Y-58711495D01*
X147461393Y-58711495D01*
X147577507Y-58672790D01*
X147654917Y-58595380D01*
X147693621Y-58517971D01*
X147732326Y-58363152D01*
X147732326Y-58247038D01*
X147693621Y-58092219D01*
X147654917Y-58014809D01*
X147577507Y-57937400D01*
X147461393Y-57898695D01*
X147383983Y-57898695D01*
X147267869Y-57937400D01*
X147229164Y-57976104D01*
X146416364Y-58634085D02*
X146455069Y-58672790D01*
X146571183Y-58711495D01*
X146648593Y-58711495D01*
X146764707Y-58672790D01*
X146842117Y-58595380D01*
X146880821Y-58517971D01*
X146919526Y-58363152D01*
X146919526Y-58247038D01*
X146880821Y-58092219D01*
X146842117Y-58014809D01*
X146764707Y-57937400D01*
X146648593Y-57898695D01*
X146571183Y-57898695D01*
X146455069Y-57937400D01*
X146416364Y-57976104D01*
X146068021Y-58401857D02*
X145448745Y-58401857D01*
X145061698Y-58711495D02*
X145061698Y-57898695D01*
X144597240Y-58711495D01*
X144597240Y-57898695D01*
X144287602Y-57898695D02*
X143745736Y-57898695D01*
X144287602Y-58711495D01*
X143745736Y-58711495D01*
X143436098Y-58401857D02*
X142816821Y-58401857D01*
X142507183Y-57898695D02*
X142004021Y-57898695D01*
X142274955Y-58208333D01*
X142158840Y-58208333D01*
X142081431Y-58247038D01*
X142042726Y-58285742D01*
X142004021Y-58363152D01*
X142004021Y-58556676D01*
X142042726Y-58634085D01*
X142081431Y-58672790D01*
X142158840Y-58711495D01*
X142391069Y-58711495D01*
X142468479Y-58672790D01*
X142507183Y-58634085D01*
X141655679Y-58634085D02*
X141616974Y-58672790D01*
X141655679Y-58711495D01*
X141694383Y-58672790D01*
X141655679Y-58634085D01*
X141655679Y-58711495D01*
X141113812Y-57898695D02*
X141036402Y-57898695D01*
X140958993Y-57937400D01*
X140920288Y-57976104D01*
X140881583Y-58053514D01*
X140842879Y-58208333D01*
X140842879Y-58401857D01*
X140881583Y-58556676D01*
X140920288Y-58634085D01*
X140958993Y-58672790D01*
X141036402Y-58711495D01*
X141113812Y-58711495D01*
X141191221Y-58672790D01*
X141229926Y-58634085D01*
X141268631Y-58556676D01*
X141307336Y-58401857D01*
X141307336Y-58208333D01*
X141268631Y-58053514D01*
X141229926Y-57976104D01*
X141191221Y-57937400D01*
X141113812Y-57898695D01*
D12*
G04 #@! TO.C,C1*
X185039200Y-65411800D02*
X188959200Y-65411800D01*
X188959200Y-65411800D02*
X188959200Y-67531800D01*
X188959200Y-67531800D02*
X185039200Y-67531800D01*
G04 #@! TO.C,C2*
X180924000Y-60496000D02*
X177004000Y-60496000D01*
X177004000Y-60496000D02*
X177004000Y-58376000D01*
X177004000Y-58376000D02*
X180924000Y-58376000D01*
G04 #@! TO.C,C3*
X162389000Y-62772000D02*
X162389000Y-58852000D01*
X164509000Y-62772000D02*
X162389000Y-62772000D01*
X164509000Y-58852000D02*
X164509000Y-62772000D01*
G04 #@! TO.C,C13*
X164361000Y-65226000D02*
X164061000Y-65226000D01*
X164361000Y-63806000D02*
X164061000Y-63806000D01*
G04 #@! TO.C,C15*
X165406000Y-59286000D02*
X165406000Y-59586000D01*
X166826000Y-59286000D02*
X166826000Y-59586000D01*
G04 #@! TO.C,D1*
X186470800Y-65217400D02*
X184470800Y-65217400D01*
X184470800Y-65217400D02*
X184470800Y-61367400D01*
X186470800Y-65217400D02*
X186470800Y-61367400D01*
G04 #@! TO.C,FB1*
X159564000Y-62207000D02*
X159564000Y-62507000D01*
X160984000Y-62207000D02*
X160984000Y-62507000D01*
G04 #@! TO.C,TP1*
X169861000Y-56831000D02*
X169861000Y-58231000D01*
X171261000Y-56831000D02*
X169861000Y-56831000D01*
X171261000Y-58231000D02*
X171261000Y-56831000D01*
X169861000Y-58231000D02*
X171261000Y-58231000D01*
G04 #@! TO.C,TP2*
X169861000Y-55564000D02*
X171261000Y-55564000D01*
X171261000Y-55564000D02*
X171261000Y-54164000D01*
X171261000Y-54164000D02*
X169861000Y-54164000D01*
X169861000Y-54164000D02*
X169861000Y-55564000D01*
G04 #@! TO.C,U1*
X177718800Y-67545000D02*
X177718800Y-66285000D01*
X177718800Y-60725000D02*
X177718800Y-61985000D01*
X181478800Y-67545000D02*
X177718800Y-67545000D01*
X183728800Y-60725000D02*
X177718800Y-60725000D01*
D11*
G04 #@! TO.C,U3*
X175041000Y-65321000D02*
X174991000Y-65321000D01*
X175041000Y-61171000D02*
X174896000Y-61171000D01*
X169891000Y-61171000D02*
X170036000Y-61171000D01*
X169891000Y-65321000D02*
X170036000Y-65321000D01*
X175041000Y-65321000D02*
X175041000Y-61171000D01*
X169891000Y-65321000D02*
X169891000Y-61171000D01*
X174991000Y-65321000D02*
X174991000Y-66721000D01*
D13*
G04 #@! TO.C,REF\002A\002A*
G36*
X152023036Y-60790018D02*
X151966188Y-61091570D01*
X151546662Y-61264512D01*
X151295016Y-61093395D01*
X151224542Y-61045750D01*
X151160837Y-61003210D01*
X151106874Y-60967715D01*
X151065627Y-60941210D01*
X151040066Y-60925636D01*
X151033105Y-60922278D01*
X151020565Y-60930914D01*
X150993769Y-60954792D01*
X150955720Y-60990859D01*
X150909421Y-61036067D01*
X150857877Y-61087364D01*
X150804091Y-61141701D01*
X150751065Y-61196028D01*
X150701805Y-61247295D01*
X150659313Y-61292451D01*
X150626593Y-61328446D01*
X150606649Y-61352230D01*
X150601881Y-61360190D01*
X150608743Y-61374865D01*
X150627980Y-61407014D01*
X150657570Y-61453492D01*
X150695490Y-61511156D01*
X150739718Y-61576860D01*
X150765346Y-61614336D01*
X150812059Y-61682768D01*
X150853568Y-61744520D01*
X150887860Y-61796519D01*
X150912920Y-61835692D01*
X150926736Y-61858965D01*
X150928812Y-61863855D01*
X150924105Y-61877755D01*
X150911277Y-61910150D01*
X150892262Y-61956485D01*
X150868997Y-62012206D01*
X150843416Y-62072758D01*
X150817455Y-62133586D01*
X150793050Y-62190136D01*
X150772137Y-62237852D01*
X150756651Y-62272181D01*
X150748528Y-62288568D01*
X150748048Y-62289212D01*
X150735293Y-62292341D01*
X150701323Y-62299321D01*
X150649660Y-62309467D01*
X150583824Y-62322092D01*
X150507336Y-62336509D01*
X150462710Y-62344823D01*
X150380979Y-62360384D01*
X150307157Y-62375192D01*
X150244979Y-62388436D01*
X150198178Y-62399305D01*
X150170491Y-62406989D01*
X150164926Y-62409427D01*
X150159474Y-62425930D01*
X150155076Y-62463200D01*
X150151728Y-62516880D01*
X150149426Y-62582612D01*
X150148168Y-62656037D01*
X150147952Y-62732796D01*
X150148773Y-62808532D01*
X150150629Y-62878886D01*
X150153518Y-62939500D01*
X150157435Y-62986016D01*
X150162378Y-63014075D01*
X150165343Y-63019916D01*
X150183066Y-63026917D01*
X150220619Y-63036927D01*
X150273036Y-63048769D01*
X150335348Y-63061267D01*
X150357100Y-63065310D01*
X150461976Y-63084520D01*
X150544820Y-63099991D01*
X150608370Y-63112337D01*
X150655363Y-63122173D01*
X150688537Y-63130114D01*
X150710629Y-63136776D01*
X150724376Y-63142773D01*
X150732516Y-63148719D01*
X150733655Y-63149894D01*
X150745023Y-63168826D01*
X150762365Y-63205669D01*
X150783950Y-63255913D01*
X150808046Y-63315046D01*
X150832921Y-63378556D01*
X150856843Y-63441932D01*
X150878081Y-63500662D01*
X150894903Y-63550235D01*
X150905578Y-63586139D01*
X150908373Y-63603862D01*
X150908140Y-63604483D01*
X150898669Y-63618970D01*
X150877182Y-63650844D01*
X150845937Y-63696789D01*
X150807193Y-63753485D01*
X150763207Y-63817617D01*
X150750681Y-63835842D01*
X150706016Y-63901914D01*
X150666712Y-63962200D01*
X150634912Y-64013235D01*
X150612755Y-64051560D01*
X150602383Y-64073711D01*
X150601881Y-64076432D01*
X150610595Y-64090736D01*
X150634675Y-64119072D01*
X150671024Y-64158396D01*
X150716547Y-64205661D01*
X150768148Y-64257823D01*
X150822733Y-64311835D01*
X150877206Y-64364653D01*
X150928471Y-64413231D01*
X150973433Y-64454523D01*
X151008996Y-64485485D01*
X151032065Y-64503070D01*
X151038446Y-64505941D01*
X151053301Y-64499178D01*
X151083714Y-64480939D01*
X151124732Y-64454297D01*
X151156291Y-64432852D01*
X151213475Y-64393503D01*
X151281194Y-64347171D01*
X151349120Y-64300913D01*
X151385639Y-64276155D01*
X151509248Y-64192547D01*
X151613009Y-64248650D01*
X151660280Y-64273228D01*
X151700477Y-64292331D01*
X151727674Y-64303227D01*
X151734598Y-64304743D01*
X151742923Y-64293549D01*
X151759346Y-64261917D01*
X151782643Y-64212765D01*
X151811586Y-64149010D01*
X151844950Y-64073571D01*
X151881509Y-63989364D01*
X151920036Y-63899308D01*
X151959306Y-63806321D01*
X151998092Y-63713320D01*
X152035170Y-63623223D01*
X152069311Y-63538948D01*
X152099292Y-63463413D01*
X152123884Y-63399534D01*
X152141864Y-63350231D01*
X152152003Y-63318421D01*
X152153634Y-63307496D01*
X152140709Y-63293561D01*
X152112411Y-63270940D01*
X152074654Y-63244333D01*
X152071485Y-63242228D01*
X151973900Y-63164114D01*
X151895214Y-63072982D01*
X151836109Y-62971745D01*
X151797268Y-62863318D01*
X151779372Y-62750614D01*
X151783103Y-62636548D01*
X151809143Y-62524034D01*
X151858175Y-62415985D01*
X151872600Y-62392345D01*
X151947631Y-62296887D01*
X152036270Y-62220232D01*
X152135451Y-62162780D01*
X152242105Y-62124929D01*
X152353164Y-62107078D01*
X152465561Y-62109625D01*
X152576227Y-62132970D01*
X152682094Y-62177510D01*
X152780095Y-62243645D01*
X152810410Y-62270487D01*
X152887562Y-62354512D01*
X152943782Y-62442966D01*
X152982347Y-62542115D01*
X153003826Y-62640303D01*
X153009128Y-62750697D01*
X152991448Y-62861640D01*
X152952581Y-62969381D01*
X152894323Y-63070169D01*
X152818469Y-63160256D01*
X152726817Y-63235892D01*
X152714772Y-63243864D01*
X152676611Y-63269974D01*
X152647601Y-63292595D01*
X152633732Y-63307039D01*
X152633531Y-63307496D01*
X152636508Y-63323121D01*
X152648311Y-63358582D01*
X152667714Y-63410962D01*
X152693488Y-63477345D01*
X152724409Y-63554814D01*
X152759249Y-63640450D01*
X152796783Y-63731337D01*
X152835783Y-63824559D01*
X152875023Y-63917197D01*
X152913276Y-64006335D01*
X152949317Y-64089055D01*
X152981917Y-64162441D01*
X153009852Y-64223575D01*
X153031895Y-64269541D01*
X153046818Y-64297421D01*
X153052828Y-64304743D01*
X153071191Y-64299041D01*
X153105552Y-64283749D01*
X153149984Y-64261599D01*
X153174417Y-64248650D01*
X153278178Y-64192547D01*
X153401787Y-64276155D01*
X153464886Y-64318987D01*
X153533970Y-64366122D01*
X153598707Y-64410503D01*
X153631134Y-64432852D01*
X153676741Y-64463477D01*
X153715360Y-64487747D01*
X153741952Y-64502587D01*
X153750590Y-64505724D01*
X153763161Y-64497261D01*
X153790984Y-64473636D01*
X153831361Y-64437302D01*
X153881595Y-64390711D01*
X153938988Y-64336317D01*
X153975286Y-64301392D01*
X154038790Y-64238996D01*
X154093673Y-64183188D01*
X154137714Y-64136354D01*
X154168695Y-64100882D01*
X154184398Y-64079161D01*
X154185905Y-64074752D01*
X154178914Y-64057985D01*
X154159594Y-64024082D01*
X154130091Y-63976476D01*
X154092545Y-63918599D01*
X154049100Y-63853884D01*
X154036745Y-63835842D01*
X153991727Y-63770267D01*
X153951340Y-63711228D01*
X153917840Y-63662042D01*
X153893486Y-63626028D01*
X153880536Y-63606502D01*
X153879285Y-63604483D01*
X153881156Y-63588922D01*
X153891087Y-63554709D01*
X153907347Y-63506355D01*
X153928205Y-63448371D01*
X153951927Y-63385270D01*
X153976784Y-63321563D01*
X154001042Y-63261761D01*
X154022971Y-63210376D01*
X154040838Y-63171919D01*
X154052913Y-63150902D01*
X154053771Y-63149894D01*
X154061154Y-63143888D01*
X154073625Y-63137948D01*
X154093920Y-63131460D01*
X154124778Y-63123809D01*
X154168934Y-63114380D01*
X154229126Y-63102559D01*
X154308093Y-63087729D01*
X154408570Y-63069277D01*
X154430325Y-63065310D01*
X154494802Y-63052853D01*
X154551011Y-63040666D01*
X154593987Y-63029926D01*
X154618760Y-63021809D01*
X154622082Y-63019916D01*
X154627556Y-63003138D01*
X154632006Y-62965645D01*
X154635428Y-62911794D01*
X154637819Y-62845944D01*
X154639177Y-62772453D01*
X154639499Y-62695680D01*
X154638781Y-62619983D01*
X154637021Y-62549720D01*
X154634216Y-62489250D01*
X154630362Y-62442930D01*
X154625457Y-62415119D01*
X154622500Y-62409427D01*
X154606037Y-62403686D01*
X154568551Y-62394345D01*
X154513775Y-62382215D01*
X154445445Y-62368107D01*
X154367294Y-62352830D01*
X154324716Y-62344823D01*
X154243929Y-62329721D01*
X154171887Y-62316040D01*
X154112111Y-62304467D01*
X154068121Y-62295687D01*
X154043439Y-62290387D01*
X154039377Y-62289212D01*
X154032511Y-62275965D01*
X154017998Y-62244057D01*
X153997771Y-62198047D01*
X153973766Y-62142492D01*
X153947918Y-62081953D01*
X153922160Y-62020986D01*
X153898427Y-61964151D01*
X153878654Y-61916006D01*
X153864776Y-61881110D01*
X153858726Y-61864021D01*
X153858614Y-61863274D01*
X153865472Y-61849793D01*
X153884698Y-61818770D01*
X153914272Y-61773289D01*
X153952173Y-61716432D01*
X153996380Y-61651283D01*
X154022079Y-61613862D01*
X154068907Y-61545247D01*
X154110499Y-61482952D01*
X154144825Y-61430129D01*
X154169857Y-61389927D01*
X154183565Y-61365500D01*
X154185544Y-61360024D01*
X154177034Y-61347278D01*
X154153507Y-61320063D01*
X154117968Y-61281428D01*
X154073423Y-61234423D01*
X154022877Y-61182095D01*
X153969336Y-61127495D01*
X153915805Y-61073670D01*
X153865289Y-61023670D01*
X153820794Y-60980543D01*
X153785325Y-60947339D01*
X153761887Y-60927106D01*
X153754046Y-60922278D01*
X153741280Y-60929067D01*
X153710744Y-60948142D01*
X153665410Y-60977561D01*
X153608244Y-61015381D01*
X153542216Y-61059661D01*
X153492410Y-61093395D01*
X153240764Y-61264512D01*
X153031001Y-61178041D01*
X152821237Y-61091570D01*
X152764389Y-60790018D01*
X152707540Y-60488466D01*
X152079885Y-60488466D01*
X152023036Y-60790018D01*
X152023036Y-60790018D01*
G37*
X152023036Y-60790018D02*
X151966188Y-61091570D01*
X151546662Y-61264512D01*
X151295016Y-61093395D01*
X151224542Y-61045750D01*
X151160837Y-61003210D01*
X151106874Y-60967715D01*
X151065627Y-60941210D01*
X151040066Y-60925636D01*
X151033105Y-60922278D01*
X151020565Y-60930914D01*
X150993769Y-60954792D01*
X150955720Y-60990859D01*
X150909421Y-61036067D01*
X150857877Y-61087364D01*
X150804091Y-61141701D01*
X150751065Y-61196028D01*
X150701805Y-61247295D01*
X150659313Y-61292451D01*
X150626593Y-61328446D01*
X150606649Y-61352230D01*
X150601881Y-61360190D01*
X150608743Y-61374865D01*
X150627980Y-61407014D01*
X150657570Y-61453492D01*
X150695490Y-61511156D01*
X150739718Y-61576860D01*
X150765346Y-61614336D01*
X150812059Y-61682768D01*
X150853568Y-61744520D01*
X150887860Y-61796519D01*
X150912920Y-61835692D01*
X150926736Y-61858965D01*
X150928812Y-61863855D01*
X150924105Y-61877755D01*
X150911277Y-61910150D01*
X150892262Y-61956485D01*
X150868997Y-62012206D01*
X150843416Y-62072758D01*
X150817455Y-62133586D01*
X150793050Y-62190136D01*
X150772137Y-62237852D01*
X150756651Y-62272181D01*
X150748528Y-62288568D01*
X150748048Y-62289212D01*
X150735293Y-62292341D01*
X150701323Y-62299321D01*
X150649660Y-62309467D01*
X150583824Y-62322092D01*
X150507336Y-62336509D01*
X150462710Y-62344823D01*
X150380979Y-62360384D01*
X150307157Y-62375192D01*
X150244979Y-62388436D01*
X150198178Y-62399305D01*
X150170491Y-62406989D01*
X150164926Y-62409427D01*
X150159474Y-62425930D01*
X150155076Y-62463200D01*
X150151728Y-62516880D01*
X150149426Y-62582612D01*
X150148168Y-62656037D01*
X150147952Y-62732796D01*
X150148773Y-62808532D01*
X150150629Y-62878886D01*
X150153518Y-62939500D01*
X150157435Y-62986016D01*
X150162378Y-63014075D01*
X150165343Y-63019916D01*
X150183066Y-63026917D01*
X150220619Y-63036927D01*
X150273036Y-63048769D01*
X150335348Y-63061267D01*
X150357100Y-63065310D01*
X150461976Y-63084520D01*
X150544820Y-63099991D01*
X150608370Y-63112337D01*
X150655363Y-63122173D01*
X150688537Y-63130114D01*
X150710629Y-63136776D01*
X150724376Y-63142773D01*
X150732516Y-63148719D01*
X150733655Y-63149894D01*
X150745023Y-63168826D01*
X150762365Y-63205669D01*
X150783950Y-63255913D01*
X150808046Y-63315046D01*
X150832921Y-63378556D01*
X150856843Y-63441932D01*
X150878081Y-63500662D01*
X150894903Y-63550235D01*
X150905578Y-63586139D01*
X150908373Y-63603862D01*
X150908140Y-63604483D01*
X150898669Y-63618970D01*
X150877182Y-63650844D01*
X150845937Y-63696789D01*
X150807193Y-63753485D01*
X150763207Y-63817617D01*
X150750681Y-63835842D01*
X150706016Y-63901914D01*
X150666712Y-63962200D01*
X150634912Y-64013235D01*
X150612755Y-64051560D01*
X150602383Y-64073711D01*
X150601881Y-64076432D01*
X150610595Y-64090736D01*
X150634675Y-64119072D01*
X150671024Y-64158396D01*
X150716547Y-64205661D01*
X150768148Y-64257823D01*
X150822733Y-64311835D01*
X150877206Y-64364653D01*
X150928471Y-64413231D01*
X150973433Y-64454523D01*
X151008996Y-64485485D01*
X151032065Y-64503070D01*
X151038446Y-64505941D01*
X151053301Y-64499178D01*
X151083714Y-64480939D01*
X151124732Y-64454297D01*
X151156291Y-64432852D01*
X151213475Y-64393503D01*
X151281194Y-64347171D01*
X151349120Y-64300913D01*
X151385639Y-64276155D01*
X151509248Y-64192547D01*
X151613009Y-64248650D01*
X151660280Y-64273228D01*
X151700477Y-64292331D01*
X151727674Y-64303227D01*
X151734598Y-64304743D01*
X151742923Y-64293549D01*
X151759346Y-64261917D01*
X151782643Y-64212765D01*
X151811586Y-64149010D01*
X151844950Y-64073571D01*
X151881509Y-63989364D01*
X151920036Y-63899308D01*
X151959306Y-63806321D01*
X151998092Y-63713320D01*
X152035170Y-63623223D01*
X152069311Y-63538948D01*
X152099292Y-63463413D01*
X152123884Y-63399534D01*
X152141864Y-63350231D01*
X152152003Y-63318421D01*
X152153634Y-63307496D01*
X152140709Y-63293561D01*
X152112411Y-63270940D01*
X152074654Y-63244333D01*
X152071485Y-63242228D01*
X151973900Y-63164114D01*
X151895214Y-63072982D01*
X151836109Y-62971745D01*
X151797268Y-62863318D01*
X151779372Y-62750614D01*
X151783103Y-62636548D01*
X151809143Y-62524034D01*
X151858175Y-62415985D01*
X151872600Y-62392345D01*
X151947631Y-62296887D01*
X152036270Y-62220232D01*
X152135451Y-62162780D01*
X152242105Y-62124929D01*
X152353164Y-62107078D01*
X152465561Y-62109625D01*
X152576227Y-62132970D01*
X152682094Y-62177510D01*
X152780095Y-62243645D01*
X152810410Y-62270487D01*
X152887562Y-62354512D01*
X152943782Y-62442966D01*
X152982347Y-62542115D01*
X153003826Y-62640303D01*
X153009128Y-62750697D01*
X152991448Y-62861640D01*
X152952581Y-62969381D01*
X152894323Y-63070169D01*
X152818469Y-63160256D01*
X152726817Y-63235892D01*
X152714772Y-63243864D01*
X152676611Y-63269974D01*
X152647601Y-63292595D01*
X152633732Y-63307039D01*
X152633531Y-63307496D01*
X152636508Y-63323121D01*
X152648311Y-63358582D01*
X152667714Y-63410962D01*
X152693488Y-63477345D01*
X152724409Y-63554814D01*
X152759249Y-63640450D01*
X152796783Y-63731337D01*
X152835783Y-63824559D01*
X152875023Y-63917197D01*
X152913276Y-64006335D01*
X152949317Y-64089055D01*
X152981917Y-64162441D01*
X153009852Y-64223575D01*
X153031895Y-64269541D01*
X153046818Y-64297421D01*
X153052828Y-64304743D01*
X153071191Y-64299041D01*
X153105552Y-64283749D01*
X153149984Y-64261599D01*
X153174417Y-64248650D01*
X153278178Y-64192547D01*
X153401787Y-64276155D01*
X153464886Y-64318987D01*
X153533970Y-64366122D01*
X153598707Y-64410503D01*
X153631134Y-64432852D01*
X153676741Y-64463477D01*
X153715360Y-64487747D01*
X153741952Y-64502587D01*
X153750590Y-64505724D01*
X153763161Y-64497261D01*
X153790984Y-64473636D01*
X153831361Y-64437302D01*
X153881595Y-64390711D01*
X153938988Y-64336317D01*
X153975286Y-64301392D01*
X154038790Y-64238996D01*
X154093673Y-64183188D01*
X154137714Y-64136354D01*
X154168695Y-64100882D01*
X154184398Y-64079161D01*
X154185905Y-64074752D01*
X154178914Y-64057985D01*
X154159594Y-64024082D01*
X154130091Y-63976476D01*
X154092545Y-63918599D01*
X154049100Y-63853884D01*
X154036745Y-63835842D01*
X153991727Y-63770267D01*
X153951340Y-63711228D01*
X153917840Y-63662042D01*
X153893486Y-63626028D01*
X153880536Y-63606502D01*
X153879285Y-63604483D01*
X153881156Y-63588922D01*
X153891087Y-63554709D01*
X153907347Y-63506355D01*
X153928205Y-63448371D01*
X153951927Y-63385270D01*
X153976784Y-63321563D01*
X154001042Y-63261761D01*
X154022971Y-63210376D01*
X154040838Y-63171919D01*
X154052913Y-63150902D01*
X154053771Y-63149894D01*
X154061154Y-63143888D01*
X154073625Y-63137948D01*
X154093920Y-63131460D01*
X154124778Y-63123809D01*
X154168934Y-63114380D01*
X154229126Y-63102559D01*
X154308093Y-63087729D01*
X154408570Y-63069277D01*
X154430325Y-63065310D01*
X154494802Y-63052853D01*
X154551011Y-63040666D01*
X154593987Y-63029926D01*
X154618760Y-63021809D01*
X154622082Y-63019916D01*
X154627556Y-63003138D01*
X154632006Y-62965645D01*
X154635428Y-62911794D01*
X154637819Y-62845944D01*
X154639177Y-62772453D01*
X154639499Y-62695680D01*
X154638781Y-62619983D01*
X154637021Y-62549720D01*
X154634216Y-62489250D01*
X154630362Y-62442930D01*
X154625457Y-62415119D01*
X154622500Y-62409427D01*
X154606037Y-62403686D01*
X154568551Y-62394345D01*
X154513775Y-62382215D01*
X154445445Y-62368107D01*
X154367294Y-62352830D01*
X154324716Y-62344823D01*
X154243929Y-62329721D01*
X154171887Y-62316040D01*
X154112111Y-62304467D01*
X154068121Y-62295687D01*
X154043439Y-62290387D01*
X154039377Y-62289212D01*
X154032511Y-62275965D01*
X154017998Y-62244057D01*
X153997771Y-62198047D01*
X153973766Y-62142492D01*
X153947918Y-62081953D01*
X153922160Y-62020986D01*
X153898427Y-61964151D01*
X153878654Y-61916006D01*
X153864776Y-61881110D01*
X153858726Y-61864021D01*
X153858614Y-61863274D01*
X153865472Y-61849793D01*
X153884698Y-61818770D01*
X153914272Y-61773289D01*
X153952173Y-61716432D01*
X153996380Y-61651283D01*
X154022079Y-61613862D01*
X154068907Y-61545247D01*
X154110499Y-61482952D01*
X154144825Y-61430129D01*
X154169857Y-61389927D01*
X154183565Y-61365500D01*
X154185544Y-61360024D01*
X154177034Y-61347278D01*
X154153507Y-61320063D01*
X154117968Y-61281428D01*
X154073423Y-61234423D01*
X154022877Y-61182095D01*
X153969336Y-61127495D01*
X153915805Y-61073670D01*
X153865289Y-61023670D01*
X153820794Y-60980543D01*
X153785325Y-60947339D01*
X153761887Y-60927106D01*
X153754046Y-60922278D01*
X153741280Y-60929067D01*
X153710744Y-60948142D01*
X153665410Y-60977561D01*
X153608244Y-61015381D01*
X153542216Y-61059661D01*
X153492410Y-61093395D01*
X153240764Y-61264512D01*
X153031001Y-61178041D01*
X152821237Y-61091570D01*
X152764389Y-60790018D01*
X152707540Y-60488466D01*
X152079885Y-60488466D01*
X152023036Y-60790018D01*
G36*
X150600540Y-64958030D02*
X150557289Y-64971245D01*
X150529442Y-64987941D01*
X150520371Y-65001145D01*
X150522868Y-65016797D01*
X150539069Y-65041385D01*
X150552768Y-65058800D01*
X150581008Y-65090283D01*
X150602225Y-65103529D01*
X150620312Y-65102664D01*
X150673965Y-65089010D01*
X150713370Y-65089630D01*
X150745368Y-65105104D01*
X150756110Y-65114161D01*
X150790495Y-65146027D01*
X150790495Y-65562179D01*
X150928812Y-65562179D01*
X150928812Y-64958614D01*
X150859653Y-64958614D01*
X150818131Y-64960256D01*
X150796709Y-64966087D01*
X150790498Y-64977461D01*
X150790495Y-64977798D01*
X150787561Y-64989713D01*
X150774296Y-64988159D01*
X150755916Y-64979563D01*
X150717954Y-64963568D01*
X150687128Y-64953945D01*
X150647464Y-64951478D01*
X150600540Y-64958030D01*
X150600540Y-64958030D01*
G37*
X150600540Y-64958030D02*
X150557289Y-64971245D01*
X150529442Y-64987941D01*
X150520371Y-65001145D01*
X150522868Y-65016797D01*
X150539069Y-65041385D01*
X150552768Y-65058800D01*
X150581008Y-65090283D01*
X150602225Y-65103529D01*
X150620312Y-65102664D01*
X150673965Y-65089010D01*
X150713370Y-65089630D01*
X150745368Y-65105104D01*
X150756110Y-65114161D01*
X150790495Y-65146027D01*
X150790495Y-65562179D01*
X150928812Y-65562179D01*
X150928812Y-64958614D01*
X150859653Y-64958614D01*
X150818131Y-64960256D01*
X150796709Y-64966087D01*
X150790498Y-64977461D01*
X150790495Y-64977798D01*
X150787561Y-64989713D01*
X150774296Y-64988159D01*
X150755916Y-64979563D01*
X150717954Y-64963568D01*
X150687128Y-64953945D01*
X150647464Y-64951478D01*
X150600540Y-64958030D01*
G36*
X153154012Y-64969002D02*
X153122717Y-64983950D01*
X153092409Y-65005541D01*
X153069318Y-65030391D01*
X153052500Y-65062087D01*
X153041006Y-65104214D01*
X153033891Y-65160358D01*
X153030207Y-65234106D01*
X153029008Y-65329044D01*
X153028989Y-65338985D01*
X153028713Y-65562179D01*
X153167030Y-65562179D01*
X153167030Y-65356418D01*
X153167128Y-65280189D01*
X153167809Y-65224939D01*
X153169651Y-65186501D01*
X153173233Y-65160706D01*
X153179132Y-65143384D01*
X153187927Y-65130368D01*
X153200180Y-65117507D01*
X153243047Y-65089873D01*
X153289843Y-65084745D01*
X153334424Y-65102217D01*
X153349928Y-65115221D01*
X153361310Y-65127447D01*
X153369481Y-65140540D01*
X153374974Y-65158615D01*
X153378320Y-65185787D01*
X153380051Y-65226170D01*
X153380697Y-65283879D01*
X153380792Y-65354132D01*
X153380792Y-65562179D01*
X153519109Y-65562179D01*
X153519109Y-64958614D01*
X153449950Y-64958614D01*
X153408428Y-64960256D01*
X153387006Y-64966087D01*
X153380795Y-64977461D01*
X153380792Y-64977798D01*
X153377910Y-64988938D01*
X153365199Y-64987674D01*
X153339926Y-64975434D01*
X153282605Y-64957424D01*
X153217037Y-64955421D01*
X153154012Y-64969002D01*
X153154012Y-64969002D01*
G37*
X153154012Y-64969002D02*
X153122717Y-64983950D01*
X153092409Y-65005541D01*
X153069318Y-65030391D01*
X153052500Y-65062087D01*
X153041006Y-65104214D01*
X153033891Y-65160358D01*
X153030207Y-65234106D01*
X153029008Y-65329044D01*
X153028989Y-65338985D01*
X153028713Y-65562179D01*
X153167030Y-65562179D01*
X153167030Y-65356418D01*
X153167128Y-65280189D01*
X153167809Y-65224939D01*
X153169651Y-65186501D01*
X153173233Y-65160706D01*
X153179132Y-65143384D01*
X153187927Y-65130368D01*
X153200180Y-65117507D01*
X153243047Y-65089873D01*
X153289843Y-65084745D01*
X153334424Y-65102217D01*
X153349928Y-65115221D01*
X153361310Y-65127447D01*
X153369481Y-65140540D01*
X153374974Y-65158615D01*
X153378320Y-65185787D01*
X153380051Y-65226170D01*
X153380697Y-65283879D01*
X153380792Y-65354132D01*
X153380792Y-65562179D01*
X153519109Y-65562179D01*
X153519109Y-64958614D01*
X153449950Y-64958614D01*
X153408428Y-64960256D01*
X153387006Y-64966087D01*
X153380795Y-64977461D01*
X153380792Y-64977798D01*
X153377910Y-64988938D01*
X153365199Y-64987674D01*
X153339926Y-64975434D01*
X153282605Y-64957424D01*
X153217037Y-64955421D01*
X153154012Y-64969002D01*
G36*
X149722102Y-64956457D02*
X149689904Y-64964279D01*
X149628175Y-64992921D01*
X149575390Y-65036667D01*
X149538859Y-65089117D01*
X149533840Y-65100893D01*
X149526955Y-65131740D01*
X149522136Y-65177371D01*
X149520495Y-65223492D01*
X149520495Y-65310693D01*
X149702822Y-65310693D01*
X149778021Y-65310978D01*
X149830997Y-65312704D01*
X149864675Y-65317181D01*
X149881980Y-65325720D01*
X149885837Y-65339630D01*
X149879171Y-65360222D01*
X149867230Y-65384315D01*
X149833920Y-65424525D01*
X149787632Y-65444558D01*
X149731056Y-65443905D01*
X149666969Y-65422101D01*
X149611583Y-65395193D01*
X149565625Y-65431532D01*
X149519667Y-65467872D01*
X149562904Y-65507819D01*
X149620626Y-65545563D01*
X149691614Y-65568320D01*
X149767971Y-65574688D01*
X149841801Y-65563268D01*
X149853713Y-65559393D01*
X149918601Y-65525506D01*
X149966870Y-65474986D01*
X149999535Y-65406325D01*
X150017615Y-65318014D01*
X150017825Y-65316121D01*
X150019444Y-65219878D01*
X150012900Y-65185542D01*
X149885148Y-65185542D01*
X149873416Y-65190822D01*
X149841562Y-65194867D01*
X149794603Y-65197176D01*
X149764846Y-65197525D01*
X149709352Y-65197306D01*
X149674654Y-65195916D01*
X149656399Y-65192251D01*
X149650234Y-65185210D01*
X149651805Y-65173690D01*
X149653122Y-65169233D01*
X149675618Y-65127355D01*
X149710997Y-65093604D01*
X149742220Y-65078773D01*
X149783699Y-65079668D01*
X149825731Y-65098164D01*
X149860988Y-65128786D01*
X149882146Y-65166062D01*
X149885148Y-65185542D01*
X150012900Y-65185542D01*
X150003310Y-65135229D01*
X149971302Y-65064191D01*
X149925299Y-65008779D01*
X149867179Y-64971009D01*
X149798820Y-64952896D01*
X149722102Y-64956457D01*
X149722102Y-64956457D01*
G37*
X149722102Y-64956457D02*
X149689904Y-64964279D01*
X149628175Y-64992921D01*
X149575390Y-65036667D01*
X149538859Y-65089117D01*
X149533840Y-65100893D01*
X149526955Y-65131740D01*
X149522136Y-65177371D01*
X149520495Y-65223492D01*
X149520495Y-65310693D01*
X149702822Y-65310693D01*
X149778021Y-65310978D01*
X149830997Y-65312704D01*
X149864675Y-65317181D01*
X149881980Y-65325720D01*
X149885837Y-65339630D01*
X149879171Y-65360222D01*
X149867230Y-65384315D01*
X149833920Y-65424525D01*
X149787632Y-65444558D01*
X149731056Y-65443905D01*
X149666969Y-65422101D01*
X149611583Y-65395193D01*
X149565625Y-65431532D01*
X149519667Y-65467872D01*
X149562904Y-65507819D01*
X149620626Y-65545563D01*
X149691614Y-65568320D01*
X149767971Y-65574688D01*
X149841801Y-65563268D01*
X149853713Y-65559393D01*
X149918601Y-65525506D01*
X149966870Y-65474986D01*
X149999535Y-65406325D01*
X150017615Y-65318014D01*
X150017825Y-65316121D01*
X150019444Y-65219878D01*
X150012900Y-65185542D01*
X149885148Y-65185542D01*
X149873416Y-65190822D01*
X149841562Y-65194867D01*
X149794603Y-65197176D01*
X149764846Y-65197525D01*
X149709352Y-65197306D01*
X149674654Y-65195916D01*
X149656399Y-65192251D01*
X149650234Y-65185210D01*
X149651805Y-65173690D01*
X149653122Y-65169233D01*
X149675618Y-65127355D01*
X149710997Y-65093604D01*
X149742220Y-65078773D01*
X149783699Y-65079668D01*
X149825731Y-65098164D01*
X149860988Y-65128786D01*
X149882146Y-65166062D01*
X149885148Y-65185542D01*
X150012900Y-65185542D01*
X150003310Y-65135229D01*
X149971302Y-65064191D01*
X149925299Y-65008779D01*
X149867179Y-64971009D01*
X149798820Y-64952896D01*
X149722102Y-64956457D01*
G36*
X150182774Y-64963880D02*
X150109920Y-64994830D01*
X150086973Y-65009895D01*
X150057646Y-65033048D01*
X150039236Y-65051253D01*
X150036039Y-65057183D01*
X150045065Y-65070340D01*
X150068163Y-65092667D01*
X150086656Y-65108250D01*
X150137272Y-65148926D01*
X150177240Y-65115295D01*
X150208126Y-65093584D01*
X150238241Y-65086090D01*
X150272708Y-65087920D01*
X150327439Y-65101528D01*
X150365114Y-65129772D01*
X150388009Y-65175433D01*
X150398403Y-65241289D01*
X150398405Y-65241331D01*
X150397506Y-65314939D01*
X150383537Y-65368946D01*
X150355672Y-65405716D01*
X150336675Y-65418168D01*
X150286224Y-65433673D01*
X150232337Y-65433683D01*
X150185454Y-65418638D01*
X150174356Y-65411287D01*
X150146524Y-65392511D01*
X150124764Y-65389434D01*
X150101296Y-65403409D01*
X150075351Y-65428510D01*
X150034284Y-65470880D01*
X150079879Y-65508464D01*
X150150326Y-65550882D01*
X150229767Y-65571785D01*
X150312785Y-65570272D01*
X150367306Y-65556411D01*
X150431030Y-65522135D01*
X150481995Y-65468212D01*
X150505149Y-65430149D01*
X150523901Y-65375536D01*
X150533285Y-65306369D01*
X150533357Y-65231407D01*
X150524176Y-65159409D01*
X150505801Y-65099137D01*
X150502907Y-65092958D01*
X150460048Y-65032351D01*
X150402021Y-64988224D01*
X150333409Y-64961493D01*
X150258799Y-64953073D01*
X150182774Y-64963880D01*
X150182774Y-64963880D01*
G37*
X150182774Y-64963880D02*
X150109920Y-64994830D01*
X150086973Y-65009895D01*
X150057646Y-65033048D01*
X150039236Y-65051253D01*
X150036039Y-65057183D01*
X150045065Y-65070340D01*
X150068163Y-65092667D01*
X150086656Y-65108250D01*
X150137272Y-65148926D01*
X150177240Y-65115295D01*
X150208126Y-65093584D01*
X150238241Y-65086090D01*
X150272708Y-65087920D01*
X150327439Y-65101528D01*
X150365114Y-65129772D01*
X150388009Y-65175433D01*
X150398403Y-65241289D01*
X150398405Y-65241331D01*
X150397506Y-65314939D01*
X150383537Y-65368946D01*
X150355672Y-65405716D01*
X150336675Y-65418168D01*
X150286224Y-65433673D01*
X150232337Y-65433683D01*
X150185454Y-65418638D01*
X150174356Y-65411287D01*
X150146524Y-65392511D01*
X150124764Y-65389434D01*
X150101296Y-65403409D01*
X150075351Y-65428510D01*
X150034284Y-65470880D01*
X150079879Y-65508464D01*
X150150326Y-65550882D01*
X150229767Y-65571785D01*
X150312785Y-65570272D01*
X150367306Y-65556411D01*
X150431030Y-65522135D01*
X150481995Y-65468212D01*
X150505149Y-65430149D01*
X150523901Y-65375536D01*
X150533285Y-65306369D01*
X150533357Y-65231407D01*
X150524176Y-65159409D01*
X150505801Y-65099137D01*
X150502907Y-65092958D01*
X150460048Y-65032351D01*
X150402021Y-64988224D01*
X150333409Y-64961493D01*
X150258799Y-64953073D01*
X150182774Y-64963880D01*
G36*
X151406633Y-65154342D02*
X151405445Y-65246563D01*
X151401103Y-65316610D01*
X151392442Y-65367381D01*
X151378296Y-65401772D01*
X151357500Y-65422679D01*
X151328890Y-65433000D01*
X151293465Y-65435636D01*
X151256364Y-65432682D01*
X151228182Y-65421889D01*
X151207757Y-65400360D01*
X151193921Y-65365199D01*
X151185509Y-65313510D01*
X151181357Y-65242394D01*
X151180297Y-65154342D01*
X151180297Y-64958614D01*
X151041980Y-64958614D01*
X151041980Y-65562179D01*
X151111138Y-65562179D01*
X151152830Y-65560489D01*
X151174299Y-65554556D01*
X151180297Y-65543293D01*
X151183909Y-65533261D01*
X151198286Y-65535383D01*
X151227264Y-65549580D01*
X151293681Y-65571480D01*
X151364125Y-65569928D01*
X151431623Y-65546147D01*
X151463767Y-65527362D01*
X151488285Y-65507022D01*
X151506196Y-65481573D01*
X151518521Y-65447458D01*
X151526277Y-65401121D01*
X151530484Y-65339007D01*
X151532160Y-65257561D01*
X151532376Y-65194578D01*
X151532376Y-64958614D01*
X151406633Y-64958614D01*
X151406633Y-65154342D01*
X151406633Y-65154342D01*
G37*
X151406633Y-65154342D02*
X151405445Y-65246563D01*
X151401103Y-65316610D01*
X151392442Y-65367381D01*
X151378296Y-65401772D01*
X151357500Y-65422679D01*
X151328890Y-65433000D01*
X151293465Y-65435636D01*
X151256364Y-65432682D01*
X151228182Y-65421889D01*
X151207757Y-65400360D01*
X151193921Y-65365199D01*
X151185509Y-65313510D01*
X151181357Y-65242394D01*
X151180297Y-65154342D01*
X151180297Y-64958614D01*
X151041980Y-64958614D01*
X151041980Y-65562179D01*
X151111138Y-65562179D01*
X151152830Y-65560489D01*
X151174299Y-65554556D01*
X151180297Y-65543293D01*
X151183909Y-65533261D01*
X151198286Y-65535383D01*
X151227264Y-65549580D01*
X151293681Y-65571480D01*
X151364125Y-65569928D01*
X151431623Y-65546147D01*
X151463767Y-65527362D01*
X151488285Y-65507022D01*
X151506196Y-65481573D01*
X151518521Y-65447458D01*
X151526277Y-65401121D01*
X151530484Y-65339007D01*
X151532160Y-65257561D01*
X151532376Y-65194578D01*
X151532376Y-64958614D01*
X151406633Y-64958614D01*
X151406633Y-65154342D01*
G36*
X151789238Y-64966055D02*
X151725637Y-65000692D01*
X151675877Y-65055372D01*
X151652432Y-65099842D01*
X151642366Y-65139121D01*
X151635844Y-65195116D01*
X151633049Y-65259621D01*
X151634164Y-65324429D01*
X151639374Y-65381334D01*
X151645459Y-65411727D01*
X151665986Y-65453306D01*
X151701537Y-65497468D01*
X151744381Y-65536087D01*
X151786789Y-65561034D01*
X151787823Y-65561430D01*
X151840447Y-65572331D01*
X151902812Y-65572601D01*
X151962076Y-65562676D01*
X151984960Y-65554722D01*
X152043898Y-65521300D01*
X152086110Y-65477511D01*
X152113844Y-65419538D01*
X152129349Y-65343565D01*
X152132857Y-65303771D01*
X152132410Y-65253766D01*
X151997624Y-65253766D01*
X151993083Y-65326732D01*
X151980014Y-65382334D01*
X151959244Y-65417861D01*
X151944448Y-65428020D01*
X151906536Y-65435104D01*
X151861473Y-65433007D01*
X151822513Y-65422812D01*
X151812296Y-65417204D01*
X151785341Y-65384538D01*
X151767549Y-65334545D01*
X151759976Y-65273705D01*
X151763675Y-65208497D01*
X151771943Y-65169253D01*
X151795680Y-65123805D01*
X151833151Y-65095396D01*
X151878280Y-65085573D01*
X151924989Y-65095887D01*
X151960868Y-65121112D01*
X151979723Y-65141925D01*
X151990728Y-65162439D01*
X151995974Y-65190203D01*
X151997551Y-65232762D01*
X151997624Y-65253766D01*
X152132410Y-65253766D01*
X152131906Y-65197580D01*
X152114612Y-65110501D01*
X152080971Y-65042530D01*
X152030982Y-64993664D01*
X151964644Y-64963899D01*
X151950399Y-64960448D01*
X151864790Y-64952345D01*
X151789238Y-64966055D01*
X151789238Y-64966055D01*
G37*
X151789238Y-64966055D02*
X151725637Y-65000692D01*
X151675877Y-65055372D01*
X151652432Y-65099842D01*
X151642366Y-65139121D01*
X151635844Y-65195116D01*
X151633049Y-65259621D01*
X151634164Y-65324429D01*
X151639374Y-65381334D01*
X151645459Y-65411727D01*
X151665986Y-65453306D01*
X151701537Y-65497468D01*
X151744381Y-65536087D01*
X151786789Y-65561034D01*
X151787823Y-65561430D01*
X151840447Y-65572331D01*
X151902812Y-65572601D01*
X151962076Y-65562676D01*
X151984960Y-65554722D01*
X152043898Y-65521300D01*
X152086110Y-65477511D01*
X152113844Y-65419538D01*
X152129349Y-65343565D01*
X152132857Y-65303771D01*
X152132410Y-65253766D01*
X151997624Y-65253766D01*
X151993083Y-65326732D01*
X151980014Y-65382334D01*
X151959244Y-65417861D01*
X151944448Y-65428020D01*
X151906536Y-65435104D01*
X151861473Y-65433007D01*
X151822513Y-65422812D01*
X151812296Y-65417204D01*
X151785341Y-65384538D01*
X151767549Y-65334545D01*
X151759976Y-65273705D01*
X151763675Y-65208497D01*
X151771943Y-65169253D01*
X151795680Y-65123805D01*
X151833151Y-65095396D01*
X151878280Y-65085573D01*
X151924989Y-65095887D01*
X151960868Y-65121112D01*
X151979723Y-65141925D01*
X151990728Y-65162439D01*
X151995974Y-65190203D01*
X151997551Y-65232762D01*
X151997624Y-65253766D01*
X152132410Y-65253766D01*
X152131906Y-65197580D01*
X152114612Y-65110501D01*
X152080971Y-65042530D01*
X152030982Y-64993664D01*
X151964644Y-64963899D01*
X151950399Y-64960448D01*
X151864790Y-64952345D01*
X151789238Y-64966055D01*
G36*
X152385983Y-64956452D02*
X152338366Y-64965482D01*
X152288966Y-64984370D01*
X152283688Y-64986777D01*
X152246226Y-65006476D01*
X152220283Y-65024781D01*
X152211897Y-65036508D01*
X152219883Y-65055632D01*
X152239280Y-65083850D01*
X152247890Y-65094384D01*
X152283372Y-65135847D01*
X152329115Y-65108858D01*
X152372650Y-65090878D01*
X152422950Y-65081267D01*
X152471188Y-65080660D01*
X152508533Y-65089691D01*
X152517495Y-65095327D01*
X152534563Y-65121171D01*
X152536637Y-65150941D01*
X152523866Y-65174197D01*
X152516312Y-65178708D01*
X152493675Y-65184309D01*
X152453885Y-65190892D01*
X152404834Y-65197183D01*
X152395785Y-65198170D01*
X152317004Y-65211798D01*
X152259864Y-65234946D01*
X152221970Y-65269752D01*
X152200921Y-65318354D01*
X152194365Y-65377718D01*
X152203423Y-65445198D01*
X152232836Y-65498188D01*
X152282722Y-65536783D01*
X152353200Y-65561081D01*
X152431435Y-65570667D01*
X152495234Y-65570552D01*
X152546984Y-65561845D01*
X152582327Y-65549825D01*
X152626983Y-65528880D01*
X152668253Y-65504574D01*
X152682921Y-65493876D01*
X152720643Y-65463084D01*
X152675148Y-65417049D01*
X152629653Y-65371013D01*
X152577928Y-65405243D01*
X152526048Y-65430952D01*
X152470649Y-65444399D01*
X152417395Y-65445818D01*
X152371951Y-65435443D01*
X152339984Y-65413507D01*
X152329662Y-65394998D01*
X152331211Y-65365314D01*
X152356860Y-65342615D01*
X152406540Y-65326940D01*
X152460969Y-65319695D01*
X152544736Y-65305873D01*
X152606967Y-65279796D01*
X152648493Y-65240699D01*
X152670147Y-65187820D01*
X152673147Y-65125126D01*
X152658329Y-65059642D01*
X152624546Y-65010144D01*
X152571495Y-64976408D01*
X152498874Y-64958207D01*
X152445072Y-64954639D01*
X152385983Y-64956452D01*
X152385983Y-64956452D01*
G37*
X152385983Y-64956452D02*
X152338366Y-64965482D01*
X152288966Y-64984370D01*
X152283688Y-64986777D01*
X152246226Y-65006476D01*
X152220283Y-65024781D01*
X152211897Y-65036508D01*
X152219883Y-65055632D01*
X152239280Y-65083850D01*
X152247890Y-65094384D01*
X152283372Y-65135847D01*
X152329115Y-65108858D01*
X152372650Y-65090878D01*
X152422950Y-65081267D01*
X152471188Y-65080660D01*
X152508533Y-65089691D01*
X152517495Y-65095327D01*
X152534563Y-65121171D01*
X152536637Y-65150941D01*
X152523866Y-65174197D01*
X152516312Y-65178708D01*
X152493675Y-65184309D01*
X152453885Y-65190892D01*
X152404834Y-65197183D01*
X152395785Y-65198170D01*
X152317004Y-65211798D01*
X152259864Y-65234946D01*
X152221970Y-65269752D01*
X152200921Y-65318354D01*
X152194365Y-65377718D01*
X152203423Y-65445198D01*
X152232836Y-65498188D01*
X152282722Y-65536783D01*
X152353200Y-65561081D01*
X152431435Y-65570667D01*
X152495234Y-65570552D01*
X152546984Y-65561845D01*
X152582327Y-65549825D01*
X152626983Y-65528880D01*
X152668253Y-65504574D01*
X152682921Y-65493876D01*
X152720643Y-65463084D01*
X152675148Y-65417049D01*
X152629653Y-65371013D01*
X152577928Y-65405243D01*
X152526048Y-65430952D01*
X152470649Y-65444399D01*
X152417395Y-65445818D01*
X152371951Y-65435443D01*
X152339984Y-65413507D01*
X152329662Y-65394998D01*
X152331211Y-65365314D01*
X152356860Y-65342615D01*
X152406540Y-65326940D01*
X152460969Y-65319695D01*
X152544736Y-65305873D01*
X152606967Y-65279796D01*
X152648493Y-65240699D01*
X152670147Y-65187820D01*
X152673147Y-65125126D01*
X152658329Y-65059642D01*
X152624546Y-65010144D01*
X152571495Y-64976408D01*
X152498874Y-64958207D01*
X152445072Y-64954639D01*
X152385983Y-64956452D01*
G36*
X153756699Y-64972614D02*
X153744168Y-64978514D01*
X153700799Y-65010283D01*
X153659790Y-65056646D01*
X153629168Y-65107696D01*
X153620459Y-65131166D01*
X153612512Y-65173091D01*
X153607774Y-65223757D01*
X153607199Y-65244679D01*
X153607129Y-65310693D01*
X153987083Y-65310693D01*
X153978983Y-65345273D01*
X153959104Y-65386170D01*
X153924347Y-65421514D01*
X153882998Y-65444282D01*
X153856649Y-65449010D01*
X153820916Y-65443273D01*
X153778282Y-65428882D01*
X153763799Y-65422262D01*
X153710240Y-65395513D01*
X153664533Y-65430376D01*
X153638158Y-65453955D01*
X153624124Y-65473417D01*
X153623414Y-65479129D01*
X153635951Y-65492973D01*
X153663428Y-65514012D01*
X153688366Y-65530425D01*
X153755664Y-65559930D01*
X153831110Y-65573284D01*
X153905888Y-65569812D01*
X153965495Y-65551663D01*
X154026941Y-65512784D01*
X154070608Y-65461595D01*
X154097926Y-65395367D01*
X154110322Y-65311371D01*
X154111421Y-65272936D01*
X154107022Y-65184861D01*
X154106482Y-65182299D01*
X153980582Y-65182299D01*
X153977115Y-65190558D01*
X153962863Y-65195113D01*
X153933470Y-65197065D01*
X153884575Y-65197517D01*
X153865748Y-65197525D01*
X153808467Y-65196843D01*
X153772141Y-65194364D01*
X153752604Y-65189443D01*
X153745690Y-65181434D01*
X153745445Y-65178862D01*
X153753336Y-65158423D01*
X153773085Y-65129789D01*
X153781575Y-65119763D01*
X153813094Y-65091408D01*
X153845949Y-65080259D01*
X153863651Y-65079327D01*
X153911539Y-65090981D01*
X153951699Y-65122285D01*
X153977173Y-65167752D01*
X153977625Y-65169233D01*
X153980582Y-65182299D01*
X154106482Y-65182299D01*
X154092392Y-65115510D01*
X154066038Y-65060025D01*
X154033807Y-65020639D01*
X153974217Y-64977931D01*
X153904168Y-64955109D01*
X153829661Y-64953046D01*
X153756699Y-64972614D01*
X153756699Y-64972614D01*
G37*
X153756699Y-64972614D02*
X153744168Y-64978514D01*
X153700799Y-65010283D01*
X153659790Y-65056646D01*
X153629168Y-65107696D01*
X153620459Y-65131166D01*
X153612512Y-65173091D01*
X153607774Y-65223757D01*
X153607199Y-65244679D01*
X153607129Y-65310693D01*
X153987083Y-65310693D01*
X153978983Y-65345273D01*
X153959104Y-65386170D01*
X153924347Y-65421514D01*
X153882998Y-65444282D01*
X153856649Y-65449010D01*
X153820916Y-65443273D01*
X153778282Y-65428882D01*
X153763799Y-65422262D01*
X153710240Y-65395513D01*
X153664533Y-65430376D01*
X153638158Y-65453955D01*
X153624124Y-65473417D01*
X153623414Y-65479129D01*
X153635951Y-65492973D01*
X153663428Y-65514012D01*
X153688366Y-65530425D01*
X153755664Y-65559930D01*
X153831110Y-65573284D01*
X153905888Y-65569812D01*
X153965495Y-65551663D01*
X154026941Y-65512784D01*
X154070608Y-65461595D01*
X154097926Y-65395367D01*
X154110322Y-65311371D01*
X154111421Y-65272936D01*
X154107022Y-65184861D01*
X154106482Y-65182299D01*
X153980582Y-65182299D01*
X153977115Y-65190558D01*
X153962863Y-65195113D01*
X153933470Y-65197065D01*
X153884575Y-65197517D01*
X153865748Y-65197525D01*
X153808467Y-65196843D01*
X153772141Y-65194364D01*
X153752604Y-65189443D01*
X153745690Y-65181434D01*
X153745445Y-65178862D01*
X153753336Y-65158423D01*
X153773085Y-65129789D01*
X153781575Y-65119763D01*
X153813094Y-65091408D01*
X153845949Y-65080259D01*
X153863651Y-65079327D01*
X153911539Y-65090981D01*
X153951699Y-65122285D01*
X153977173Y-65167752D01*
X153977625Y-65169233D01*
X153980582Y-65182299D01*
X154106482Y-65182299D01*
X154092392Y-65115510D01*
X154066038Y-65060025D01*
X154033807Y-65020639D01*
X153974217Y-64977931D01*
X153904168Y-64955109D01*
X153829661Y-64953046D01*
X153756699Y-64972614D01*
G36*
X154938261Y-64965148D02*
X154872479Y-64994231D01*
X154822540Y-65042793D01*
X154788374Y-65110908D01*
X154769907Y-65198651D01*
X154768583Y-65212351D01*
X154767546Y-65308939D01*
X154780993Y-65393602D01*
X154808108Y-65462221D01*
X154822627Y-65484294D01*
X154873201Y-65531011D01*
X154937609Y-65561268D01*
X155009666Y-65573824D01*
X155083185Y-65567439D01*
X155139072Y-65547772D01*
X155187132Y-65514629D01*
X155226412Y-65471175D01*
X155227092Y-65470158D01*
X155243044Y-65443338D01*
X155253410Y-65416368D01*
X155259688Y-65382332D01*
X155263373Y-65334310D01*
X155264997Y-65294931D01*
X155265672Y-65259219D01*
X155139955Y-65259219D01*
X155138726Y-65294770D01*
X155134266Y-65342094D01*
X155126397Y-65372465D01*
X155112207Y-65394072D01*
X155098917Y-65406694D01*
X155051802Y-65433122D01*
X155002505Y-65436653D01*
X154956593Y-65417639D01*
X154933638Y-65396331D01*
X154917096Y-65374859D01*
X154907421Y-65354313D01*
X154903174Y-65327574D01*
X154902920Y-65287523D01*
X154904228Y-65250638D01*
X154907043Y-65197947D01*
X154911505Y-65163772D01*
X154919548Y-65141480D01*
X154933103Y-65124442D01*
X154943845Y-65114703D01*
X154988777Y-65089123D01*
X155037249Y-65087847D01*
X155077894Y-65102999D01*
X155112567Y-65134642D01*
X155133224Y-65186620D01*
X155139955Y-65259219D01*
X155265672Y-65259219D01*
X155266479Y-65216621D01*
X155263948Y-65158056D01*
X155256362Y-65114007D01*
X155242681Y-65079248D01*
X155221865Y-65048551D01*
X155214147Y-65039436D01*
X155165889Y-64994021D01*
X155114128Y-64967493D01*
X155050828Y-64956379D01*
X155019961Y-64955471D01*
X154938261Y-64965148D01*
X154938261Y-64965148D01*
G37*
X154938261Y-64965148D02*
X154872479Y-64994231D01*
X154822540Y-65042793D01*
X154788374Y-65110908D01*
X154769907Y-65198651D01*
X154768583Y-65212351D01*
X154767546Y-65308939D01*
X154780993Y-65393602D01*
X154808108Y-65462221D01*
X154822627Y-65484294D01*
X154873201Y-65531011D01*
X154937609Y-65561268D01*
X155009666Y-65573824D01*
X155083185Y-65567439D01*
X155139072Y-65547772D01*
X155187132Y-65514629D01*
X155226412Y-65471175D01*
X155227092Y-65470158D01*
X155243044Y-65443338D01*
X155253410Y-65416368D01*
X155259688Y-65382332D01*
X155263373Y-65334310D01*
X155264997Y-65294931D01*
X155265672Y-65259219D01*
X155139955Y-65259219D01*
X155138726Y-65294770D01*
X155134266Y-65342094D01*
X155126397Y-65372465D01*
X155112207Y-65394072D01*
X155098917Y-65406694D01*
X155051802Y-65433122D01*
X155002505Y-65436653D01*
X154956593Y-65417639D01*
X154933638Y-65396331D01*
X154917096Y-65374859D01*
X154907421Y-65354313D01*
X154903174Y-65327574D01*
X154902920Y-65287523D01*
X154904228Y-65250638D01*
X154907043Y-65197947D01*
X154911505Y-65163772D01*
X154919548Y-65141480D01*
X154933103Y-65124442D01*
X154943845Y-65114703D01*
X154988777Y-65089123D01*
X155037249Y-65087847D01*
X155077894Y-65102999D01*
X155112567Y-65134642D01*
X155133224Y-65186620D01*
X155139955Y-65259219D01*
X155265672Y-65259219D01*
X155266479Y-65216621D01*
X155263948Y-65158056D01*
X155256362Y-65114007D01*
X155242681Y-65079248D01*
X155221865Y-65048551D01*
X155214147Y-65039436D01*
X155165889Y-64994021D01*
X155114128Y-64967493D01*
X155050828Y-64956379D01*
X155019961Y-64955471D01*
X154938261Y-64965148D01*
G36*
X150367419Y-65904970D02*
X150307315Y-65920597D01*
X150256979Y-65952848D01*
X150232607Y-65976940D01*
X150192655Y-66033895D01*
X150169758Y-66099965D01*
X150161892Y-66181182D01*
X150161852Y-66187748D01*
X150161782Y-66253763D01*
X150541736Y-66253763D01*
X150533637Y-66288342D01*
X150519013Y-66319659D01*
X150493419Y-66352291D01*
X150488065Y-66357500D01*
X150442057Y-66385694D01*
X150389590Y-66390475D01*
X150329197Y-66371926D01*
X150318960Y-66366931D01*
X150287561Y-66351745D01*
X150266530Y-66343094D01*
X150262861Y-66342293D01*
X150250052Y-66350063D01*
X150225622Y-66369072D01*
X150213221Y-66379460D01*
X150187524Y-66403321D01*
X150179085Y-66419077D01*
X150184942Y-66433571D01*
X150188072Y-66437534D01*
X150209275Y-66454879D01*
X150244262Y-66475959D01*
X150268663Y-66488265D01*
X150337928Y-66509946D01*
X150414612Y-66516971D01*
X150487235Y-66508647D01*
X150507574Y-66502686D01*
X150570524Y-66468952D01*
X150617185Y-66417045D01*
X150647827Y-66346459D01*
X150662718Y-66256692D01*
X150664353Y-66209753D01*
X150659579Y-66141413D01*
X150539010Y-66141413D01*
X150527348Y-66146465D01*
X150496002Y-66150429D01*
X150450429Y-66152768D01*
X150419554Y-66153169D01*
X150364019Y-66152783D01*
X150328967Y-66150975D01*
X150309738Y-66146773D01*
X150301670Y-66139203D01*
X150300099Y-66128218D01*
X150310879Y-66094381D01*
X150338020Y-66060940D01*
X150373723Y-66035272D01*
X150409440Y-66024772D01*
X150457952Y-66034086D01*
X150499947Y-66061013D01*
X150529064Y-66099827D01*
X150539010Y-66141413D01*
X150659579Y-66141413D01*
X150657401Y-66110236D01*
X150635945Y-66030949D01*
X150599530Y-65971263D01*
X150547703Y-65930549D01*
X150480010Y-65908179D01*
X150443338Y-65903871D01*
X150367419Y-65904970D01*
X150367419Y-65904970D01*
G37*
X150367419Y-65904970D02*
X150307315Y-65920597D01*
X150256979Y-65952848D01*
X150232607Y-65976940D01*
X150192655Y-66033895D01*
X150169758Y-66099965D01*
X150161892Y-66181182D01*
X150161852Y-66187748D01*
X150161782Y-66253763D01*
X150541736Y-66253763D01*
X150533637Y-66288342D01*
X150519013Y-66319659D01*
X150493419Y-66352291D01*
X150488065Y-66357500D01*
X150442057Y-66385694D01*
X150389590Y-66390475D01*
X150329197Y-66371926D01*
X150318960Y-66366931D01*
X150287561Y-66351745D01*
X150266530Y-66343094D01*
X150262861Y-66342293D01*
X150250052Y-66350063D01*
X150225622Y-66369072D01*
X150213221Y-66379460D01*
X150187524Y-66403321D01*
X150179085Y-66419077D01*
X150184942Y-66433571D01*
X150188072Y-66437534D01*
X150209275Y-66454879D01*
X150244262Y-66475959D01*
X150268663Y-66488265D01*
X150337928Y-66509946D01*
X150414612Y-66516971D01*
X150487235Y-66508647D01*
X150507574Y-66502686D01*
X150570524Y-66468952D01*
X150617185Y-66417045D01*
X150647827Y-66346459D01*
X150662718Y-66256692D01*
X150664353Y-66209753D01*
X150659579Y-66141413D01*
X150539010Y-66141413D01*
X150527348Y-66146465D01*
X150496002Y-66150429D01*
X150450429Y-66152768D01*
X150419554Y-66153169D01*
X150364019Y-66152783D01*
X150328967Y-66150975D01*
X150309738Y-66146773D01*
X150301670Y-66139203D01*
X150300099Y-66128218D01*
X150310879Y-66094381D01*
X150338020Y-66060940D01*
X150373723Y-66035272D01*
X150409440Y-66024772D01*
X150457952Y-66034086D01*
X150499947Y-66061013D01*
X150529064Y-66099827D01*
X150539010Y-66141413D01*
X150659579Y-66141413D01*
X150657401Y-66110236D01*
X150635945Y-66030949D01*
X150599530Y-65971263D01*
X150547703Y-65930549D01*
X150480010Y-65908179D01*
X150443338Y-65903871D01*
X150367419Y-65904970D01*
G36*
X150764745Y-65901486D02*
X150716405Y-65911015D01*
X150688886Y-65925125D01*
X150659936Y-65948568D01*
X150701124Y-66000571D01*
X150726518Y-66032064D01*
X150743762Y-66047428D01*
X150760898Y-66049776D01*
X150785973Y-66042217D01*
X150797743Y-66037941D01*
X150845730Y-66031631D01*
X150889676Y-66045156D01*
X150921940Y-66075710D01*
X150927181Y-66085452D01*
X150932888Y-66111258D01*
X150937294Y-66158817D01*
X150940189Y-66224758D01*
X150941369Y-66305710D01*
X150941386Y-66317226D01*
X150941386Y-66517822D01*
X151079703Y-66517822D01*
X151079703Y-65901683D01*
X151010544Y-65901683D01*
X150970667Y-65902725D01*
X150949893Y-65907358D01*
X150942211Y-65917849D01*
X150941386Y-65927745D01*
X150941386Y-65953806D01*
X150908255Y-65927745D01*
X150870265Y-65909965D01*
X150819230Y-65901174D01*
X150764745Y-65901486D01*
X150764745Y-65901486D01*
G37*
X150764745Y-65901486D02*
X150716405Y-65911015D01*
X150688886Y-65925125D01*
X150659936Y-65948568D01*
X150701124Y-66000571D01*
X150726518Y-66032064D01*
X150743762Y-66047428D01*
X150760898Y-66049776D01*
X150785973Y-66042217D01*
X150797743Y-66037941D01*
X150845730Y-66031631D01*
X150889676Y-66045156D01*
X150921940Y-66075710D01*
X150927181Y-66085452D01*
X150932888Y-66111258D01*
X150937294Y-66158817D01*
X150940189Y-66224758D01*
X150941369Y-66305710D01*
X150941386Y-66317226D01*
X150941386Y-66517822D01*
X151079703Y-66517822D01*
X151079703Y-65901683D01*
X151010544Y-65901683D01*
X150970667Y-65902725D01*
X150949893Y-65907358D01*
X150942211Y-65917849D01*
X150941386Y-65927745D01*
X150941386Y-65953806D01*
X150908255Y-65927745D01*
X150870265Y-65909965D01*
X150819230Y-65901174D01*
X150764745Y-65901486D01*
G36*
X151361589Y-65905417D02*
X151308589Y-65918290D01*
X151293269Y-65925110D01*
X151263572Y-65942974D01*
X151240780Y-65963093D01*
X151223917Y-65988962D01*
X151212002Y-66024073D01*
X151204058Y-66071920D01*
X151199106Y-66135996D01*
X151196169Y-66219794D01*
X151195053Y-66275768D01*
X151190948Y-66517822D01*
X151261068Y-66517822D01*
X151303607Y-66516038D01*
X151325524Y-66509942D01*
X151331188Y-66499706D01*
X151334179Y-66488637D01*
X151347549Y-66490754D01*
X151365767Y-66499629D01*
X151411376Y-66513233D01*
X151469993Y-66516899D01*
X151531646Y-66510903D01*
X151586362Y-66495521D01*
X151591270Y-66493386D01*
X151641277Y-66458255D01*
X151674244Y-66409419D01*
X151689413Y-66352333D01*
X151688254Y-66331824D01*
X151564492Y-66331824D01*
X151553587Y-66359425D01*
X151521255Y-66379204D01*
X151469090Y-66389819D01*
X151441213Y-66391228D01*
X151394753Y-66387620D01*
X151363871Y-66373597D01*
X151356336Y-66366931D01*
X151335924Y-66330666D01*
X151331188Y-66297773D01*
X151331188Y-66253763D01*
X151392487Y-66253763D01*
X151463744Y-66257395D01*
X151513724Y-66268818D01*
X151545304Y-66288824D01*
X151552374Y-66297743D01*
X151564492Y-66331824D01*
X151688254Y-66331824D01*
X151686029Y-66292456D01*
X151663337Y-66235244D01*
X151632376Y-66196580D01*
X151613624Y-66179864D01*
X151595267Y-66168878D01*
X151571381Y-66162180D01*
X151536043Y-66158326D01*
X151483331Y-66155873D01*
X151462423Y-66155168D01*
X151331188Y-66150879D01*
X151331380Y-66111158D01*
X151336463Y-66069405D01*
X151354838Y-66044158D01*
X151391961Y-66028030D01*
X151392957Y-66027742D01*
X151445590Y-66021400D01*
X151497094Y-66029684D01*
X151535370Y-66049827D01*
X151550728Y-66059773D01*
X151567270Y-66058397D01*
X151592725Y-66043987D01*
X151607672Y-66033817D01*
X151636909Y-66012088D01*
X151655020Y-65995800D01*
X151657926Y-65991137D01*
X151645960Y-65967005D01*
X151610604Y-65938185D01*
X151595247Y-65928461D01*
X151551099Y-65911714D01*
X151491602Y-65902227D01*
X151425513Y-65900095D01*
X151361589Y-65905417D01*
X151361589Y-65905417D01*
G37*
X151361589Y-65905417D02*
X151308589Y-65918290D01*
X151293269Y-65925110D01*
X151263572Y-65942974D01*
X151240780Y-65963093D01*
X151223917Y-65988962D01*
X151212002Y-66024073D01*
X151204058Y-66071920D01*
X151199106Y-66135996D01*
X151196169Y-66219794D01*
X151195053Y-66275768D01*
X151190948Y-66517822D01*
X151261068Y-66517822D01*
X151303607Y-66516038D01*
X151325524Y-66509942D01*
X151331188Y-66499706D01*
X151334179Y-66488637D01*
X151347549Y-66490754D01*
X151365767Y-66499629D01*
X151411376Y-66513233D01*
X151469993Y-66516899D01*
X151531646Y-66510903D01*
X151586362Y-66495521D01*
X151591270Y-66493386D01*
X151641277Y-66458255D01*
X151674244Y-66409419D01*
X151689413Y-66352333D01*
X151688254Y-66331824D01*
X151564492Y-66331824D01*
X151553587Y-66359425D01*
X151521255Y-66379204D01*
X151469090Y-66389819D01*
X151441213Y-66391228D01*
X151394753Y-66387620D01*
X151363871Y-66373597D01*
X151356336Y-66366931D01*
X151335924Y-66330666D01*
X151331188Y-66297773D01*
X151331188Y-66253763D01*
X151392487Y-66253763D01*
X151463744Y-66257395D01*
X151513724Y-66268818D01*
X151545304Y-66288824D01*
X151552374Y-66297743D01*
X151564492Y-66331824D01*
X151688254Y-66331824D01*
X151686029Y-66292456D01*
X151663337Y-66235244D01*
X151632376Y-66196580D01*
X151613624Y-66179864D01*
X151595267Y-66168878D01*
X151571381Y-66162180D01*
X151536043Y-66158326D01*
X151483331Y-66155873D01*
X151462423Y-66155168D01*
X151331188Y-66150879D01*
X151331380Y-66111158D01*
X151336463Y-66069405D01*
X151354838Y-66044158D01*
X151391961Y-66028030D01*
X151392957Y-66027742D01*
X151445590Y-66021400D01*
X151497094Y-66029684D01*
X151535370Y-66049827D01*
X151550728Y-66059773D01*
X151567270Y-66058397D01*
X151592725Y-66043987D01*
X151607672Y-66033817D01*
X151636909Y-66012088D01*
X151655020Y-65995800D01*
X151657926Y-65991137D01*
X151645960Y-65967005D01*
X151610604Y-65938185D01*
X151595247Y-65928461D01*
X151551099Y-65911714D01*
X151491602Y-65902227D01*
X151425513Y-65900095D01*
X151361589Y-65905417D01*
G36*
X152118476Y-65904237D02*
X152068745Y-65907971D01*
X151938709Y-66297773D01*
X151918322Y-66228614D01*
X151906054Y-66185874D01*
X151889915Y-66128115D01*
X151872488Y-66064625D01*
X151863274Y-66030570D01*
X151828612Y-65901683D01*
X151685609Y-65901683D01*
X151728354Y-66036857D01*
X151749404Y-66103342D01*
X151774833Y-66183539D01*
X151801390Y-66267193D01*
X151825098Y-66341782D01*
X151879098Y-66511535D01*
X151937402Y-66515328D01*
X151995705Y-66519122D01*
X152027321Y-66414734D01*
X152046818Y-66349889D01*
X152068096Y-66278400D01*
X152086692Y-66215263D01*
X152087426Y-66212750D01*
X152101316Y-66169969D01*
X152113571Y-66140779D01*
X152122154Y-66129741D01*
X152123918Y-66131018D01*
X152130109Y-66148130D01*
X152141872Y-66184787D01*
X152157775Y-66236378D01*
X152176386Y-66298294D01*
X152186457Y-66332352D01*
X152240993Y-66517822D01*
X152356736Y-66517822D01*
X152449263Y-66225471D01*
X152475256Y-66143462D01*
X152498934Y-66068987D01*
X152519180Y-66005544D01*
X152534874Y-65956632D01*
X152544898Y-65925749D01*
X152547945Y-65916726D01*
X152545533Y-65907487D01*
X152526592Y-65903441D01*
X152487177Y-65903846D01*
X152481007Y-65904152D01*
X152407914Y-65907971D01*
X152360043Y-66084010D01*
X152342447Y-66148211D01*
X152326723Y-66204649D01*
X152314254Y-66248422D01*
X152306426Y-66274630D01*
X152304980Y-66278903D01*
X152298986Y-66273990D01*
X152286899Y-66248532D01*
X152270107Y-66205997D01*
X152249997Y-66149850D01*
X152232997Y-66099130D01*
X152168206Y-65900504D01*
X152118476Y-65904237D01*
X152118476Y-65904237D01*
G37*
X152118476Y-65904237D02*
X152068745Y-65907971D01*
X151938709Y-66297773D01*
X151918322Y-66228614D01*
X151906054Y-66185874D01*
X151889915Y-66128115D01*
X151872488Y-66064625D01*
X151863274Y-66030570D01*
X151828612Y-65901683D01*
X151685609Y-65901683D01*
X151728354Y-66036857D01*
X151749404Y-66103342D01*
X151774833Y-66183539D01*
X151801390Y-66267193D01*
X151825098Y-66341782D01*
X151879098Y-66511535D01*
X151937402Y-66515328D01*
X151995705Y-66519122D01*
X152027321Y-66414734D01*
X152046818Y-66349889D01*
X152068096Y-66278400D01*
X152086692Y-66215263D01*
X152087426Y-66212750D01*
X152101316Y-66169969D01*
X152113571Y-66140779D01*
X152122154Y-66129741D01*
X152123918Y-66131018D01*
X152130109Y-66148130D01*
X152141872Y-66184787D01*
X152157775Y-66236378D01*
X152176386Y-66298294D01*
X152186457Y-66332352D01*
X152240993Y-66517822D01*
X152356736Y-66517822D01*
X152449263Y-66225471D01*
X152475256Y-66143462D01*
X152498934Y-66068987D01*
X152519180Y-66005544D01*
X152534874Y-65956632D01*
X152544898Y-65925749D01*
X152547945Y-65916726D01*
X152545533Y-65907487D01*
X152526592Y-65903441D01*
X152487177Y-65903846D01*
X152481007Y-65904152D01*
X152407914Y-65907971D01*
X152360043Y-66084010D01*
X152342447Y-66148211D01*
X152326723Y-66204649D01*
X152314254Y-66248422D01*
X152306426Y-66274630D01*
X152304980Y-66278903D01*
X152298986Y-66273990D01*
X152286899Y-66248532D01*
X152270107Y-66205997D01*
X152249997Y-66149850D01*
X152232997Y-66099130D01*
X152168206Y-65900504D01*
X152118476Y-65904237D01*
G36*
X152601188Y-66517822D02*
X152670346Y-66517822D01*
X152710488Y-66516645D01*
X152731394Y-66511772D01*
X152738922Y-66501186D01*
X152739505Y-66494029D01*
X152740774Y-66479676D01*
X152748779Y-66476923D01*
X152769815Y-66485771D01*
X152786173Y-66494029D01*
X152848977Y-66513597D01*
X152917248Y-66514729D01*
X152972752Y-66500135D01*
X153024438Y-66464877D01*
X153063838Y-66412835D01*
X153085413Y-66351450D01*
X153085962Y-66348018D01*
X153089167Y-66310571D01*
X153090761Y-66256813D01*
X153090633Y-66216155D01*
X152953279Y-66216155D01*
X152950097Y-66270194D01*
X152942859Y-66314735D01*
X152933060Y-66339888D01*
X152895989Y-66374260D01*
X152851974Y-66386582D01*
X152806584Y-66376618D01*
X152767797Y-66346895D01*
X152753108Y-66326905D01*
X152744519Y-66303050D01*
X152740496Y-66268230D01*
X152739505Y-66215930D01*
X152741278Y-66164139D01*
X152745963Y-66118634D01*
X152752603Y-66088181D01*
X152753710Y-66085452D01*
X152780491Y-66053000D01*
X152819579Y-66035183D01*
X152863315Y-66032306D01*
X152904038Y-66044674D01*
X152934087Y-66072593D01*
X152937204Y-66078148D01*
X152946961Y-66112022D01*
X152952277Y-66160728D01*
X152953279Y-66216155D01*
X153090633Y-66216155D01*
X153090568Y-66195540D01*
X153089664Y-66162563D01*
X153083514Y-66080981D01*
X153070733Y-66019730D01*
X153049471Y-65974449D01*
X153017878Y-65940779D01*
X152987207Y-65921014D01*
X152944354Y-65907120D01*
X152891056Y-65902354D01*
X152836480Y-65906236D01*
X152789792Y-65918282D01*
X152765124Y-65932693D01*
X152739505Y-65955878D01*
X152739505Y-65662773D01*
X152601188Y-65662773D01*
X152601188Y-66517822D01*
X152601188Y-66517822D01*
G37*
X152601188Y-66517822D02*
X152670346Y-66517822D01*
X152710488Y-66516645D01*
X152731394Y-66511772D01*
X152738922Y-66501186D01*
X152739505Y-66494029D01*
X152740774Y-66479676D01*
X152748779Y-66476923D01*
X152769815Y-66485771D01*
X152786173Y-66494029D01*
X152848977Y-66513597D01*
X152917248Y-66514729D01*
X152972752Y-66500135D01*
X153024438Y-66464877D01*
X153063838Y-66412835D01*
X153085413Y-66351450D01*
X153085962Y-66348018D01*
X153089167Y-66310571D01*
X153090761Y-66256813D01*
X153090633Y-66216155D01*
X152953279Y-66216155D01*
X152950097Y-66270194D01*
X152942859Y-66314735D01*
X152933060Y-66339888D01*
X152895989Y-66374260D01*
X152851974Y-66386582D01*
X152806584Y-66376618D01*
X152767797Y-66346895D01*
X152753108Y-66326905D01*
X152744519Y-66303050D01*
X152740496Y-66268230D01*
X152739505Y-66215930D01*
X152741278Y-66164139D01*
X152745963Y-66118634D01*
X152752603Y-66088181D01*
X152753710Y-66085452D01*
X152780491Y-66053000D01*
X152819579Y-66035183D01*
X152863315Y-66032306D01*
X152904038Y-66044674D01*
X152934087Y-66072593D01*
X152937204Y-66078148D01*
X152946961Y-66112022D01*
X152952277Y-66160728D01*
X152953279Y-66216155D01*
X153090633Y-66216155D01*
X153090568Y-66195540D01*
X153089664Y-66162563D01*
X153083514Y-66080981D01*
X153070733Y-66019730D01*
X153049471Y-65974449D01*
X153017878Y-65940779D01*
X152987207Y-65921014D01*
X152944354Y-65907120D01*
X152891056Y-65902354D01*
X152836480Y-65906236D01*
X152789792Y-65918282D01*
X152765124Y-65932693D01*
X152739505Y-65955878D01*
X152739505Y-65662773D01*
X152601188Y-65662773D01*
X152601188Y-66517822D01*
G36*
X153393356Y-65903020D02*
X153374539Y-65908660D01*
X153368473Y-65921053D01*
X153368218Y-65926647D01*
X153367129Y-65942230D01*
X153359632Y-65944676D01*
X153339381Y-65933993D01*
X153327351Y-65926694D01*
X153289400Y-65911063D01*
X153244072Y-65903334D01*
X153196544Y-65902740D01*
X153151995Y-65908513D01*
X153115602Y-65919884D01*
X153092543Y-65936088D01*
X153087996Y-65956355D01*
X153090291Y-65961843D01*
X153107020Y-65984626D01*
X153132963Y-66012647D01*
X153137655Y-66017177D01*
X153162383Y-66038005D01*
X153183718Y-66044735D01*
X153213555Y-66040038D01*
X153225508Y-66036917D01*
X153262705Y-66029421D01*
X153288859Y-66032792D01*
X153310946Y-66044681D01*
X153331178Y-66060635D01*
X153346079Y-66080700D01*
X153356434Y-66108702D01*
X153363029Y-66148467D01*
X153366649Y-66203823D01*
X153368078Y-66278594D01*
X153368218Y-66323740D01*
X153368218Y-66517822D01*
X153493960Y-66517822D01*
X153493960Y-65901683D01*
X153431089Y-65901683D01*
X153393356Y-65903020D01*
X153393356Y-65903020D01*
G37*
X153393356Y-65903020D02*
X153374539Y-65908660D01*
X153368473Y-65921053D01*
X153368218Y-65926647D01*
X153367129Y-65942230D01*
X153359632Y-65944676D01*
X153339381Y-65933993D01*
X153327351Y-65926694D01*
X153289400Y-65911063D01*
X153244072Y-65903334D01*
X153196544Y-65902740D01*
X153151995Y-65908513D01*
X153115602Y-65919884D01*
X153092543Y-65936088D01*
X153087996Y-65956355D01*
X153090291Y-65961843D01*
X153107020Y-65984626D01*
X153132963Y-66012647D01*
X153137655Y-66017177D01*
X153162383Y-66038005D01*
X153183718Y-66044735D01*
X153213555Y-66040038D01*
X153225508Y-66036917D01*
X153262705Y-66029421D01*
X153288859Y-66032792D01*
X153310946Y-66044681D01*
X153331178Y-66060635D01*
X153346079Y-66080700D01*
X153356434Y-66108702D01*
X153363029Y-66148467D01*
X153366649Y-66203823D01*
X153368078Y-66278594D01*
X153368218Y-66323740D01*
X153368218Y-66517822D01*
X153493960Y-66517822D01*
X153493960Y-65901683D01*
X153431089Y-65901683D01*
X153393356Y-65903020D01*
G36*
X153784210Y-65906555D02*
X153725055Y-65922339D01*
X153680023Y-65950948D01*
X153648246Y-65988419D01*
X153638366Y-66004411D01*
X153631073Y-66021163D01*
X153625974Y-66042592D01*
X153622679Y-66072616D01*
X153620797Y-66115154D01*
X153619937Y-66174122D01*
X153619707Y-66253440D01*
X153619703Y-66274484D01*
X153619703Y-66517822D01*
X153680059Y-66517822D01*
X153718557Y-66515126D01*
X153747023Y-66508295D01*
X153754155Y-66504083D01*
X153773652Y-66496813D01*
X153793566Y-66504083D01*
X153826353Y-66513160D01*
X153873978Y-66516813D01*
X153926764Y-66515228D01*
X153975036Y-66508589D01*
X154003218Y-66500072D01*
X154057753Y-66465063D01*
X154091835Y-66416479D01*
X154107157Y-66351882D01*
X154107299Y-66350223D01*
X154105955Y-66321566D01*
X153984356Y-66321566D01*
X153973726Y-66354161D01*
X153956410Y-66372505D01*
X153921652Y-66386379D01*
X153875773Y-66391917D01*
X153828988Y-66389191D01*
X153791514Y-66378274D01*
X153781015Y-66371269D01*
X153762668Y-66338904D01*
X153758020Y-66302111D01*
X153758020Y-66253763D01*
X153827582Y-66253763D01*
X153893667Y-66258850D01*
X153943764Y-66273263D01*
X153974929Y-66295729D01*
X153984356Y-66321566D01*
X154105955Y-66321566D01*
X154103987Y-66279647D01*
X154080710Y-66223845D01*
X154036948Y-66181647D01*
X154030899Y-66177808D01*
X154004907Y-66165309D01*
X153972735Y-66157740D01*
X153927760Y-66154061D01*
X153874331Y-66153216D01*
X153758020Y-66153169D01*
X153758020Y-66104411D01*
X153762953Y-66066581D01*
X153775543Y-66041236D01*
X153777017Y-66039887D01*
X153805034Y-66028800D01*
X153847326Y-66024503D01*
X153894064Y-66026615D01*
X153935418Y-66034756D01*
X153959957Y-66046965D01*
X153973253Y-66056746D01*
X153987294Y-66058613D01*
X154006671Y-66050600D01*
X154035976Y-66030739D01*
X154079803Y-65997063D01*
X154083825Y-65993909D01*
X154081764Y-65982236D01*
X154064568Y-65962822D01*
X154038433Y-65941248D01*
X154009552Y-65923096D01*
X154000478Y-65918809D01*
X153967380Y-65910256D01*
X153918880Y-65904155D01*
X153864695Y-65901708D01*
X153862161Y-65901703D01*
X153784210Y-65906555D01*
X153784210Y-65906555D01*
G37*
X153784210Y-65906555D02*
X153725055Y-65922339D01*
X153680023Y-65950948D01*
X153648246Y-65988419D01*
X153638366Y-66004411D01*
X153631073Y-66021163D01*
X153625974Y-66042592D01*
X153622679Y-66072616D01*
X153620797Y-66115154D01*
X153619937Y-66174122D01*
X153619707Y-66253440D01*
X153619703Y-66274484D01*
X153619703Y-66517822D01*
X153680059Y-66517822D01*
X153718557Y-66515126D01*
X153747023Y-66508295D01*
X153754155Y-66504083D01*
X153773652Y-66496813D01*
X153793566Y-66504083D01*
X153826353Y-66513160D01*
X153873978Y-66516813D01*
X153926764Y-66515228D01*
X153975036Y-66508589D01*
X154003218Y-66500072D01*
X154057753Y-66465063D01*
X154091835Y-66416479D01*
X154107157Y-66351882D01*
X154107299Y-66350223D01*
X154105955Y-66321566D01*
X153984356Y-66321566D01*
X153973726Y-66354161D01*
X153956410Y-66372505D01*
X153921652Y-66386379D01*
X153875773Y-66391917D01*
X153828988Y-66389191D01*
X153791514Y-66378274D01*
X153781015Y-66371269D01*
X153762668Y-66338904D01*
X153758020Y-66302111D01*
X153758020Y-66253763D01*
X153827582Y-66253763D01*
X153893667Y-66258850D01*
X153943764Y-66273263D01*
X153974929Y-66295729D01*
X153984356Y-66321566D01*
X154105955Y-66321566D01*
X154103987Y-66279647D01*
X154080710Y-66223845D01*
X154036948Y-66181647D01*
X154030899Y-66177808D01*
X154004907Y-66165309D01*
X153972735Y-66157740D01*
X153927760Y-66154061D01*
X153874331Y-66153216D01*
X153758020Y-66153169D01*
X153758020Y-66104411D01*
X153762953Y-66066581D01*
X153775543Y-66041236D01*
X153777017Y-66039887D01*
X153805034Y-66028800D01*
X153847326Y-66024503D01*
X153894064Y-66026615D01*
X153935418Y-66034756D01*
X153959957Y-66046965D01*
X153973253Y-66056746D01*
X153987294Y-66058613D01*
X154006671Y-66050600D01*
X154035976Y-66030739D01*
X154079803Y-65997063D01*
X154083825Y-65993909D01*
X154081764Y-65982236D01*
X154064568Y-65962822D01*
X154038433Y-65941248D01*
X154009552Y-65923096D01*
X154000478Y-65918809D01*
X153967380Y-65910256D01*
X153918880Y-65904155D01*
X153864695Y-65901708D01*
X153862161Y-65901703D01*
X153784210Y-65906555D01*
G36*
X154308759Y-64969184D02*
X154282247Y-64982282D01*
X154249553Y-65005106D01*
X154225725Y-65029996D01*
X154209406Y-65061249D01*
X154199240Y-65103166D01*
X154193872Y-65160044D01*
X154191944Y-65236184D01*
X154191831Y-65268917D01*
X154192161Y-65340656D01*
X154193527Y-65391927D01*
X154196500Y-65427404D01*
X154201649Y-65451763D01*
X154209543Y-65469680D01*
X154217757Y-65481902D01*
X154270187Y-65533905D01*
X154331930Y-65565184D01*
X154398536Y-65574592D01*
X154465558Y-65560980D01*
X154486792Y-65551354D01*
X154537624Y-65524859D01*
X154537624Y-65940052D01*
X154500525Y-65920868D01*
X154451643Y-65906025D01*
X154391561Y-65902222D01*
X154331564Y-65909243D01*
X154286256Y-65925013D01*
X154248675Y-65955047D01*
X154216564Y-65998024D01*
X154214150Y-66002436D01*
X154203967Y-66023221D01*
X154196530Y-66044170D01*
X154191411Y-66069548D01*
X154188181Y-66103618D01*
X154186413Y-66150641D01*
X154185677Y-66214882D01*
X154185544Y-66287176D01*
X154185544Y-66517822D01*
X154323861Y-66517822D01*
X154323861Y-66092533D01*
X154362549Y-66059979D01*
X154402738Y-66033940D01*
X154440797Y-66029205D01*
X154479066Y-66041389D01*
X154499462Y-66053320D01*
X154514642Y-66070313D01*
X154525438Y-66095995D01*
X154532683Y-66133991D01*
X154537208Y-66187926D01*
X154539844Y-66261425D01*
X154540772Y-66310347D01*
X154543911Y-66511535D01*
X154609926Y-66515336D01*
X154675940Y-66519136D01*
X154675940Y-65270650D01*
X154537624Y-65270650D01*
X154534097Y-65340254D01*
X154522215Y-65388569D01*
X154500020Y-65418631D01*
X154465559Y-65433471D01*
X154430742Y-65436436D01*
X154391329Y-65433028D01*
X154365171Y-65419617D01*
X154348814Y-65401896D01*
X154335937Y-65382835D01*
X154328272Y-65361601D01*
X154324861Y-65331849D01*
X154324749Y-65287236D01*
X154325897Y-65249880D01*
X154328532Y-65193604D01*
X154332456Y-65156658D01*
X154339063Y-65133223D01*
X154349749Y-65117480D01*
X154359833Y-65108380D01*
X154401970Y-65088537D01*
X154451840Y-65085332D01*
X154480476Y-65092168D01*
X154508828Y-65116464D01*
X154527609Y-65163728D01*
X154536712Y-65233624D01*
X154537624Y-65270650D01*
X154675940Y-65270650D01*
X154675940Y-64958614D01*
X154606782Y-64958614D01*
X154565260Y-64960256D01*
X154543838Y-64966087D01*
X154537626Y-64977461D01*
X154537624Y-64977798D01*
X154534742Y-64988938D01*
X154522030Y-64987673D01*
X154496757Y-64975433D01*
X154437869Y-64956707D01*
X154371615Y-64954739D01*
X154308759Y-64969184D01*
X154308759Y-64969184D01*
G37*
X154308759Y-64969184D02*
X154282247Y-64982282D01*
X154249553Y-65005106D01*
X154225725Y-65029996D01*
X154209406Y-65061249D01*
X154199240Y-65103166D01*
X154193872Y-65160044D01*
X154191944Y-65236184D01*
X154191831Y-65268917D01*
X154192161Y-65340656D01*
X154193527Y-65391927D01*
X154196500Y-65427404D01*
X154201649Y-65451763D01*
X154209543Y-65469680D01*
X154217757Y-65481902D01*
X154270187Y-65533905D01*
X154331930Y-65565184D01*
X154398536Y-65574592D01*
X154465558Y-65560980D01*
X154486792Y-65551354D01*
X154537624Y-65524859D01*
X154537624Y-65940052D01*
X154500525Y-65920868D01*
X154451643Y-65906025D01*
X154391561Y-65902222D01*
X154331564Y-65909243D01*
X154286256Y-65925013D01*
X154248675Y-65955047D01*
X154216564Y-65998024D01*
X154214150Y-66002436D01*
X154203967Y-66023221D01*
X154196530Y-66044170D01*
X154191411Y-66069548D01*
X154188181Y-66103618D01*
X154186413Y-66150641D01*
X154185677Y-66214882D01*
X154185544Y-66287176D01*
X154185544Y-66517822D01*
X154323861Y-66517822D01*
X154323861Y-66092533D01*
X154362549Y-66059979D01*
X154402738Y-66033940D01*
X154440797Y-66029205D01*
X154479066Y-66041389D01*
X154499462Y-66053320D01*
X154514642Y-66070313D01*
X154525438Y-66095995D01*
X154532683Y-66133991D01*
X154537208Y-66187926D01*
X154539844Y-66261425D01*
X154540772Y-66310347D01*
X154543911Y-66511535D01*
X154609926Y-66515336D01*
X154675940Y-66519136D01*
X154675940Y-65270650D01*
X154537624Y-65270650D01*
X154534097Y-65340254D01*
X154522215Y-65388569D01*
X154500020Y-65418631D01*
X154465559Y-65433471D01*
X154430742Y-65436436D01*
X154391329Y-65433028D01*
X154365171Y-65419617D01*
X154348814Y-65401896D01*
X154335937Y-65382835D01*
X154328272Y-65361601D01*
X154324861Y-65331849D01*
X154324749Y-65287236D01*
X154325897Y-65249880D01*
X154328532Y-65193604D01*
X154332456Y-65156658D01*
X154339063Y-65133223D01*
X154349749Y-65117480D01*
X154359833Y-65108380D01*
X154401970Y-65088537D01*
X154451840Y-65085332D01*
X154480476Y-65092168D01*
X154508828Y-65116464D01*
X154527609Y-65163728D01*
X154536712Y-65233624D01*
X154537624Y-65270650D01*
X154675940Y-65270650D01*
X154675940Y-64958614D01*
X154606782Y-64958614D01*
X154565260Y-64960256D01*
X154543838Y-64966087D01*
X154537626Y-64977461D01*
X154537624Y-64977798D01*
X154534742Y-64988938D01*
X154522030Y-64987673D01*
X154496757Y-64975433D01*
X154437869Y-64956707D01*
X154371615Y-64954739D01*
X154308759Y-64969184D01*
D12*
G04 #@! TO.C,TP3*
X137095000Y-62549000D02*
X138495000Y-62549000D01*
X138495000Y-62549000D02*
X138495000Y-61149000D01*
X138495000Y-61149000D02*
X137095000Y-61149000D01*
X137095000Y-61149000D02*
X137095000Y-62549000D01*
D13*
G04 #@! TO.C,REF\002A\002A*
G36*
X144615957Y-60712835D02*
X144592935Y-60750245D01*
X144557466Y-60809514D01*
X144511004Y-60888118D01*
X144455004Y-60983538D01*
X144390919Y-61093250D01*
X144320204Y-61214734D01*
X144244313Y-61345468D01*
X144164701Y-61482930D01*
X144082822Y-61624598D01*
X144000130Y-61767951D01*
X143918079Y-61910467D01*
X143838124Y-62049624D01*
X143761719Y-62182901D01*
X143690318Y-62307776D01*
X143625376Y-62421727D01*
X143568347Y-62522233D01*
X143520685Y-62606772D01*
X143483845Y-62672822D01*
X143459280Y-62717862D01*
X143448446Y-62739370D01*
X143448049Y-62740714D01*
X143461499Y-62758965D01*
X143498886Y-62786882D01*
X143555765Y-62821725D01*
X143627688Y-62860754D01*
X143702985Y-62897843D01*
X143805440Y-62942817D01*
X143913183Y-62983226D01*
X144029927Y-63019969D01*
X144159382Y-63053942D01*
X144305260Y-63086044D01*
X144471274Y-63117173D01*
X144661134Y-63148227D01*
X144857531Y-63177145D01*
X145028166Y-63202800D01*
X145171455Y-63228198D01*
X145290992Y-63254602D01*
X145390370Y-63283273D01*
X145473182Y-63315473D01*
X145543022Y-63352465D01*
X145603482Y-63395512D01*
X145658155Y-63445875D01*
X145675786Y-63464583D01*
X145714000Y-63508139D01*
X145742268Y-63543682D01*
X145755382Y-63564583D01*
X145755732Y-63566297D01*
X145760320Y-63576806D01*
X145776242Y-63576924D01*
X145806734Y-63565254D01*
X145855032Y-63540396D01*
X145924373Y-63500952D01*
X145972561Y-63472587D01*
X146044417Y-63428247D01*
X146100258Y-63390279D01*
X146136333Y-63361416D01*
X146148887Y-63344388D01*
X146148879Y-63344264D01*
X146141094Y-63328037D01*
X146119108Y-63287400D01*
X146084197Y-63224567D01*
X146037637Y-63141752D01*
X145980705Y-63041172D01*
X145914677Y-62925040D01*
X145840828Y-62795571D01*
X145760436Y-62654980D01*
X145674776Y-62505482D01*
X145585124Y-62349292D01*
X145492757Y-62188624D01*
X145398951Y-62025693D01*
X145304982Y-61862713D01*
X145212126Y-61701900D01*
X145121660Y-61545468D01*
X145034859Y-61395633D01*
X144953000Y-61254608D01*
X144877359Y-61124609D01*
X144809213Y-61007849D01*
X144749837Y-60906545D01*
X144700507Y-60822911D01*
X144662500Y-60759162D01*
X144637093Y-60717511D01*
X144625560Y-60700175D01*
X144625077Y-60699805D01*
X144615957Y-60712835D01*
X144615957Y-60712835D01*
G37*
X144615957Y-60712835D02*
X144592935Y-60750245D01*
X144557466Y-60809514D01*
X144511004Y-60888118D01*
X144455004Y-60983538D01*
X144390919Y-61093250D01*
X144320204Y-61214734D01*
X144244313Y-61345468D01*
X144164701Y-61482930D01*
X144082822Y-61624598D01*
X144000130Y-61767951D01*
X143918079Y-61910467D01*
X143838124Y-62049624D01*
X143761719Y-62182901D01*
X143690318Y-62307776D01*
X143625376Y-62421727D01*
X143568347Y-62522233D01*
X143520685Y-62606772D01*
X143483845Y-62672822D01*
X143459280Y-62717862D01*
X143448446Y-62739370D01*
X143448049Y-62740714D01*
X143461499Y-62758965D01*
X143498886Y-62786882D01*
X143555765Y-62821725D01*
X143627688Y-62860754D01*
X143702985Y-62897843D01*
X143805440Y-62942817D01*
X143913183Y-62983226D01*
X144029927Y-63019969D01*
X144159382Y-63053942D01*
X144305260Y-63086044D01*
X144471274Y-63117173D01*
X144661134Y-63148227D01*
X144857531Y-63177145D01*
X145028166Y-63202800D01*
X145171455Y-63228198D01*
X145290992Y-63254602D01*
X145390370Y-63283273D01*
X145473182Y-63315473D01*
X145543022Y-63352465D01*
X145603482Y-63395512D01*
X145658155Y-63445875D01*
X145675786Y-63464583D01*
X145714000Y-63508139D01*
X145742268Y-63543682D01*
X145755382Y-63564583D01*
X145755732Y-63566297D01*
X145760320Y-63576806D01*
X145776242Y-63576924D01*
X145806734Y-63565254D01*
X145855032Y-63540396D01*
X145924373Y-63500952D01*
X145972561Y-63472587D01*
X146044417Y-63428247D01*
X146100258Y-63390279D01*
X146136333Y-63361416D01*
X146148887Y-63344388D01*
X146148879Y-63344264D01*
X146141094Y-63328037D01*
X146119108Y-63287400D01*
X146084197Y-63224567D01*
X146037637Y-63141752D01*
X145980705Y-63041172D01*
X145914677Y-62925040D01*
X145840828Y-62795571D01*
X145760436Y-62654980D01*
X145674776Y-62505482D01*
X145585124Y-62349292D01*
X145492757Y-62188624D01*
X145398951Y-62025693D01*
X145304982Y-61862713D01*
X145212126Y-61701900D01*
X145121660Y-61545468D01*
X145034859Y-61395633D01*
X144953000Y-61254608D01*
X144877359Y-61124609D01*
X144809213Y-61007849D01*
X144749837Y-60906545D01*
X144700507Y-60822911D01*
X144662500Y-60759162D01*
X144637093Y-60717511D01*
X144625560Y-60700175D01*
X144625077Y-60699805D01*
X144615957Y-60712835D01*
G36*
X142792472Y-63861619D02*
X142781092Y-63880693D01*
X142755512Y-63924421D01*
X142716998Y-63990619D01*
X142666814Y-64077102D01*
X142606225Y-64181685D01*
X142536497Y-64302183D01*
X142458893Y-64436412D01*
X142374680Y-64582187D01*
X142285121Y-64737323D01*
X142193002Y-64897000D01*
X142098924Y-65060117D01*
X142008598Y-65216709D01*
X141923335Y-65364506D01*
X141844443Y-65501240D01*
X141773231Y-65624642D01*
X141711009Y-65732444D01*
X141659087Y-65822377D01*
X141618772Y-65892173D01*
X141591376Y-65939564D01*
X141578493Y-65961786D01*
X141557493Y-65999330D01*
X141546075Y-66022831D01*
X141545449Y-66026920D01*
X141559364Y-66019242D01*
X141598059Y-65997203D01*
X141659513Y-65961971D01*
X141741702Y-65914711D01*
X141842604Y-65856589D01*
X141960195Y-65788771D01*
X142092454Y-65712424D01*
X142237358Y-65628714D01*
X142392883Y-65538806D01*
X142557008Y-65443867D01*
X142619451Y-65407732D01*
X142786513Y-65311083D01*
X142945926Y-65218938D01*
X143095645Y-65132475D01*
X143233624Y-65052871D01*
X143357815Y-64981305D01*
X143466173Y-64918955D01*
X143556652Y-64866998D01*
X143627204Y-64826613D01*
X143675785Y-64798978D01*
X143700346Y-64785272D01*
X143702915Y-64783974D01*
X143695431Y-64772220D01*
X143669386Y-64740795D01*
X143627441Y-64692594D01*
X143572254Y-64630510D01*
X143506483Y-64557439D01*
X143432788Y-64476276D01*
X143353827Y-64389916D01*
X143272260Y-64301253D01*
X143190746Y-64213182D01*
X143111943Y-64128599D01*
X143038510Y-64050397D01*
X142973107Y-63981472D01*
X142918392Y-63924719D01*
X142877023Y-63883032D01*
X142862836Y-63869363D01*
X142815820Y-63825201D01*
X142792472Y-63861619D01*
X142792472Y-63861619D01*
G37*
X142792472Y-63861619D02*
X142781092Y-63880693D01*
X142755512Y-63924421D01*
X142716998Y-63990619D01*
X142666814Y-64077102D01*
X142606225Y-64181685D01*
X142536497Y-64302183D01*
X142458893Y-64436412D01*
X142374680Y-64582187D01*
X142285121Y-64737323D01*
X142193002Y-64897000D01*
X142098924Y-65060117D01*
X142008598Y-65216709D01*
X141923335Y-65364506D01*
X141844443Y-65501240D01*
X141773231Y-65624642D01*
X141711009Y-65732444D01*
X141659087Y-65822377D01*
X141618772Y-65892173D01*
X141591376Y-65939564D01*
X141578493Y-65961786D01*
X141557493Y-65999330D01*
X141546075Y-66022831D01*
X141545449Y-66026920D01*
X141559364Y-66019242D01*
X141598059Y-65997203D01*
X141659513Y-65961971D01*
X141741702Y-65914711D01*
X141842604Y-65856589D01*
X141960195Y-65788771D01*
X142092454Y-65712424D01*
X142237358Y-65628714D01*
X142392883Y-65538806D01*
X142557008Y-65443867D01*
X142619451Y-65407732D01*
X142786513Y-65311083D01*
X142945926Y-65218938D01*
X143095645Y-65132475D01*
X143233624Y-65052871D01*
X143357815Y-64981305D01*
X143466173Y-64918955D01*
X143556652Y-64866998D01*
X143627204Y-64826613D01*
X143675785Y-64798978D01*
X143700346Y-64785272D01*
X143702915Y-64783974D01*
X143695431Y-64772220D01*
X143669386Y-64740795D01*
X143627441Y-64692594D01*
X143572254Y-64630510D01*
X143506483Y-64557439D01*
X143432788Y-64476276D01*
X143353827Y-64389916D01*
X143272260Y-64301253D01*
X143190746Y-64213182D01*
X143111943Y-64128599D01*
X143038510Y-64050397D01*
X142973107Y-63981472D01*
X142918392Y-63924719D01*
X142877023Y-63883032D01*
X142862836Y-63869363D01*
X142815820Y-63825201D01*
X142792472Y-63861619D01*
G36*
X146457906Y-63918158D02*
X146425381Y-63930736D01*
X146375807Y-63955712D01*
X146304626Y-63994876D01*
X146299084Y-63997988D01*
X146233526Y-64035476D01*
X146178202Y-64068319D01*
X146138545Y-64093205D01*
X146119988Y-64106820D01*
X146119469Y-64107487D01*
X146123952Y-64126390D01*
X146144514Y-64168605D01*
X146179817Y-64231832D01*
X146228520Y-64313772D01*
X146289282Y-64412122D01*
X146360764Y-64524585D01*
X146378555Y-64552165D01*
X146424907Y-64628699D01*
X146458658Y-64694556D01*
X146476847Y-64743782D01*
X146478714Y-64753507D01*
X146477885Y-64796312D01*
X146468606Y-64864209D01*
X146452032Y-64952843D01*
X146429320Y-65057859D01*
X146401627Y-65174902D01*
X146370110Y-65299616D01*
X146335925Y-65427645D01*
X146300229Y-65554634D01*
X146264179Y-65676228D01*
X146228932Y-65788072D01*
X146195644Y-65885810D01*
X146165472Y-65965087D01*
X146144439Y-66012122D01*
X146119663Y-66062225D01*
X146096270Y-66110168D01*
X146095003Y-66112793D01*
X146056301Y-66161220D01*
X145999816Y-66193828D01*
X145934061Y-66209454D01*
X145867549Y-66206937D01*
X145808795Y-66185114D01*
X145775742Y-66156382D01*
X145728141Y-66077583D01*
X145693261Y-65979378D01*
X145674123Y-65871779D01*
X145671412Y-65810780D01*
X145682330Y-65696935D01*
X145714376Y-65602660D01*
X145769274Y-65523379D01*
X145786393Y-65505733D01*
X145837339Y-65456235D01*
X145840837Y-65106362D01*
X145844336Y-64756489D01*
X145755182Y-64621531D01*
X145713346Y-64560445D01*
X145673055Y-64505493D01*
X145640057Y-64464336D01*
X145625874Y-64449192D01*
X145585719Y-64411810D01*
X145531335Y-64441098D01*
X145496961Y-64462084D01*
X145478154Y-64478378D01*
X145476951Y-64481307D01*
X145464097Y-64493728D01*
X145442104Y-64502977D01*
X145420850Y-64511313D01*
X145388306Y-64527149D01*
X145341678Y-64552033D01*
X145278171Y-64587509D01*
X145194992Y-64635123D01*
X145089347Y-64696422D01*
X145031938Y-64729932D01*
X144964406Y-64770071D01*
X144920115Y-64798659D01*
X144895145Y-64819039D01*
X144885577Y-64834553D01*
X144887492Y-64848546D01*
X144889089Y-64851796D01*
X144904624Y-64872266D01*
X144937864Y-64910665D01*
X144984938Y-64962696D01*
X145041972Y-65024066D01*
X145091300Y-65076090D01*
X145204970Y-65199567D01*
X145293895Y-65306591D01*
X145358866Y-65398240D01*
X145400679Y-65475588D01*
X145414783Y-65514866D01*
X145420608Y-65549249D01*
X145426625Y-65607899D01*
X145432304Y-65684117D01*
X145437116Y-65771202D01*
X145439381Y-65826268D01*
X145442541Y-65921464D01*
X145443931Y-65991062D01*
X145443142Y-66040409D01*
X145439765Y-66074854D01*
X145433392Y-66099743D01*
X145423613Y-66120425D01*
X145415933Y-66133053D01*
X145371579Y-66181726D01*
X145314426Y-66215645D01*
X145254292Y-66230438D01*
X145209227Y-66225086D01*
X145168424Y-66201930D01*
X145117276Y-66160462D01*
X145062958Y-66107912D01*
X145012643Y-66051516D01*
X144973506Y-65998505D01*
X144959095Y-65972889D01*
X144937509Y-65937814D01*
X144898247Y-65884389D01*
X144844898Y-65816789D01*
X144781048Y-65739190D01*
X144710285Y-65655768D01*
X144636196Y-65570698D01*
X144562368Y-65488155D01*
X144492389Y-65412316D01*
X144429845Y-65347356D01*
X144380740Y-65299669D01*
X144326221Y-65252032D01*
X144280358Y-65216908D01*
X144248189Y-65197949D01*
X144237511Y-65195864D01*
X144221147Y-65204274D01*
X144180329Y-65226846D01*
X144117414Y-65262224D01*
X144034756Y-65309054D01*
X143934711Y-65365981D01*
X143819634Y-65431649D01*
X143691881Y-65504703D01*
X143553806Y-65583788D01*
X143407766Y-65667548D01*
X143256116Y-65754629D01*
X143101210Y-65843676D01*
X142945405Y-65933332D01*
X142791056Y-66022243D01*
X142640518Y-66109054D01*
X142496146Y-66192409D01*
X142360296Y-66270954D01*
X142235323Y-66343333D01*
X142123583Y-66408190D01*
X142027430Y-66464171D01*
X141949221Y-66509920D01*
X141891311Y-66544083D01*
X141856054Y-66565304D01*
X141845835Y-66571963D01*
X141859598Y-66573280D01*
X141902896Y-66574559D01*
X141974286Y-66575796D01*
X142072327Y-66576983D01*
X142195578Y-66578115D01*
X142342597Y-66579186D01*
X142511943Y-66580189D01*
X142702174Y-66581119D01*
X142911849Y-66581968D01*
X143139527Y-66582732D01*
X143383765Y-66583403D01*
X143643123Y-66583976D01*
X143916159Y-66584444D01*
X144201432Y-66584802D01*
X144497500Y-66585042D01*
X144802921Y-66585159D01*
X144931076Y-66585171D01*
X148031030Y-66585171D01*
X147809947Y-66201847D01*
X147763144Y-66120680D01*
X147702898Y-66016166D01*
X147631222Y-65891801D01*
X147550131Y-65751082D01*
X147461638Y-65597503D01*
X147367760Y-65434562D01*
X147270509Y-65265754D01*
X147171900Y-65094575D01*
X147073947Y-64924521D01*
X147049175Y-64881512D01*
X146958848Y-64724857D01*
X146872711Y-64575803D01*
X146792058Y-64436568D01*
X146718184Y-64309371D01*
X146652383Y-64196432D01*
X146595950Y-64099968D01*
X146550179Y-64022200D01*
X146516365Y-63965346D01*
X146495802Y-63931625D01*
X146490047Y-63923040D01*
X146477942Y-63916189D01*
X146457906Y-63918158D01*
X146457906Y-63918158D01*
G37*
X146457906Y-63918158D02*
X146425381Y-63930736D01*
X146375807Y-63955712D01*
X146304626Y-63994876D01*
X146299084Y-63997988D01*
X146233526Y-64035476D01*
X146178202Y-64068319D01*
X146138545Y-64093205D01*
X146119988Y-64106820D01*
X146119469Y-64107487D01*
X146123952Y-64126390D01*
X146144514Y-64168605D01*
X146179817Y-64231832D01*
X146228520Y-64313772D01*
X146289282Y-64412122D01*
X146360764Y-64524585D01*
X146378555Y-64552165D01*
X146424907Y-64628699D01*
X146458658Y-64694556D01*
X146476847Y-64743782D01*
X146478714Y-64753507D01*
X146477885Y-64796312D01*
X146468606Y-64864209D01*
X146452032Y-64952843D01*
X146429320Y-65057859D01*
X146401627Y-65174902D01*
X146370110Y-65299616D01*
X146335925Y-65427645D01*
X146300229Y-65554634D01*
X146264179Y-65676228D01*
X146228932Y-65788072D01*
X146195644Y-65885810D01*
X146165472Y-65965087D01*
X146144439Y-66012122D01*
X146119663Y-66062225D01*
X146096270Y-66110168D01*
X146095003Y-66112793D01*
X146056301Y-66161220D01*
X145999816Y-66193828D01*
X145934061Y-66209454D01*
X145867549Y-66206937D01*
X145808795Y-66185114D01*
X145775742Y-66156382D01*
X145728141Y-66077583D01*
X145693261Y-65979378D01*
X145674123Y-65871779D01*
X145671412Y-65810780D01*
X145682330Y-65696935D01*
X145714376Y-65602660D01*
X145769274Y-65523379D01*
X145786393Y-65505733D01*
X145837339Y-65456235D01*
X145840837Y-65106362D01*
X145844336Y-64756489D01*
X145755182Y-64621531D01*
X145713346Y-64560445D01*
X145673055Y-64505493D01*
X145640057Y-64464336D01*
X145625874Y-64449192D01*
X145585719Y-64411810D01*
X145531335Y-64441098D01*
X145496961Y-64462084D01*
X145478154Y-64478378D01*
X145476951Y-64481307D01*
X145464097Y-64493728D01*
X145442104Y-64502977D01*
X145420850Y-64511313D01*
X145388306Y-64527149D01*
X145341678Y-64552033D01*
X145278171Y-64587509D01*
X145194992Y-64635123D01*
X145089347Y-64696422D01*
X145031938Y-64729932D01*
X144964406Y-64770071D01*
X144920115Y-64798659D01*
X144895145Y-64819039D01*
X144885577Y-64834553D01*
X144887492Y-64848546D01*
X144889089Y-64851796D01*
X144904624Y-64872266D01*
X144937864Y-64910665D01*
X144984938Y-64962696D01*
X145041972Y-65024066D01*
X145091300Y-65076090D01*
X145204970Y-65199567D01*
X145293895Y-65306591D01*
X145358866Y-65398240D01*
X145400679Y-65475588D01*
X145414783Y-65514866D01*
X145420608Y-65549249D01*
X145426625Y-65607899D01*
X145432304Y-65684117D01*
X145437116Y-65771202D01*
X145439381Y-65826268D01*
X145442541Y-65921464D01*
X145443931Y-65991062D01*
X145443142Y-66040409D01*
X145439765Y-66074854D01*
X145433392Y-66099743D01*
X145423613Y-66120425D01*
X145415933Y-66133053D01*
X145371579Y-66181726D01*
X145314426Y-66215645D01*
X145254292Y-66230438D01*
X145209227Y-66225086D01*
X145168424Y-66201930D01*
X145117276Y-66160462D01*
X145062958Y-66107912D01*
X145012643Y-66051516D01*
X144973506Y-65998505D01*
X144959095Y-65972889D01*
X144937509Y-65937814D01*
X144898247Y-65884389D01*
X144844898Y-65816789D01*
X144781048Y-65739190D01*
X144710285Y-65655768D01*
X144636196Y-65570698D01*
X144562368Y-65488155D01*
X144492389Y-65412316D01*
X144429845Y-65347356D01*
X144380740Y-65299669D01*
X144326221Y-65252032D01*
X144280358Y-65216908D01*
X144248189Y-65197949D01*
X144237511Y-65195864D01*
X144221147Y-65204274D01*
X144180329Y-65226846D01*
X144117414Y-65262224D01*
X144034756Y-65309054D01*
X143934711Y-65365981D01*
X143819634Y-65431649D01*
X143691881Y-65504703D01*
X143553806Y-65583788D01*
X143407766Y-65667548D01*
X143256116Y-65754629D01*
X143101210Y-65843676D01*
X142945405Y-65933332D01*
X142791056Y-66022243D01*
X142640518Y-66109054D01*
X142496146Y-66192409D01*
X142360296Y-66270954D01*
X142235323Y-66343333D01*
X142123583Y-66408190D01*
X142027430Y-66464171D01*
X141949221Y-66509920D01*
X141891311Y-66544083D01*
X141856054Y-66565304D01*
X141845835Y-66571963D01*
X141859598Y-66573280D01*
X141902896Y-66574559D01*
X141974286Y-66575796D01*
X142072327Y-66576983D01*
X142195578Y-66578115D01*
X142342597Y-66579186D01*
X142511943Y-66580189D01*
X142702174Y-66581119D01*
X142911849Y-66581968D01*
X143139527Y-66582732D01*
X143383765Y-66583403D01*
X143643123Y-66583976D01*
X143916159Y-66584444D01*
X144201432Y-66584802D01*
X144497500Y-66585042D01*
X144802921Y-66585159D01*
X144931076Y-66585171D01*
X148031030Y-66585171D01*
X147809947Y-66201847D01*
X147763144Y-66120680D01*
X147702898Y-66016166D01*
X147631222Y-65891801D01*
X147550131Y-65751082D01*
X147461638Y-65597503D01*
X147367760Y-65434562D01*
X147270509Y-65265754D01*
X147171900Y-65094575D01*
X147073947Y-64924521D01*
X147049175Y-64881512D01*
X146958848Y-64724857D01*
X146872711Y-64575803D01*
X146792058Y-64436568D01*
X146718184Y-64309371D01*
X146652383Y-64196432D01*
X146595950Y-64099968D01*
X146550179Y-64022200D01*
X146516365Y-63965346D01*
X146495802Y-63931625D01*
X146490047Y-63923040D01*
X146477942Y-63916189D01*
X146457906Y-63918158D01*
D14*
G04 #@! TO.C,LOGO_CC*
X154393000Y-58928000D02*
G75*
G03X154393000Y-58928000I-850000J0D01*
G01*
G04 #@! TO.C,LOGO_CC_BY*
X152234000Y-58928000D02*
G75*
G03X152234000Y-58928000I-850000J0D01*
G01*
D11*
X151440796Y-58458100D02*
G75*
G03X151440796Y-58458100I-56796J0D01*
G01*
X151384000Y-58699400D02*
X151384000Y-59385200D01*
X151460200Y-58928000D02*
X151460200Y-58801000D01*
X151295100Y-58928000D02*
X151460200Y-58928000D01*
X151371300Y-58699400D02*
X151295100Y-58928000D01*
X151231600Y-58699400D02*
X151371300Y-58699400D01*
X151231600Y-59029600D02*
X151231600Y-58699400D01*
X151244300Y-59029600D02*
X151231600Y-59029600D01*
X151536400Y-59029600D02*
X151244300Y-59029600D01*
X151536400Y-58699400D02*
X151536400Y-59029600D01*
X151384000Y-58699400D02*
X151536400Y-58699400D01*
X151447500Y-59385200D02*
X151447500Y-59105800D01*
X151384000Y-59385200D02*
X151447500Y-59385200D01*
X151320500Y-59385200D02*
X151409400Y-59385200D01*
X151320500Y-59080400D02*
X151320500Y-59385200D01*
D14*
G04 #@! TO.C,LOGO_CC_SA*
X150075000Y-58928000D02*
G75*
G03X150075000Y-58928000I-850000J0D01*
G01*
D11*
X149694900Y-58940700D02*
G75*
G02X149225000Y-59410600I-469900J0D01*
G01*
X149212300Y-58470800D02*
G75*
G02X149694900Y-58928000I12700J-469900D01*
G01*
X149479000Y-59334400D02*
G75*
G02X148831300Y-59194700I-254000J393700D01*
G01*
X148831300Y-58699400D02*
G75*
G02X149453600Y-58534300I393700J-228600D01*
G01*
D15*
X148805900Y-58928000D02*
X148945600Y-59067700D01*
X148805900Y-58928000D02*
X148678900Y-59067700D01*
X148678900Y-59067700D02*
X148945600Y-59067700D01*
D11*
X148805900Y-59029600D02*
X148805900Y-59004200D01*
X148818600Y-59042300D02*
X148831300Y-59182000D01*
G04 #@! TO.C,LOGO_CC*
D12*
X153634428Y-59056571D02*
X153657285Y-59080380D01*
X153725857Y-59104190D01*
X153771571Y-59104190D01*
X153840142Y-59080380D01*
X153885857Y-59032761D01*
X153908714Y-58985142D01*
X153931571Y-58889904D01*
X153931571Y-58818476D01*
X153908714Y-58723238D01*
X153885857Y-58675619D01*
X153840142Y-58628000D01*
X153771571Y-58604190D01*
X153725857Y-58604190D01*
X153657285Y-58628000D01*
X153634428Y-58651809D01*
X153154428Y-59056571D02*
X153177285Y-59080380D01*
X153245857Y-59104190D01*
X153291571Y-59104190D01*
X153360142Y-59080380D01*
X153405857Y-59032761D01*
X153428714Y-58985142D01*
X153451571Y-58889904D01*
X153451571Y-58818476D01*
X153428714Y-58723238D01*
X153405857Y-58675619D01*
X153360142Y-58628000D01*
X153291571Y-58604190D01*
X153245857Y-58604190D01*
X153177285Y-58628000D01*
X153154428Y-58651809D01*
G04 #@! TD*
%LPC*%
D16*
G04 #@! TO.C,REF\002A\002A*
X152400000Y-54229000D03*
G04 #@! TD*
G04 #@! TO.C,REF\002A\002A*
X190500000Y-67945000D03*
G04 #@! TD*
G04 #@! TO.C,REF\002A\002A*
X190500000Y-54102000D03*
G04 #@! TD*
D17*
G04 #@! TO.C,J1*
X190500000Y-52070000D03*
D18*
X187960000Y-52070000D03*
X185420000Y-52070000D03*
X182880000Y-52070000D03*
X180340000Y-52070000D03*
X177800000Y-52070000D03*
X175260000Y-52070000D03*
X172720000Y-52070000D03*
X170180000Y-52070000D03*
X167640000Y-52070000D03*
X165100000Y-52070000D03*
X162560000Y-52070000D03*
X160020000Y-52070000D03*
X157480000Y-52070000D03*
X154940000Y-52070000D03*
X152400000Y-52070000D03*
X149860000Y-52070000D03*
X147320000Y-52070000D03*
X144780000Y-52070000D03*
X142240000Y-52070000D03*
X139700000Y-52070000D03*
X137160000Y-52070000D03*
G04 #@! TD*
G04 #@! TO.C,J3*
X137160000Y-69850000D03*
X139700000Y-69850000D03*
X142240000Y-69850000D03*
X144780000Y-69850000D03*
X147320000Y-69850000D03*
X149860000Y-69850000D03*
X152400000Y-69850000D03*
X154940000Y-69850000D03*
X157480000Y-69850000D03*
X160020000Y-69850000D03*
X162560000Y-69850000D03*
X165100000Y-69850000D03*
X167640000Y-69850000D03*
X170180000Y-69850000D03*
X172720000Y-69850000D03*
X175260000Y-69850000D03*
X177800000Y-69850000D03*
X180340000Y-69850000D03*
X182880000Y-69850000D03*
X185420000Y-69850000D03*
X187960000Y-69850000D03*
D17*
X190500000Y-69850000D03*
G04 #@! TD*
D19*
G04 #@! TO.C,C1*
X188019200Y-66471800D03*
X185259200Y-66471800D03*
G04 #@! TD*
G04 #@! TO.C,C2*
X177944000Y-59436000D03*
X180704000Y-59436000D03*
G04 #@! TD*
D20*
G04 #@! TO.C,C3*
X163449000Y-59072000D03*
X163449000Y-61832000D03*
G04 #@! TD*
D21*
G04 #@! TO.C,C6*
X158997500Y-56896000D03*
X159772500Y-56896000D03*
G04 #@! TD*
D22*
G04 #@! TO.C,C9*
X158750000Y-58807500D03*
X158750000Y-58032500D03*
G04 #@! TD*
D21*
G04 #@! TO.C,C11*
X160153500Y-65024000D03*
X159378500Y-65024000D03*
G04 #@! TD*
D22*
G04 #@! TO.C,C12*
X166878000Y-65030500D03*
X166878000Y-64255500D03*
G04 #@! TD*
D23*
G04 #@! TO.C,C13*
X163256000Y-64516000D03*
X165166000Y-64516000D03*
G04 #@! TD*
D21*
G04 #@! TO.C,C14*
X166757500Y-57023000D03*
X165982500Y-57023000D03*
G04 #@! TD*
D24*
G04 #@! TO.C,C15*
X166116000Y-58481000D03*
X166116000Y-60391000D03*
G04 #@! TD*
D22*
G04 #@! TO.C,C16*
X158623000Y-62604500D03*
X158623000Y-63379500D03*
G04 #@! TD*
D25*
G04 #@! TO.C,D1*
X185470800Y-64417400D03*
X185470800Y-61617400D03*
G04 #@! TD*
D24*
G04 #@! TO.C,FB1*
X160274000Y-61402000D03*
X160274000Y-63312000D03*
G04 #@! TD*
D26*
G04 #@! TO.C,J2*
X188224700Y-63460000D03*
X188224700Y-58460000D03*
D27*
X190924700Y-64460000D03*
X190924700Y-57460000D03*
G04 #@! TD*
D21*
G04 #@! TO.C,R1*
X162185500Y-56896000D03*
X161410500Y-56896000D03*
G04 #@! TD*
G04 #@! TO.C,R2*
X163709500Y-66167000D03*
X162934500Y-66167000D03*
G04 #@! TD*
D28*
G04 #@! TO.C,TP1*
X170561000Y-57531000D03*
G04 #@! TD*
G04 #@! TO.C,TP2*
X170561000Y-54864000D03*
G04 #@! TD*
D29*
G04 #@! TO.C,U1*
X176478800Y-64135000D03*
D30*
X182778800Y-64135000D03*
X182778800Y-66435000D03*
X182778800Y-61835000D03*
G04 #@! TD*
D31*
G04 #@! TO.C,U3*
X174371000Y-65946000D03*
X173101000Y-65946000D03*
X171831000Y-65946000D03*
X170561000Y-65946000D03*
X170561000Y-60546000D03*
X171831000Y-60546000D03*
X173101000Y-60546000D03*
X174371000Y-60546000D03*
G04 #@! TD*
D28*
G04 #@! TO.C,TP3*
X137795000Y-61849000D03*
G04 #@! TD*
D22*
G04 #@! TO.C,R3*
X139725400Y-62820700D03*
X139725400Y-62045700D03*
G04 #@! TD*
G04 #@! TO.C,R10*
X165023800Y-53638300D03*
X165023800Y-54413300D03*
G04 #@! TD*
G04 #@! TO.C,R12*
X150952200Y-53917700D03*
X150952200Y-54692700D03*
G04 #@! TD*
D21*
G04 #@! TO.C,R13*
X173602500Y-53594000D03*
X174377500Y-53594000D03*
G04 #@! TD*
G04 #@! TO.C,R14*
X169373700Y-67970400D03*
X168598700Y-67970400D03*
G04 #@! TD*
M02*
